<svg xmlns="http://www.w3.org/2000/svg" xmlns:xlink="http://www.w3.org/1999/xlink" viewBox="0 0 800 600"><defs><style>.cls-1{fill:none;}.cls-2{fill:#e2e2e2;}.cls-3{clip-path:url(#clip-path);}.cls-4{clip-path:url(#clip-path-2);}.cls-5{fill:#8eaddb;}.cls-6{fill:#fff;}.cls-7{fill:#e5b22e;}.cls-8{fill:#75381b;}</style><clipPath id="clip-path"><circle id="Mask" class="cls-1" cx="437.13" cy="337.77" r="217.15"/></clipPath><clipPath id="clip-path-2"><rect class="cls-1" x="111.41" y="120.62" width="651.44" height="434.3"/></clipPath></defs><title>FBWC2019_Flags_Digital_Americas_Argentina_ARG_01</title><g id="Holding_Shape" data-name="Holding Shape"><circle id="Circle" class="cls-2" cx="437.13" cy="337.77" r="239.29"/><path id="Triangle" class="cls-2" d="M69.78,338.22c39.57-.35,83.08,37,83.46,62.67-.1-4.46-1.12-127.45-1.12-126.94C152.28,291.73,110.53,338.44,69.78,338.22Z"/><path id="Triangle-2" data-name="Triangle" class="cls-2" d="M220.64,135.5c-9.08,15.84-70.25,35.43-106.21,14,35.27,20.38,54.46,76.32,41.34,99.22C155.84,248.42,220.9,135,220.64,135.5Z"/><path id="Triangle-3" data-name="Triangle" class="cls-2" d="M257.74,17.83c18.93,34.77,6.56,90.85-15.89,103.35,3.86-2.2,111.68-61.3,111.23-61.06C337.5,68.68,276.73,53.91,257.74,17.83Z"/><rect class="cls-1" width="800" height="600"/></g><g id="Flag"><g id="Flag_Argentina" data-name="Flag Argentina"><g class="cls-3"><g class="cls-4"><rect class="cls-5" x="99.34" y="120.62" width="675.57" height="434.3"/><rect class="cls-6" x="99.34" y="265.39" width="675.57" height="144.76"/></g><path id="_48" data-name="48" class="cls-7" d="M435,335.69l-40,43.09s-.78.78-.26,1.3,1.3-.26,1.3-.26l43.1-40m-19.43,7.42c-7.62,2.83-9.83,9.16-16.79,11.33S393.78,366,391.52,368s-4.54.8-4.6,1.72,2.7,1.74,6.18-.34,3.42-5.35,11.88-8.08,8.7-7.53,16.57-9.65"/><path class="cls-8" d="M395.23,380.74h0a1.09,1.09,0,0,1-1.08-1.08,2,2,0,0,1,.58-1.22l23-24.77a24.1,24.1,0,0,0-3.95,2.93,22.47,22.47,0,0,1-8.64,5.12c-5.47,1.76-7.28,3.74-8.88,5.48a12.43,12.43,0,0,1-2.89,2.55c-2.7,1.62-5.14,1.62-6.26.95a1.16,1.16,0,0,1-.65-1.05c.05-.81.87-.86,1.52-.9a5,5,0,0,0,3.25-1.16,15.83,15.83,0,0,0,1.85-2.09c1.93-2.42,4.57-5.73,9.79-7.36,3.38-1.06,5.61-3.13,8-5.33s4.89-4.55,8.78-6l.34.89c-3.71,1.38-6.13,3.63-8.47,5.8s-4.75,4.42-8.34,5.55c-4.94,1.54-7.48,4.72-9.33,7a16.4,16.4,0,0,1-2,2.23A5.92,5.92,0,0,1,388,369.7c-.21,0-.5,0-.63.07.06,0,.16.1.36.19.73.31,2.63.45,5.11-1a11.55,11.55,0,0,0,2.68-2.38c1.68-1.83,3.58-3.9,9.29-5.75a21.68,21.68,0,0,0,8.31-4.92,20,20,0,0,1,6.31-4.09l15.24-16.43.7.65-14.07,15.17.11,0,.25.93c-.61.16-1.16.34-1.68.53l-24.58,26.5c-.08.08-.42.49-.27.63s.56-.19.63-.26l43.1-40,.65.7-43.09,40A2,2,0,0,1,395.23,380.74Z"/><path id="_47" data-name="47" class="cls-7" d="M434.4,336.64,414,391.75s-.43,1,.25,1.31,1.11-.74,1.11-.74l24.52-53.42m-15.11,14.28c-6,5.53-5.59,12.23-11.18,16.89s-5.67,10.39-7,13-3.9,2.48-3.6,3.35,3.17.58,5.58-2.68,1.11-6.24,7.88-12,5.17-10.29,11.63-15.26"/><path class="cls-8" d="M414.46,393.58a1,1,0,0,1-.42-.08,1.17,1.17,0,0,1-.68-1.24,2.26,2.26,0,0,1,.17-.69l11.75-31.69a24,24,0,0,0-2.53,4.23,22.53,22.53,0,0,1-6,8c-4.37,3.72-5.29,6.24-6.1,8.47a12.61,12.61,0,0,1-1.7,3.46c-1.88,2.53-4.11,3.46-5.42,3.27a1.15,1.15,0,0,1-1-.72c-.26-.77.47-1.12,1.06-1.41a5,5,0,0,0,2.56-2.32,16.59,16.59,0,0,0,.91-2.64c.86-3,2-7,6.23-10.54,2.71-2.27,4-5,5.33-8s2.78-6.08,5.82-8.9l.65.7c-2.9,2.69-4.27,5.7-5.6,8.6s-2.7,5.9-5.59,8.31c-4,3.32-5.1,7.22-5.92,10.07a16.35,16.35,0,0,1-1,2.82,5.89,5.89,0,0,1-3,2.74,3.78,3.78,0,0,0-.55.3c.06,0,.17,0,.4,0h0c.81,0,2.6-.61,4.3-2.9a11.44,11.44,0,0,0,1.57-3.22c.85-2.34,1.81-5,6.38-8.87a21.72,21.72,0,0,0,5.79-7.73,20.06,20.06,0,0,1,4.27-6.19l7.79-21,.9.33-7.19,19.39.09-.06.58.76c-.5.38-.94.76-1.35,1.13l-12.56,33.89c-.05.11-.2.61,0,.69a.8.8,0,0,0,.47-.47l24.53-53.44.87.4-24.52,53.42a1.94,1.94,0,0,1-.89,1A1,1,0,0,1,414.46,393.58Z"/><path id="_46" data-name="46" class="cls-7" d="M434.4,338.9l24.52,53.42s.42,1,1.1.74.26-1.31.26-1.31l-20.43-55.11m-.59,20.79c-.3,8.12,4.7,12.59,4.05,19.85s3.33,11.35,4.25,14.17-1,4.51-.17,4.91,2.65-1.82,2.06-5.84-3.64-5.2-2.93-14.06-3.62-10.92-2.56-19"/><path class="cls-8" d="M447.6,396.89a.93.93,0,0,1-.42-.1c-.72-.35-.46-1.12-.25-1.74a5,5,0,0,0,.18-3.45,17.19,17.19,0,0,0-1.23-2.51c-1.49-2.71-3.54-6.41-3.05-11.86.32-3.52-.74-6.38-1.87-9.41s-2.33-6.26-2.18-10.41l1,0c-.14,3.95,1,7.05,2.12,10s2.26,6.09,1.92,9.83c-.46,5.15,1.5,8.71,2.94,11.31a17.44,17.44,0,0,1,1.3,2.68,5.94,5.94,0,0,1-.18,4.05,4.33,4.33,0,0,0-.18.61c0-.06.15-.11.31-.26.57-.56,1.42-2.26,1-5.12a11.66,11.66,0,0,0-1.16-3.38c-1.06-2.25-2.24-4.81-1.76-10.79a21.79,21.79,0,0,0-1.38-9.56,20.22,20.22,0,0,1-1.35-7.39L434,339.1l.87-.4,8.63,18.8s0-.07,0-.11l.95.13c-.08.62-.13,1.2-.15,1.75l15.08,32.85c0,.1.3.55.48.5s0-.61,0-.68L439.4,336.81l.9-.33,20.43,55.11a1.38,1.38,0,0,1-.52,1.91c-.78.32-1.44-.3-1.73-1l-14.1-30.71a24.23,24.23,0,0,0,1.2,4.78A22.37,22.37,0,0,1,447,376.5c-.46,5.73.67,8.16,1.67,10.3a12.48,12.48,0,0,1,1.25,3.65c.46,3.12-.47,5.37-1.52,6.14A1.33,1.33,0,0,1,447.6,396.89Z"/><path id="_45" data-name="45" class="cls-7" d="M434.18,337.77l2.21,58.74s0,1.1.73,1.1.74-1.1.74-1.1l2.21-58.74m-8.49,19c-3.39,7.39-.48,13.43-3.86,19.88s-1.27,11.77-1.49,14.73-2.65,3.78-2,4.47,3.14-.67,4.13-4.61S427,385,431,377.11s.84-11.48,4.9-18.54"/><path class="cls-8" d="M437.13,398.09h0c-.83,0-1.21-.82-1.21-1.58l-1.27-33.78a23.8,23.8,0,0,0-.72,4.88,22.48,22.48,0,0,1-2.49,9.72c-2.62,5.12-2.5,7.8-2.4,10.16a12.46,12.46,0,0,1-.25,3.85c-.76,3.05-2.48,4.78-3.75,5.09a1.17,1.17,0,0,1-1.2-.28c-.54-.6,0-1.22.44-1.71a5,5,0,0,0,1.48-3.11,17.47,17.47,0,0,0-.17-2.8c-.35-3.07-.82-7.28,1.71-12.12,1.65-3.14,1.76-6.18,1.88-9.41s.24-6.68,2-10.45l.87.4c-1.65,3.6-1.77,6.9-1.88,10.09s-.24,6.49-2,9.82c-2.4,4.58-1.94,8.62-1.61,11.57a16.1,16.1,0,0,1,.17,3,5.91,5.91,0,0,1-1.71,3.67,3,3,0,0,0-.4.5c.05,0,.18,0,.39-.13.73-.29,2.17-1.54,2.87-4.33a11.43,11.43,0,0,0,.22-3.58c-.11-2.48-.23-5.3,2.51-10.63a21.82,21.82,0,0,0,2.39-9.36,20.11,20.11,0,0,1,1.57-7.36l-.84-22.39,1,0,.78,20.67a.41.41,0,0,1,.05-.09l.83.48q-.46.81-.81,1.56l1.36,36.12c0,.11.05.64.25.64a.82.82,0,0,0,.26-.62l2.21-58.76,1,0-2.21,58.73a2,2,0,0,1-.45,1.26A1.08,1.08,0,0,1,437.13,398.09Z"/><path id="_44" data-name="44" class="cls-7" d="M437.13,334.82,378.39,337s-1.1,0-1.1.74,1.1.73,1.1.73l58.74,2.22m-19-8.5c-7.39-3.38-13.43-.48-19.89-3.86s-11.76-1.27-14.72-1.49-3.79-2.65-4.47-2,.67,3.15,4.6,4.13,6.2-1.37,14.11,2.69,11.48.83,18.55,4.9"/><path class="cls-8" d="M437.11,341.19,378.37,339a1.82,1.82,0,0,1-1.25-.45,1,1,0,0,1-.31-.76c0-.84.82-1.22,1.58-1.22l33.77-1.27a24.37,24.37,0,0,0-4.87-.71,22.66,22.66,0,0,1-9.73-2.5c-5.11-2.62-7.79-2.5-10.15-2.4a12.45,12.45,0,0,1-3.85-.24c-3.06-.77-4.78-2.49-5.09-3.76a1.13,1.13,0,0,1,.28-1.2c.6-.53,1.21,0,1.71.44a5,5,0,0,0,3.11,1.48,17.47,17.47,0,0,0,2.8-.17c3.06-.35,7.27-.82,12.12,1.72,3.13,1.64,6.18,1.75,9.41,1.87s6.67.25,10.45,2l-.4.87c-3.6-1.65-6.9-1.77-10.09-1.89-3.34-.12-6.49-.24-9.82-2-4.58-2.4-8.62-2-11.57-1.62a17.13,17.13,0,0,1-3,.18,5.89,5.89,0,0,1-3.67-1.72,5.78,5.78,0,0,0-.5-.4s0,.18.12.38c.29.74,1.54,2.19,4.34,2.89a11.67,11.67,0,0,0,3.57.22c2.49-.11,5.3-.23,10.64,2.5a21.82,21.82,0,0,0,9.36,2.39,20.05,20.05,0,0,1,7.35,1.58l22.4-.85,0,1-20.67.78.1.05-.48.83c-.54-.31-1.07-.58-1.57-.81l-36.11,1.36c-.11,0-.65.05-.65.26s.53.25.63.26l58.75,2.21Z"/><path id="_43" data-name="43" class="cls-7" d="M438.25,335.05l-55.11-20.44s-1-.42-1.3.26.74,1.1.74,1.1L436,340.49m-14.28-15.11c-5.54-6-12.23-5.58-16.9-11.17s-10.38-5.68-13-7-2.48-3.89-3.35-3.59-.58,3.16,2.67,5.58,6.25,1.11,12,7.88,10.29,5.16,15.26,11.62"/><path class="cls-8" d="M435.8,340.93l-53.42-24.52a2.65,2.65,0,0,1-.59-.37,1.16,1.16,0,0,1-.39-1.36,1.14,1.14,0,0,1,1.23-.67,2.51,2.51,0,0,1,.7.16L415,325.92a23.93,23.93,0,0,0-4.22-2.53,22.48,22.48,0,0,1-8-6c-3.73-4.38-6.25-5.3-8.47-6.11a12.47,12.47,0,0,1-3.46-1.7c-2.53-1.88-3.47-4.12-3.27-5.42a1.13,1.13,0,0,1,.72-1c.76-.26,1.12.46,1.41,1.05a5,5,0,0,0,2.31,2.56,15.23,15.23,0,0,0,2.65.91c3,.86,7,2,10.54,6.23,2.27,2.72,5,4,8,5.33s6.07,2.79,8.9,5.83l-.7.65c-2.7-2.9-5.7-4.28-8.6-5.61s-5.91-2.7-8.32-5.59c-3.31-4-7.21-5.1-10.07-5.92a16.27,16.27,0,0,1-2.81-1,5.93,5.93,0,0,1-2.74-3,3.47,3.47,0,0,0-.3-.56c0,.06,0,.18,0,.4,0,.8.59,2.6,2.91,4.33a11.69,11.69,0,0,0,3.22,1.56c2.33.85,5,1.82,8.87,6.39a21.76,21.76,0,0,0,7.73,5.79,20.12,20.12,0,0,1,6.19,4.27l21,7.79-.33.89-19.4-7.19.07.09L418,329c-.38-.49-.76-.94-1.14-1.34L383,315.06c-.11,0-.62-.2-.7,0,0,0,0,.11.14.26a1.31,1.31,0,0,0,.34.22l53.44,24.52Z"/><path id="_42" data-name="42" class="cls-7" d="M439.21,335.69l-43.09-40s-.79-.79-1.31-.27.26,1.31.26,1.31l40,43.09m-7.41-19.42c-2.83-7.62-9.16-9.84-11.33-16.79s-7.43-9.22-9.36-11.47-.8-4.55-1.72-4.6-1.75,2.7.34,6.18,5.35,3.41,8.08,11.87,7.53,8.71,9.64,16.58"/><path class="cls-8" d="M434.69,340.18l-40-43.1a2,2,0,0,1-.56-1.2,1,1,0,0,1,.32-.76,1.38,1.38,0,0,1,2,.26l24.78,23a23.72,23.72,0,0,0-2.94-3.95,22.75,22.75,0,0,1-5.11-8.64c-1.76-5.47-3.74-7.28-5.49-8.88a12.45,12.45,0,0,1-2.54-2.9c-1.62-2.7-1.63-5.13-.95-6.25a1.19,1.19,0,0,1,1.05-.65c.8.05.86.86.9,1.52a5,5,0,0,0,1.15,3.25,17.52,17.52,0,0,0,2.1,1.85c2.42,1.92,5.72,4.57,7.36,9.79,1.05,3.38,3.13,5.61,5.32,8s4.55,4.9,6,8.79l-.9.33c-1.38-3.71-3.62-6.13-5.8-8.47s-4.42-4.75-5.54-8.34c-1.54-4.94-4.72-7.47-7-9.32a17,17,0,0,1-2.22-2,5.92,5.92,0,0,1-1.39-3.81,3.34,3.34,0,0,0-.07-.63c0,.06-.09.15-.18.36-.32.72-.46,2.62,1,5.1a11.54,11.54,0,0,0,2.37,2.68c1.83,1.68,3.91,3.58,5.75,9.29a21.73,21.73,0,0,0,4.93,8.31,20.32,20.32,0,0,1,4.09,6.31l16.43,15.25-.65.7L423.72,322a.36.36,0,0,1,0,.11l-.92.24c-.16-.6-.34-1.16-.53-1.68l-26.5-24.57c-.08-.08-.49-.42-.64-.28a.84.84,0,0,0,.26.63l40,43.11Z"/><path id="_41" data-name="41" class="cls-8" d="M419.11,349.25c-7.05,3.35-8.55,8.76-15.45,10.67,5.92-.39,8.19-6.3,16-9.24M436,336.76l-27.47,29.55,29.55-27.47"/><path id="_40" data-name="40" class="cls-8" d="M432.51,358.62c-2.63,7.36.14,12.25-3.38,18.48,3.91-4.46,1.33-10.25,4.75-17.82m1.74-21.44,1.48,40.33,1.47-40.33"/><path id="_39" data-name="39" class="cls-8" d="M424.88,355.27c-5.24,5.79-4.56,11.36-10.2,15.78,5.33-2.63,5.16-9,11.21-14.65m9.82-19.14-14.07,37.82,16.79-36.69"/><path id="_38" data-name="38" class="cls-7" d="M436,335.05l-53.42,24.52s-1,.42-.74,1.1,1.3.26,1.3.26l55.11-20.44m-20.78-.58c-8.13-.3-12.59,4.69-19.85,4s-11.35,3.33-14.18,4.26-4.51-1-4.91-.17,1.83,2.64,5.84,2,5.2-3.64,14.06-2.92,10.93-3.63,19-2.57"/><path class="cls-8" d="M382.5,361.53a1.36,1.36,0,0,1-.52-.09,1.05,1.05,0,0,1-.58-.59c-.32-.77.29-1.43,1-1.73L413.11,345a25,25,0,0,0-4.78,1.21,22.66,22.66,0,0,1-9.93,1.42c-5.73-.48-8.16.67-10.31,1.67a12.56,12.56,0,0,1-3.65,1.24c-3.11.46-5.36-.46-6.14-1.52a1.14,1.14,0,0,1-.2-1.21c.35-.73,1.13-.46,1.75-.25a4.94,4.94,0,0,0,3.44.17,15.4,15.4,0,0,0,2.52-1.23c2.7-1.49,6.4-3.53,11.85-3,3.53.33,6.39-.74,9.41-1.86s6.27-2.33,10.42-2.18l0,.95a25.41,25.41,0,0,0-10,2.12c-3.13,1.16-6.09,2.25-9.83,1.93-5.15-.46-8.71,1.5-11.31,2.93a16.13,16.13,0,0,1-2.68,1.3,5.88,5.88,0,0,1-4-.18,3.19,3.19,0,0,0-.61-.17c.05,0,.11.14.26.3.56.58,2.26,1.43,5.11,1a11.84,11.84,0,0,0,3.39-1.17c2.25-1.05,4.81-2.24,10.78-1.76a21.85,21.85,0,0,0,9.57-1.37,19.34,19.34,0,0,1,7.39-1.36l20.37-9.35.4.87-18.8,8.63.1,0-.12.95c-.62-.08-1.2-.13-1.76-.15L382.78,360c-.1.05-.58.3-.5.49a.83.83,0,0,0,.68,0L438.09,340l.33.9-55.11,20.43A2.24,2.24,0,0,1,382.5,361.53Z"/><path id="_37" data-name="37" class="cls-8" d="M416.09,341.48c-7.8.39-11.25,4.82-18.36,3.95,5.62,1.91,10-2.69,18.28-2.43m20.47-6.59L399.79,353.2l37.82-14.07"/><path id="_36" data-name="36" class="cls-8" d="M416.27,333.15c-7.36-2.62-12.24.14-18.48-3.38,4.47,3.91,10.26,1.33,17.83,4.75m21.43,1.75-40.32,1.47,40.32,1.47"/><path id="_35" data-name="35" class="cls-8" d="M419.63,325.52c-5.8-5.24-11.37-4.55-15.78-10.19,2.63,5.32,9,5.15,14.65,11.21m19.13,9.81-37.81-14.07,36.69,16.79"/><path id="_34" data-name="34" class="cls-8" d="M425.65,319.76c-3.35-7.06-8.76-8.56-10.68-15.46.39,5.92,6.31,8.19,9.24,16m13.93,16.39-29.56-27.46,27.48,29.55"/><path id="_33" data-name="33" class="cls-7" d="M439.85,336.64l-24.52-53.42s-.42-1-1.1-.74-.26,1.31-.26,1.31l20.44,55.11m.58-20.79c.3-8.12-4.7-12.59-4-19.84s-3.34-11.36-4.26-14.18,1-4.51.17-4.91-2.65,1.83-2.05,5.84,3.63,5.2,2.92,14.06,3.62,10.92,2.57,19"/><path class="cls-8" d="M434,339.06,413.52,284a2.14,2.14,0,0,1-.15-.68A1.14,1.14,0,0,1,414,282c.78-.33,1.44.3,1.73,1l14.1,30.71a24,24,0,0,0-1.2-4.77,22.58,22.58,0,0,1-1.42-9.94c.46-5.73-.67-8.16-1.67-10.3a12.67,12.67,0,0,1-1.25-3.65c-.46-3.12.47-5.37,1.53-6.14a1.1,1.1,0,0,1,1.21-.2c.73.35.46,1.12.25,1.74a5,5,0,0,0-.17,3.45,15.64,15.64,0,0,0,1.22,2.51c1.5,2.71,3.54,6.41,3.05,11.86-.31,3.53.75,6.38,1.87,9.41s2.33,6.26,2.18,10.41l-1,0c.15-3.95-1-7-2.12-10s-2.26-6.08-1.92-9.83c.46-5.15-1.5-8.7-2.94-11.3a18.37,18.37,0,0,1-1.3-2.68,6,6,0,0,1,.18-4.06,3.31,3.31,0,0,0,.18-.61c0,.06-.15.11-.31.27-.57.55-1.42,2.25-1,5.11a11.38,11.38,0,0,0,1.17,3.38c1.05,2.25,2.24,4.81,1.75,10.79a21.79,21.79,0,0,0,1.38,9.56,20,20,0,0,1,1.36,7.4l9.34,20.36-.87.4L430.78,318v.11l-.95-.13c.08-.62.13-1.2.15-1.75L414.9,283.42c0-.1-.3-.56-.49-.5s0,.59,0,.68l20.44,55.13Z"/><path id="_32" data-name="32" class="cls-7" d="M440.07,337.77,437.86,279s0-1.1-.73-1.1-.74,1.1-.74,1.1l-2.21,58.74m8.5-19c3.38-7.39.47-13.43,3.85-19.88s1.27-11.77,1.5-14.73,2.65-3.78,2-4.47-3.14.67-4.13,4.61,1.37,6.19-2.68,14.11-.83,11.48-4.9,18.54"/><path class="cls-8" d="M439.59,337.79l-.77-20.67-.06.09-.83-.48a16.76,16.76,0,0,0,.81-1.56l-1.36-36.12c0-.11-.05-.64-.25-.64s-.26.53-.26.63l-2.21,58.75-1,0L435.91,279c0-.75.38-1.57,1.22-1.57a1.07,1.07,0,0,1,.76.31,2,2,0,0,1,.45,1.27l1.27,33.78a23.8,23.8,0,0,0,.72-4.88,22.63,22.63,0,0,1,2.49-9.72c2.62-5.12,2.51-7.79,2.4-10.16a12.78,12.78,0,0,1,.25-3.85c.77-3.05,2.48-4.78,3.75-5.09a1.14,1.14,0,0,1,1.2.28c.54.6,0,1.22-.43,1.71a5,5,0,0,0-1.48,3.12,15.31,15.31,0,0,0,.17,2.79c.34,3.07.81,7.28-1.72,12.12-1.64,3.14-1.76,6.18-1.87,9.41s-.25,6.68-2,10.45l-.87-.4c1.65-3.6,1.77-6.9,1.89-10.09s.24-6.48,2-9.81c2.4-4.59,1.95-8.63,1.62-11.57a17.19,17.19,0,0,1-.18-3,5.87,5.87,0,0,1,1.72-3.68,4.58,4.58,0,0,0,.4-.5c-.05,0-.18,0-.39.13-.74.29-2.18,1.53-2.88,4.33a11.74,11.74,0,0,0-.22,3.58c.11,2.48.23,5.3-2.5,10.64a21.64,21.64,0,0,0-2.39,9.36,20.13,20.13,0,0,1-1.58,7.35l.84,22.39Z"/><path id="_31" data-name="31" class="cls-7" d="M439.85,338.9l20.43-55.11s.43-1-.25-1.31-1.1.74-1.1.74l-24.52,53.42m15.11-14.28c6-5.53,5.58-12.23,11.17-16.89s5.67-10.39,7-13,3.89-2.48,3.59-3.35-3.16-.58-5.58,2.68-1.11,6.25-7.88,12-5.16,10.28-11.62,15.25"/><path class="cls-8" d="M440.3,339.06l-.9-.33,7.19-19.4-.08.07-.59-.76c.5-.38.95-.76,1.35-1.13l12.57-33.89c0-.1.19-.61,0-.69a.83.83,0,0,0-.47.47l-24.53,53.44-.87-.4L458.49,283a1.93,1.93,0,0,1,.9-1,1.06,1.06,0,0,1,.82,0,1.17,1.17,0,0,1,.68,1.24,2.69,2.69,0,0,1-.16.69L449,315.66a24.63,24.63,0,0,0,2.53-4.23,22.57,22.57,0,0,1,6-8c4.38-3.72,5.29-6.24,6.1-8.47a12.61,12.61,0,0,1,1.7-3.46c1.88-2.52,4.11-3.45,5.42-3.27a1.15,1.15,0,0,1,1,.72c.27.77-.47,1.13-1.06,1.42a5,5,0,0,0-2.56,2.31,16.59,16.59,0,0,0-.91,2.64c-.85,3-2,7-6.22,10.54-2.72,2.27-4,5-5.33,8s-2.79,6.08-5.83,8.9l-.65-.7c2.9-2.7,4.28-5.7,5.61-8.6s2.7-5.9,5.58-8.31c4-3.32,5.1-7.22,5.92-10.07a17.24,17.24,0,0,1,1-2.82,5.91,5.91,0,0,1,3-2.73,6.38,6.38,0,0,0,.56-.31c-.06,0-.18,0-.41,0-.74,0-2.6.59-4.32,2.9a11.86,11.86,0,0,0-1.57,3.22c-.85,2.34-1.81,5-6.38,8.87a21.84,21.84,0,0,0-5.79,7.73,19.89,19.89,0,0,1-4.27,6.19Z"/><path id="_30" data-name="30" class="cls-7" d="M439.21,339.85l40-43.09s.78-.78.26-1.3-1.3.26-1.3.26l-43.09,40m19.42-7.42c7.62-2.83,9.84-9.15,16.79-11.33s9.22-7.42,11.47-9.36,4.55-.8,4.6-1.72-2.7-1.74-6.18.34-3.41,5.35-11.87,8.08-8.71,7.53-16.58,9.65"/><path class="cls-8" d="M439.56,340.18l-.7-.65,14.07-15.17-.11,0-.25-.93c.61-.16,1.16-.34,1.68-.53l24.58-26.5c.08-.08.42-.49.27-.63s-.55.19-.62.26l-43.11,40-.65-.7,43.09-40a1.38,1.38,0,0,1,2-.25,1.14,1.14,0,0,1,.15,1.4,2.82,2.82,0,0,1-.41.58l-23,24.78a24.14,24.14,0,0,0,3.95-2.94,22.67,22.67,0,0,1,8.64-5.12c5.47-1.76,7.28-3.74,8.88-5.48a12.28,12.28,0,0,1,2.9-2.55c2.7-1.61,5.13-1.63,6.25-.94a1.13,1.13,0,0,1,.65,1c-.05.81-.86.86-1.52.9A5,5,0,0,0,483,308a15.83,15.83,0,0,0-1.85,2.09c-1.93,2.42-4.57,5.73-9.79,7.36-3.38,1.06-5.61,3.13-8,5.33s-4.89,4.55-8.78,6l-.34-.89c3.72-1.38,6.13-3.63,8.47-5.8s4.76-4.42,8.35-5.54c4.93-1.55,7.47-4.72,9.32-7a16.4,16.4,0,0,1,2-2.23,5.88,5.88,0,0,1,3.81-1.38c.22,0,.5,0,.63-.07-.06,0-.15-.1-.36-.19-.73-.31-2.63-.45-5.1,1a11.6,11.6,0,0,0-2.69,2.38c-1.67,1.83-3.58,3.91-9.29,5.75a21.64,21.64,0,0,0-8.3,4.93,20.36,20.36,0,0,1-6.32,4.08Z"/><path id="_29" data-name="29" class="cls-7" d="M435,339.86l43.1,40s.78.79,1.3.27-.26-1.31-.26-1.31l-40-43.09m7.41,19.43c2.83,7.61,9.16,9.83,11.33,16.78s7.43,9.22,9.36,11.47.8,4.55,1.72,4.6,1.75-2.7-.33-6.18-5.35-3.41-8.08-11.87-7.53-8.71-9.65-16.58"/><path class="cls-8" d="M469.06,388.46H469c-.81,0-.86-.86-.91-1.52a5,5,0,0,0-1.15-3.25,16.77,16.77,0,0,0-2.1-1.85c-2.41-1.93-5.72-4.57-7.35-9.78-1.06-3.38-3.13-5.62-5.33-8s-4.55-4.9-6-8.79l.9-.33c1.38,3.71,3.63,6.13,5.8,8.47s4.42,4.75,5.54,8.34c1.55,4.94,4.72,7.47,7,9.32a17.79,17.79,0,0,1,2.23,2,5.9,5.9,0,0,1,1.38,3.81,3.34,3.34,0,0,0,.07.63c0-.06.1-.15.18-.36.32-.73.46-2.63-1-5.1a11.79,11.79,0,0,0-2.38-2.68c-1.83-1.68-3.91-3.58-5.75-9.29a21.73,21.73,0,0,0-4.93-8.31,20.3,20.3,0,0,1-4.08-6.31L434.72,340.2l.65-.7,15.17,14.07,0-.11.92-.24c.17.6.34,1.16.54,1.68l26.49,24.57c.08.08.49.42.64.28a.84.84,0,0,0-.26-.63l-40-43.11.7-.65,40,43.1a1.9,1.9,0,0,1,.57,1.2,1,1,0,0,1-.32.76,1.39,1.39,0,0,1-2-.26l-24.78-23a23.72,23.72,0,0,0,2.94,3.95,22.62,22.62,0,0,1,5.11,8.64c1.77,5.47,3.74,7.28,5.49,8.88a12.48,12.48,0,0,1,2.55,2.9c1.61,2.7,1.62,5.13.94,6.25A1.15,1.15,0,0,1,469.06,388.46Z"/><path id="_28" data-name="28" class="cls-7" d="M437.13,340.72l58.73-2.21s1.11,0,1.11-.74-1.11-.73-1.11-.73l-58.73-2.21m19,8.49c7.39,3.39,13.43.48,19.88,3.86s11.77,1.27,14.73,1.49,3.78,2.65,4.47,2-.68-3.14-4.61-4.13-6.2,1.37-14.11-2.69-11.48-.83-18.54-4.9"/><path class="cls-8" d="M495,351.29a2.11,2.11,0,0,1-1.18-.66,5,5,0,0,0-3.11-1.48,17.35,17.35,0,0,0-2.79.17c-3.08.35-7.28.82-12.12-1.72-3.14-1.64-6.19-1.75-9.41-1.87s-6.68-.25-10.45-2l.4-.87c3.59,1.64,6.89,1.76,10.08,1.88,3.34.12,6.49.24,9.82,2,4.58,2.39,8.62,1.94,11.57,1.61a17.08,17.08,0,0,1,3-.18,6,6,0,0,1,3.68,1.72,5.85,5.85,0,0,0,.49.4c0-.05,0-.18-.12-.38-.29-.74-1.53-2.19-4.34-2.89a11.65,11.65,0,0,0-3.57-.22c-2.48.11-5.3.23-10.64-2.5a21.82,21.82,0,0,0-9.36-2.39,20.27,20.27,0,0,1-7.35-1.57l-22.39.84,0-1,20.67-.78-.09,0,.48-.83q.81.46,1.56.81L495.84,338c.12,0,.65,0,.65-.26s-.53-.25-.63-.26l-58.75-2.21,0-.95,58.74,2.21a1.65,1.65,0,0,1,1.25.45,1,1,0,0,1,.32.76c0,.84-.83,1.22-1.59,1.22l-33.77,1.27A24.48,24.48,0,0,0,467,341a22.66,22.66,0,0,1,9.73,2.5c5.11,2.62,7.79,2.5,10.16,2.4a12.48,12.48,0,0,1,3.85.24c3.05.77,4.77,2.49,5.09,3.76a1.17,1.17,0,0,1-.28,1.2A.79.79,0,0,1,495,351.29Z"/><path id="_27" data-name="27" class="cls-7" d="M436,340.49l55.11,20.44s1,.42,1.3-.26-.74-1.1-.74-1.1l-53.42-24.52m14.29,15.11c5.53,6,12.22,5.58,16.89,11.17s10.39,5.68,13,7,2.48,3.89,3.35,3.59.58-3.16-2.68-5.58-6.25-1.1-12-7.88-10.29-5.16-15.25-11.62"/><path class="cls-8" d="M485.67,372.45c-.56,0-.86-.61-1.11-1.11a5,5,0,0,0-2.31-2.56,15.8,15.8,0,0,0-2.65-.91c-3-.86-7-2-10.54-6.23-2.27-2.72-5-4-8-5.33s-6.08-2.78-8.9-5.82l.7-.65c2.69,2.9,5.69,4.27,8.6,5.6s5.9,2.7,8.31,5.59c3.31,4,7.22,5.1,10.07,5.92a17.16,17.16,0,0,1,2.81,1,5.93,5.93,0,0,1,2.74,3,3.41,3.41,0,0,0,.31.56c0-.06,0-.18,0-.4,0-.8-.59-2.6-2.9-4.33a11.82,11.82,0,0,0-3.22-1.56c-2.34-.85-5-1.81-8.87-6.39A21.78,21.78,0,0,0,463,353a20.12,20.12,0,0,1-6.19-4.27l-21-7.79.34-.89,19.39,7.19-.06-.09.75-.58c.39.49.76.94,1.14,1.35l33.89,12.56c.1,0,.61.2.69,0s0-.11-.14-.26a1.31,1.31,0,0,0-.34-.22l-53.44-24.52.4-.87,53.42,24.51a2.65,2.65,0,0,1,.59.37,1.15,1.15,0,0,1,.39,1.36,1,1,0,0,1-.58.58,1.94,1.94,0,0,1-1.34-.07l-31.69-11.75a23.65,23.65,0,0,0,4.23,2.53,22.57,22.57,0,0,1,8,6c3.72,4.38,6.24,5.3,8.46,6.11a12.53,12.53,0,0,1,3.47,1.7c2.52,1.87,3.46,4.12,3.26,5.41a1.11,1.11,0,0,1-.72,1A.89.89,0,0,1,485.67,372.45Z"/><path id="_26" data-name="26" class="cls-8" d="M441.75,316.92c2.62-7.36-.15-12.25,3.38-18.48-3.92,4.46-1.34,10.25-4.75,17.82m-1.75,21.44-1.47-40.33-1.48,40.33"/><path id="_25" data-name="25" class="cls-8" d="M449.37,320.27c5.24-5.79,4.56-11.36,10.2-15.78-5.32,2.63-5.15,9-11.21,14.65m-9.82,19.14,14.07-37.82-16.79,36.69"/><path id="_24" data-name="24" class="cls-8" d="M455.14,326.29c7.06-3.35,8.56-8.76,15.46-10.67-5.93.39-8.2,6.3-16,9.24m-16.39,13.92,27.47-29.55L436.16,336.7"/><path id="_23" data-name="23" class="cls-8" d="M433.41,316.74c-.39-7.81-4.81-11.26-3.94-18.37-1.91,5.62,2.69,10,2.43,18.29m6.59,20.47L421.7,300.44l14.07,37.82"/><path id="_22" data-name="22" class="cls-7" d="M438.26,340.49,491.67,316s1-.42.74-1.1-1.3-.26-1.3-.26L436,335.05m20.78.59c8.13.29,12.6-4.7,19.85-4.05s11.36-3.33,14.18-4.26,4.51,1,4.91.17-1.83-2.64-5.84-2.05-5.2,3.64-14.06,2.92-10.93,3.63-19,2.57"/><path class="cls-8" d="M438.46,340.93l-.4-.87,18.8-8.63h-.11l.12-1a16.3,16.3,0,0,0,1.76.15l32.84-15.07c.11-.05.58-.3.5-.49a.88.88,0,0,0-.68,0L436.17,335.5l-.34-.9,55.11-20.43a1.91,1.91,0,0,1,1.33-.07,1.1,1.1,0,0,1,.59.59c.31.77-.3,1.43-1,1.73l-30.72,14.1a24.06,24.06,0,0,0,4.78-1.21,22.86,22.86,0,0,1,9.94-1.42c5.73.47,8.16-.66,10.3-1.67a12.56,12.56,0,0,1,3.65-1.24c3.11-.46,5.36.46,6.14,1.52a1.14,1.14,0,0,1,.2,1.21c-.35.73-1.13.47-1.75.25a5.05,5.05,0,0,0-3.44-.17,15.4,15.4,0,0,0-2.52,1.23c-2.7,1.49-6.41,3.52-11.85,3.05-3.53-.34-6.39.74-9.41,1.87s-6.24,2.33-10.41,2.17l0-.95A25.72,25.72,0,0,0,466.85,333c3.12-1.16,6.08-2.26,9.82-1.93,5.16.47,8.72-1.5,11.31-2.93a16.52,16.52,0,0,1,2.68-1.3,5.87,5.87,0,0,1,4,.18,5.27,5.27,0,0,0,.61.18c-.05,0-.1-.15-.26-.31-.56-.58-2.26-1.43-5.11-1a11.67,11.67,0,0,0-3.38,1.17c-2.26,1.05-4.82,2.24-10.79,1.76a21.8,21.8,0,0,0-9.56,1.37,19.86,19.86,0,0,1-7.4,1.36Z"/><path id="_21" data-name="21" class="cls-8" d="M458.16,334.06c7.8-.39,11.26-4.82,18.37-3.95-5.63-1.91-10,2.69-18.29,2.43m-20.47,6.59,36.69-16.79-37.82,14.07"/><path id="_20" data-name="20" class="cls-8" d="M458,342.39c7.36,2.62,12.24-.14,18.48,3.38-4.47-3.91-10.25-1.33-17.82-4.75m-21.44-1.75,40.32-1.47-40.32-1.47"/><path id="_19" data-name="19" class="cls-8" d="M454.63,350c5.79,5.24,11.36,4.55,15.77,10.19-2.62-5.32-9-5.15-14.65-11.21m-19.13-9.81,37.82,14.07-36.7-16.79"/><path id="_18" data-name="18" class="cls-8" d="M448.61,355.78c3.34,7.06,8.75,8.56,10.67,15.46-.39-5.92-6.31-8.19-9.24-16m-13.93-16.39,29.56,27.47L438.2,336.8"/><path id="_17" data-name="17" class="cls-8" d="M440.84,358.8c.39,7.81,4.81,11.26,4,18.37,1.9-5.62-2.7-10-2.43-18.28m-6.59-20.48,16.79,36.69-14.07-37.81"/><path id="_16" data-name="16" class="cls-7" d="M437.13,313.83a23.94,23.94,0,1,1-23.94,23.94A23.93,23.93,0,0,1,437.13,313.83Z"/><path class="cls-8" d="M437.13,362.35a24.58,24.58,0,1,1,24.58-24.58A24.61,24.61,0,0,1,437.13,362.35Zm0-47.87a23.29,23.29,0,1,0,23.29,23.29A23.31,23.31,0,0,0,437.13,314.48Z"/><path id="_15" data-name="15" class="cls-8" d="M445.29,332.65a4.73,4.73,0,0,0-4.12,2.18c1.84,1.66,5.91,1.84,8.67-.19a6.36,6.36,0,0,0-4.55-2Zm0,.38c1.59,0,3.08.7,3.29,1.43a4.86,4.86,0,0,1-6.63.37,3.87,3.87,0,0,1,3.34-1.8Z"/><path id="_14" data-name="14" class="cls-8" d="M445.6,331.51a4.87,4.87,0,0,0-4.05,1.48,5,5,0,0,1-1.84.92c-.19.18,0,.73.36.55a10.22,10.22,0,0,0,2.21-1.47,4.62,4.62,0,0,1,3.32-.92c3.31,0,5.15,2.76,5.52,2.57s-1.84-3.13-5.52-3.13Z"/><path id="_12" data-name="12" class="cls-8" d="M445.23,332.8a1.66,1.66,0,1,1-1.66,1.65A1.65,1.65,0,0,1,445.23,332.8Z"/><path id="_11" data-name="11" class="cls-8" d="M450,335.56c-3.13,2.4-6.26,2.21-8.1,1.11s-1.85-1.47-1.48-1.47.74.36,2.21,1.1,3.68.74,7.37-.74Z"/><path id="_9" data-name="9" class="cls-8" d="M435.27,346c-1.85,0-2.58,1.67-4.23,2.78a33.83,33.83,0,0,0,2.93-1.84c1.29-.73,2.39.17,3.13.17h0c.74,0,1.84-.9,3.13-.17a33.67,33.67,0,0,0,3,1.84c-1.66-1.11-2.41-2.78-4.26-2.78a5,5,0,0,0-1.83.57h0A5,5,0,0,0,435.27,346Z"/><path id="_8" data-name="8" class="cls-8" d="M434.64,348.16a12.48,12.48,0,0,0-3.07.6c3.32-.74,4.05.37,5.52.37h0c1.48,0,2.21-1.11,5.52-.37-3.68-1.11-4.41-.38-5.52-.38h0a20.24,20.24,0,0,0-2.45-.22Z"/><path id="_7" data-name="7" class="cls-8" d="M431.74,348.73l-.7,0c3.87.37,2,2.58,6.06,2.58h0c4.05,0,2.22-2.21,6.08-2.58-4-.37-2.77,2-6.08,2h0c-3.11,0-2.15-2.09-5.36-2Z"/><path id="_6" data-name="6" class="cls-8" d="M440.44,354.71a3.31,3.31,0,1,0-6.62,0,3.4,3.4,0,0,1,6.62,0Z"/><path id="_13" data-name="13" class="cls-8" d="M452.22,332.62c-4.23-3.68-9.57-4.24-12.52-1.47a7.17,7.17,0,0,0-1.37,3.07,8.87,8.87,0,0,0,1.93,6.68,1.4,1.4,0,0,0-.74.37,13.12,13.12,0,0,1-1.5-8.4,11.79,11.79,0,0,1,.58-2.09c4-3.32,9.57-3.69,13.62,1.84Z"/><path id="_10" data-name="10" class="cls-8" d="M433.46,341.08a1.66,1.66,0,0,0,.33,3.28,1.6,1.6,0,0,0,1.34-.7,3.52,3.52,0,0,0,2,.54h.21a3.49,3.49,0,0,0,2-.54,1.62,1.62,0,0,0,1.35.7,1.65,1.65,0,0,0,.32-3.28,1.11,1.11,0,0,1-.37,2.15,1.12,1.12,0,0,1-1.11-1.05,2.5,2.5,0,0,1-4.57,0,1.12,1.12,0,0,1-1.11,1.05,1.11,1.11,0,0,1-.38-2.15Z"/><path id="_5" data-name="5" class="cls-8" d="M422.24,332.62c4.24-3.68,9.58-4.24,12.53-1.47a7.17,7.17,0,0,1,1.37,3.07c.37,2.1-.29,4.36-1.93,6.68a1.4,1.4,0,0,1,.74.37,13.12,13.12,0,0,0,1.5-8.4,11.79,11.79,0,0,0-.58-2.09c-4.05-3.32-9.57-3.69-13.62,1.84Z"/><path id="_4" data-name="4" class="cls-8" d="M428.87,331.51a4.88,4.88,0,0,1,4.05,1.48,5,5,0,0,0,1.84.92c.19.18,0,.73-.36.55a10.22,10.22,0,0,1-2.21-1.47,4.62,4.62,0,0,0-3.32-.92c-3.31,0-5.15,2.76-5.52,2.57s1.84-3.13,5.52-3.13Z"/><path id="_3" data-name="3" class="cls-8" d="M428.76,332.65a4.73,4.73,0,0,0-4.12,2.18c1.84,1.66,5.91,1.84,8.67-.19a6.36,6.36,0,0,0-4.55-2Zm0,.38c1.59,0,3.08.7,3.29,1.43a4.86,4.86,0,0,1-6.63.37,3.87,3.87,0,0,1,3.34-1.8Z"/><path id="_2" data-name="2" class="cls-8" d="M429,332.8a1.66,1.66,0,1,1-1.65,1.65A1.65,1.65,0,0,1,429,332.8Z"/><path id="_1" data-name="1" class="cls-8" d="M424.45,335.56c3.13,2.4,6.26,2.21,8.1,1.11s1.84-1.47,1.48-1.47-.74.36-2.21,1.1-3.69.74-7.37-.74Z"/></g></g></g></svg>