<svg xmlns="http://www.w3.org/2000/svg" xmlns:xlink="http://www.w3.org/1999/xlink" viewBox="0 0 800 600"><defs><style>.cls-1{fill:none;}.cls-2{fill:#e2e2e2;}.cls-3{clip-path:url(#clip-path);}.cls-4{fill:#2e316c;}.cls-5{fill:#fff;}.cls-6{fill:#c10e1a;}</style><clipPath id="clip-path"><circle id="Mask" class="cls-1" cx="437.13" cy="337.77" r="217.15"/></clipPath></defs><title>FBWC2019_Flags_Digital_Asia_Australia_AUS_01</title><g id="Holding_Shape" data-name="Holding Shape"><circle id="Circle" class="cls-2" cx="437.13" cy="337.77" r="239.29"/><path id="Triangle" class="cls-2" d="M69.78,338.22c39.57-.35,83.08,37,83.46,62.67-.1-4.46-1.12-127.45-1.12-126.94C152.28,291.73,110.53,338.44,69.78,338.22Z"/><path id="Triangle-2" data-name="Triangle" class="cls-2" d="M220.64,135.5c-9.08,15.84-70.25,35.43-106.21,14,35.27,20.38,54.46,76.32,41.34,99.22C155.84,248.42,220.9,135,220.64,135.5Z"/><path id="Triangle-3" data-name="Triangle" class="cls-2" d="M257.74,17.83c18.93,34.77,6.56,90.85-15.89,103.35,3.86-2.2,111.68-61.3,111.23-61.06C337.5,68.68,276.73,53.91,257.74,17.83Z"/><rect class="cls-1" width="800" height="600"/></g><g id="Flag"><g id="Flag_AUS" data-name="Flag AUS"><g class="cls-3"><rect class="cls-4" x="74.72" y="120.62" width="651.81" height="435.32"/><polygon class="cls-5" points="563.89 438.41 569.16 454.79 585.25 448.7 575.73 463.04 590.53 471.82 573.39 473.31 575.74 490.37 563.89 477.89 552.03 490.37 554.39 473.31 537.25 471.82 552.04 463.04 542.53 448.7 558.62 454.79 563.89 438.41"/><polygon class="cls-5" points="468.23 286.96 473.5 303.34 489.6 297.25 480.08 311.59 494.88 320.37 477.73 321.86 480.09 338.91 468.23 326.44 456.38 338.91 458.73 321.86 441.59 320.37 456.39 311.59 446.87 297.25 462.97 303.34 468.23 286.96"/><polygon class="cls-5" points="563.89 183.34 569.16 199.73 585.25 193.63 575.73 207.96 590.53 216.75 573.39 218.24 575.74 235.29 563.89 222.82 552.03 235.29 554.39 218.24 537.25 216.75 552.04 207.96 542.53 193.63 558.62 199.73 563.89 183.34"/><polygon class="cls-5" points="648.91 261.45 654.18 277.84 670.27 271.74 660.76 286.08 675.55 294.86 658.41 296.35 660.76 313.41 648.91 300.93 637.06 313.41 639.41 296.35 622.27 294.86 637.07 286.08 627.55 271.74 643.64 277.84 648.91 261.45"/><polygon class="cls-5" points="602.15 338.2 606.32 348.41 617.31 349.22 608.89 356.33 611.52 367.04 602.15 361.23 592.78 367.04 595.41 356.33 586.99 349.22 597.98 348.41 602.15 338.2"/><polygon class="cls-5" points="238.07 390.47 249.24 425.19 283.34 412.27 263.16 442.65 294.52 461.26 258.19 464.41 263.19 500.54 238.07 474.1 212.95 500.54 217.96 464.41 181.63 461.26 212.99 442.65 192.81 412.27 226.91 425.19 238.07 390.47"/><polygon class="cls-4" points="111.5 338.46 211.08 338.46 211.08 271.9 111.5 338.46"/><polygon class="cls-4" points="74.91 144.45 74.91 192.8 147.24 192.8 74.91 144.45"/><polygon class="cls-4" points="401.25 192.8 401.25 144.8 329.43 192.8 401.25 192.8"/><polygon class="cls-4" points="401.25 313.47 401.25 265.27 329.14 265.27 401.25 313.47"/><polygon class="cls-4" points="74.91 265.27 74.91 313.86 147.59 265.27 74.91 265.27"/><polygon class="cls-4" points="265.07 338.46 365.17 338.46 265.07 271.56 265.07 338.46"/><polygon class="cls-4" points="364.43 120.34 265.07 120.34 265.07 186.75 364.43 120.34"/><polygon class="cls-4" points="211.08 120.34 112.3 120.34 211.08 186.37 211.08 120.34"/><polygon class="cls-5" points="180.95 207.65 205.53 207.65 211.08 207.65 221.96 207.65 221.96 193.63 221.96 192.8 221.96 120.34 211.08 120.34 211.08 186.37 112.3 120.34 74.91 120.34 183.31 192.8 158.73 192.8 74.91 136.77 74.91 144.45 147.24 192.8 74.91 192.8 74.91 207.65 169.46 207.65 180.95 207.65"/><polygon class="cls-5" points="293.95 250.42 269.53 250.42 265.07 250.42 254.19 250.42 254.19 264.28 254.19 265.27 254.19 338.46 265.07 338.46 265.07 271.56 365.17 338.46 401.25 338.46 291.75 265.27 316.17 265.27 401.25 322.14 401.25 313.47 329.14 265.27 401.25 265.27 401.25 250.42 306.92 250.42 293.95 250.42"/><polygon class="cls-5" points="221.96 264.63 221.96 255.95 221.96 250.42 211.08 250.42 206.63 250.42 169.81 250.42 74.91 250.42 74.91 265.27 147.59 265.27 74.91 313.86 74.91 338.46 184.41 265.27 208.01 265.27 98.51 338.46 111.5 338.46 211.08 271.9 211.08 338.46 221.96 338.46 221.96 265.27 221.96 264.63"/><polygon class="cls-5" points="292.84 192.8 267.52 192.8 375.92 120.34 364.43 120.34 265.07 186.75 265.07 120.34 254.19 120.34 254.19 192.8 254.19 194.03 254.19 201.71 254.19 207.65 265.07 207.65 270.63 207.65 307.22 207.65 401.25 207.65 401.25 192.8 329.43 192.8 401.25 144.8 401.25 120.34 292.84 192.8"/><polygon class="cls-6" points="183.31 192.8 74.91 120.34 74.91 136.77 158.73 192.8 183.31 192.8"/><polygon class="cls-6" points="291.75 265.27 401.25 338.46 401.25 322.14 316.17 265.27 291.75 265.27"/><polygon class="cls-6" points="292.84 192.8 401.25 120.34 375.92 120.34 267.52 192.8 292.84 192.8"/><polygon class="cls-6" points="184.41 265.27 74.91 338.46 98.51 338.46 208.01 265.27 184.41 265.27"/><polygon class="cls-6" points="254.19 207.65 254.19 120.34 221.96 120.34 221.96 207.65 74.91 207.65 74.91 250.42 221.96 250.42 221.96 338.46 254.19 338.46 254.19 250.42 401.25 250.42 401.25 207.65 254.19 207.65"/></g></g></g></svg>