<svg xmlns="http://www.w3.org/2000/svg" xmlns:xlink="http://www.w3.org/1999/xlink" viewBox="0 0 800 600"><defs><style>.cls-1{fill:none;}.cls-2{fill:#e2e2e2;}.cls-3{clip-path:url(#clip-path);}.cls-4{fill:#b9261d;}.cls-5{fill:#f6dc11;}</style><clipPath id="clip-path"><circle id="Mask" class="cls-1" cx="437.13" cy="337.77" r="217.15"/></clipPath></defs><title>FBWC2019_Flags_Digital_Asia_China_CHN_01</title><g id="Holding_Shape" data-name="Holding Shape"><circle id="Circle" class="cls-2" cx="437.13" cy="337.77" r="239.29"/><path id="Triangle" class="cls-2" d="M69.78,338.22c39.57-.35,83.08,37,83.46,62.67-.1-4.46-1.12-127.45-1.12-126.94C152.28,291.73,110.53,338.44,69.78,338.22Z"/><path id="Triangle-2" data-name="Triangle" class="cls-2" d="M220.64,135.5c-9.08,15.84-70.25,35.43-106.21,14,35.27,20.38,54.46,76.32,41.34,99.22C155.84,248.42,220.9,135,220.64,135.5Z"/><path id="Triangle-3" data-name="Triangle" class="cls-2" d="M257.74,17.83c18.93,34.77,6.56,90.85-15.89,103.35,3.86-2.2,111.68-61.3,111.23-61.06C337.5,68.68,276.73,53.91,257.74,17.83Z"/><rect class="cls-1" width="800" height="600"/></g><g id="Flag"><g id="Flag_CHN" data-name="Flag CHN"><g class="cls-3"><g id="Flag_China" data-name="Flag China"><rect class="cls-4" x="219.71" y="120.62" width="651.98" height="434.66"/><polygon class="cls-5" points="290.95 279.68 305.21 235.51 267.74 208.13 314.15 208.04 328.61 163.95 343.03 208.06 389.44 208.18 351.94 235.54 366.17 279.71 328.57 252.5 290.95 279.68"/><polygon class="cls-5" points="417.99 150.47 433.59 156.23 443.96 143.28 443.3 159.83 458.87 165.65 442.86 170.13 442.13 186.67 432.88 172.89 416.86 177.3 427.16 164.3 417.99 150.47"/><polygon class="cls-5" points="467.28 292.05 472.3 276.43 459.09 266.75 475.46 266.71 480.56 251.12 485.64 266.72 502.01 266.77 488.79 276.44 493.81 292.06 480.55 282.44 467.28 292.05"/><polygon class="cls-5" points="417.86 329.9 427.28 316.32 417.33 303 433.16 307.88 442.64 294.33 443 310.92 458.81 315.85 443.2 321.25 443.49 337.84 433.48 324.58 417.86 329.9"/><polygon class="cls-5" points="501.41 217.05 485.56 214.57 478.23 228.85 475.69 213 459.86 210.45 474.13 203.14 471.67 187.28 483.04 198.61 497.35 191.36 490.09 205.67 501.41 217.05"/></g></g></g></g></svg>