<svg xmlns="http://www.w3.org/2000/svg" xmlns:xlink="http://www.w3.org/1999/xlink" viewBox="0 0 800 600"><defs><style>.cls-1{fill:none;}.cls-2{fill:#e2e2e2;}.cls-3{clip-path:url(#clip-path);}.cls-4{fill:#fff;}.cls-5{fill:#181814;}.cls-6{fill:#2e376b;}.cls-7{fill:#a71d2a;}</style><clipPath id="clip-path"><circle id="Mask" class="cls-1" cx="437.13" cy="337.77" r="217.15"/></clipPath></defs><title>FBWC2019_Flags_Digital_Asia_Korea_KOR_01</title><g id="Holding_Shape" data-name="Holding Shape"><circle id="Circle" class="cls-2" cx="437.13" cy="337.77" r="239.29"/><path id="Triangle" class="cls-2" d="M69.78,338.22c39.57-.35,83.08,37,83.46,62.67-.1-4.46-1.12-127.45-1.12-126.94C152.28,291.73,110.53,338.44,69.78,338.22Z"/><path id="Triangle-2" data-name="Triangle" class="cls-2" d="M220.64,135.5c-9.08,15.84-70.25,35.43-106.21,14,35.27,20.38,54.46,76.32,41.34,99.22C155.84,248.42,220.9,135,220.64,135.5Z"/><path id="Triangle-3" data-name="Triangle" class="cls-2" d="M257.74,17.83c18.93,34.77,6.56,90.85-15.89,103.35,3.86-2.2,111.68-61.3,111.23-61.06C337.5,68.68,276.73,53.91,257.74,17.83Z"/><rect class="cls-1" width="800" height="600"/></g><g id="Flag"><g id="Flag_KOR" data-name="Flag KOR"><g class="cls-3"><g id="Flag_Korea" data-name="Flag Korea"><rect class="cls-4" x="88.51" y="105.36" width="697.23" height="464.82"/><path class="cls-5" d="M538,215.91l23.11,34.67L548.48,259l-23.11-34.67Zm14.7,49.37L575.79,300l12.61-8.4-23.11-34.67Zm-8.4-53.57,50.42,75.64,12.61-8.41L556.88,203.3Zm18.9-12.61,23.12,34.67,12.6-8.41L575.79,190.7Zm27.32,41,23.11,34.67,12.61-8.41-23.11-34.66Z"/><path class="cls-5" d="M298.46,375.59l50.43,75.64-12.61,8.4L285.85,384Zm-31.52,21,23.11,34.68,12.61-8.41-23.11-34.67Zm27.31,41,23.12,34.66,12.6-8.4-23.11-34.67ZM248,409.2l50.43,75.64,12.61-8.4L260.64,400.8Z"/><path class="cls-5" d="M285.85,291.55l50.43-75.64,12.6,8.4L298.46,300Zm-6.3-4.2L330,211.71l-12.6-8.41L267,278.94Zm-18.9-12.61,50.41-75.64-12.6-8.4L248,266.33Z"/><path class="cls-5" d="M525.37,451.22l23.11-34.66,12.61,8.4L538,459.63Zm39.92-32.56L588.4,384l-12.6-8.4-23.12,34.67Zm-8.4,53.57L580,437.57l-12.61-8.41-23.11,34.67Zm27.31-41,23.11-34.68-12.61-8.4-23.11,34.67Zm-8.4,53.57,23.11-34.67-12.61-8.4-23.11,34.67Zm27.31-41,23.11-34.67-12.61-8.4L590.5,435.46Z"/><path class="cls-6" d="M361.49,287.35a45.45,45.45,0,0,0,75.64,50.42,45.45,45.45,0,1,1,75.63,50.42A90.9,90.9,0,1,1,361.49,287.35Z"/><path class="cls-7" d="M487.55,262.13a90.9,90.9,0,0,0-126.06,25.21,45.45,45.45,0,1,0,75.63,50.43,45.45,45.45,0,1,1,75.64,50.42A90.9,90.9,0,0,0,487.55,262.13Z"/></g></g></g></g></svg>