<svg id="Layer_1" data-name="Layer 1" xmlns="http://www.w3.org/2000/svg" width="156" height="60" viewBox="0 0 156 60"><defs><style>.cls-1{fill:none;}.cls-2{fill:#fff;}.cls-3{fill:#1a2a7e;}.cls-4{fill:#e6081f;}.cls-5{fill:#f8ca00;}</style></defs><title>svg-mobile-noborder-FBWC2019_Logo_Digital_Landscape_FC_Negative</title><rect class="cls-1" x="-9.1" y="-8.8" width="169.1" height="77.72"/><path class="cls-2" d="M10.93,27.05h.48c.05-.28.13-.73.22-1h1.49q.08.27.12.51c.07.4.3.53.73.53h.54a12.29,12.29,0,0,0-1.26-3.95.94.94,0,0,0-.84-.46H12a9.19,9.19,0,0,0-1.57,3.86A.5.5,0,0,0,10.93,27.05Zm1.46-3.31a8.72,8.72,0,0,1,.49,1.31h-1A7.27,7.27,0,0,1,12.39,23.74Z"/><path class="cls-2" d="M62,22.64h-.47A9.19,9.19,0,0,0,60,26.5a.5.5,0,0,0,.55.55H61c.06-.28.13-.73.22-1h1.49q.08.27.12.51c.08.4.3.53.73.53h.54a12.29,12.29,0,0,0-1.26-3.95A.93.93,0,0,0,62,22.64Zm-.53,2.41a7.27,7.27,0,0,1,.5-1.31,8.72,8.72,0,0,1,.49,1.31Z"/><path class="cls-2" d="M3.82,27.09h.47A1.48,1.48,0,0,0,6,25.68a1.14,1.14,0,0,0-.79-.95,1,1,0,0,0,.71-.9c0-.8-.71-1.26-1.59-1.26H3.75a5.21,5.21,0,0,0-1.33.23V26C2.42,26.72,3,27.09,3.82,27.09Zm.39-1H3.82c-.13,0-.21-.06-.21-.19v-.68h.55c.45,0,.6.11.6.46S4.61,26.06,4.21,26.06Zm-.6-2.48a1.5,1.5,0,0,1,.29,0h.26c.35,0,.53.11.53.38s-.16.43-.56.43H3.61Z"/><path class="cls-2" d="M70.34,27.11h.5c.68,0,.94-.28.94-.73V26h0a2.67,2.67,0,0,1-.91.14h-.19c-.54,0-.69-.18-.69-.75v-2c0-.5-.22-.75-.69-.75h-.5v2.78C68.77,26.55,69.24,27.11,70.34,27.11Z"/><path class="cls-2" d="M44.88,26.42a.59.59,0,0,0,.67.63h.52V23.66h.61a.67.67,0,0,0,.66-.59v-.42h-3a.63.63,0,0,0-.67.58v.43h1.24Z"/><path class="cls-2" d="M20.32,25.24c.65.13.89.22.89.49s-.17.43-.72.43a2,2,0,0,1-1.33-.45h0v.44c0,.63.51,1,1.46,1,1.15,0,1.81-.59,1.81-1.5,0-.69-.43-1.06-1.31-1.24s-.89-.28-.89-.47.2-.41.79-.41a1.82,1.82,0,0,1,1.26.42h0v-.47c0-.45-.4-.94-1.47-.94A1.63,1.63,0,0,0,19,24C19,24.69,19.38,25.05,20.32,25.24Z"/><path class="cls-2" d="M37.36,27.12h.49c.76,0,1-.25,1-.65V26a3.83,3.83,0,0,1-1,.12h-.32c-.6,0-.75-.16-.75-.63v-.16h1c.42,0,.66-.18.66-.5v-.44H36.78a6.44,6.44,0,0,1,0-.75h1.31a.64.64,0,0,0,.72-.7v-.29H36.51a.75.75,0,0,0-.83.73,8.68,8.68,0,0,0-.08,1.19v.74A1.59,1.59,0,0,0,37.36,27.12Z"/><path class="cls-2" d="M27.67,27.05h.47V25a13.48,13.48,0,0,0,1.34,1.81,1.07,1.07,0,0,0,.75.33c.39,0,.59-.16.72-.66a1.32,1.32,0,0,1-.74-.51,10.39,10.39,0,0,1-.93-1.25,17.75,17.75,0,0,1,1.71-2v0h-.87a.85.85,0,0,0-.76.29,12.44,12.44,0,0,0-1.22,1.57V23.34a.7.7,0,0,0-.77-.69H27v3.71A.66.66,0,0,0,27.67,27.05Z"/><path class="cls-2" d="M78.6,27.11h.5c.68,0,.94-.28.94-.73V26h0a2.78,2.78,0,0,1-.92.14h-.19c-.54,0-.69-.18-.69-.75v-2c0-.5-.22-.75-.69-.75H77v2.78C77,26.55,77.5,27.11,78.6,27.11Z"/><path class="cls-2" d="M54.74,24.73a1,1,0,0,0,.7-.9c0-.8-.71-1.26-1.59-1.26h-.52A5.22,5.22,0,0,0,52,22.8V26c0,.75.53,1.12,1.4,1.12h.47a1.48,1.48,0,0,0,1.66-1.41A1.15,1.15,0,0,0,54.74,24.73Zm-1.56-1.15a1.5,1.5,0,0,1,.29,0h.26c.35,0,.54.11.54.38s-.17.43-.57.43h-.52Zm.6,2.48H53.4c-.14,0-.22-.06-.22-.19v-.68h.55c.45,0,.6.11.6.46S54.18,26.06,53.78,26.06Z"/><path class="cls-2" d="M78.64,30.22h-1a13.78,13.78,0,0,0-2.8.4v7.69A1.46,1.46,0,0,0,76.22,40h1.16V36.63a4.09,4.09,0,0,0,1.22.14,3.35,3.35,0,0,0,3.51-3.44C82.11,31.33,80.59,30.22,78.64,30.22Zm-.28,4.42a3,3,0,0,1-1-.13V32.37a3,3,0,0,1,.51-.07h.52c.67,0,1.11.25,1.11,1.25C79.52,34.25,79.18,34.64,78.36,34.64Z"/><path class="cls-2" d="M14,30.36H12.7A24.85,24.85,0,0,1,11.23,36,19.53,19.53,0,0,1,10,32.18a1.68,1.68,0,0,0-1.82-1.49h-.9A29.08,29.08,0,0,1,5.75,36a19.44,19.44,0,0,1-1.21-4.32,1.43,1.43,0,0,0-1.49-1.28H1.55a23.51,23.51,0,0,0,3,9,1.36,1.36,0,0,0,1.19.72h.71a17.78,17.78,0,0,0,2-4.82,16.85,16.85,0,0,0,1.6,4.1,1.31,1.31,0,0,0,1.16.72h.7A29.57,29.57,0,0,0,15.12,32a2.18,2.18,0,0,0,.05-.43A1.11,1.11,0,0,0,14,30.36Z"/><path class="cls-2" d="M60.44,30.13a4.9,4.9,0,0,0-5.06,5.12,4.79,4.79,0,0,0,4.89,4.92c1.84,0,3.06-.94,3.06-2.18V37h-.07a3.94,3.94,0,0,1-2.59.89A2.58,2.58,0,0,1,58,35a2.49,2.49,0,0,1,2.64-2.58,3.61,3.61,0,0,1,2.69,1h.07v-1C63.37,31.07,62.28,30.13,60.44,30.13Z"/><path class="cls-2" d="M20.5,30.13c-3,0-4.81,2.05-4.81,5.15s2,4.89,4.52,4.89c3.06,0,4.8-2,4.8-5.16A4.56,4.56,0,0,0,20.5,30.13Zm0,7.89c-1.42,0-2.18-1-2.18-3,0-1.61.68-2.73,2-2.73,1.45,0,2.18.87,2.18,3C22.42,37,21.63,38,20.46,38Z"/><path class="cls-2" d="M71.62,30.36h-1.1v5.56C70.52,37.35,70,38,69,38c-1.21,0-1.77-.52-1.77-2.15V32.18c0-1.32-.65-1.82-1.48-1.82H64.63v5.57a4,4,0,0,0,4.12,4.24,4,4,0,0,0,4.36-4.32V32.12C73.11,30.86,72.59,30.36,71.62,30.36Z"/><path class="cls-2" d="M33,37c-.36-.76-.59-1.11-1-1.32a2.6,2.6,0,0,0,1.72-2.57c0-1.74-1.43-2.86-3.45-2.86H29.2a11.05,11.05,0,0,0-2.82.42v7.79A1.46,1.46,0,0,0,28,40h1v-3.6l.41,0c.61.08.87.24,1.24,1.06L31.31,39A1.69,1.69,0,0,0,33,40a3.22,3.22,0,0,0,1.4-.25V39.7a6.86,6.86,0,0,1-.66-1.17Zm-3-2.46a8.29,8.29,0,0,1-1,0V32.36a4.37,4.37,0,0,1,.52-.06H30a1,1,0,0,1,1.09,1.1A1.07,1.07,0,0,1,30,34.51Z"/><path class="cls-2" d="M46.37,30.22h-1a9,9,0,0,0-2.68.46v7.07c0,1.67,1.28,2.32,3,2.32h.92c2.7,0,4.56-2.15,4.56-5.07A4.6,4.6,0,0,0,46.37,30.22ZM46.26,38h-.42a.58.58,0,0,1-.55-.63V32.4a2.53,2.53,0,0,1,.41-.06h.55c1.28,0,2.32,1,2.32,2.87C48.57,36.85,47.76,38,46.26,38Z"/><path class="cls-2" d="M39.78,37.86h-.41c-1.17,0-1.5-.37-1.5-1.62V32c0-1.08-.47-1.62-1.5-1.62H35.28v6.06c0,2.42,1,3.64,3.41,3.64h1.09c1.49,0,2.06-.61,2.06-1.58v-.91h-.07A6,6,0,0,1,39.78,37.86Z"/><path class="cls-2" d="M44.87,13.2a2.5,2.5,0,0,0,.18-1,2.34,2.34,0,0,0-.19-.89,1.76,1.76,0,0,0-.72-.83,2.51,2.51,0,0,0-1.37-.35H41a.57.57,0,0,0-.41.12.62.62,0,0,0-.13.42v7.27h2.33a2.94,2.94,0,0,0,.91-.13,2.19,2.19,0,0,0,.72-.43,1.8,1.8,0,0,0,.47-.69,2.43,2.43,0,0,0,.18-1A2.37,2.37,0,0,0,45,15a1.58,1.58,0,0,0-.35-.61,1.48,1.48,0,0,0-.5-.34,3,3,0,0,0,.34-.22A1.53,1.53,0,0,0,44.87,13.2ZM42,11.44h.66a.88.88,0,0,1,.64.24.9.9,0,0,1,.25.71.94.94,0,0,1-.25.72.88.88,0,0,1-.64.24H42Zm1.32,4.91a.92.92,0,0,1-.65.24H42V14.65h.67a.92.92,0,0,1,.65.24,1,1,0,0,1,.25.73A1,1,0,0,1,43.32,16.35Z"/><path class="cls-2" d="M39.69,10.12h-1a.57.57,0,0,0-.41.12.62.62,0,0,0-.12.42v7.27h1.52Z"/><path class="cls-2" d="M50.27,17.93V12.07a2.62,2.62,0,0,0,0-.37,1.53,1.53,0,0,0-.13-.45,1.61,1.61,0,0,0-.24-.47,1.75,1.75,0,0,0-.4-.42,1.87,1.87,0,0,0-.6-.3,2.53,2.53,0,0,0-.82-.12,2.83,2.83,0,0,0-1,.18,1.81,1.81,0,0,0-.75.54,2.19,2.19,0,0,0-.37.73,2.43,2.43,0,0,0-.1.68v5.86h1.52V15.3h1.41v2.63Zm-2.93-4.09v-1.6a1.45,1.45,0,0,1,0-.32.72.72,0,0,1,.19-.38.62.62,0,0,1,.48-.19.65.65,0,0,1,.39.12.7.7,0,0,1,.24.32,1.25,1.25,0,0,1,.07.45v1.6Z"/><path class="cls-2" d="M37.55,11.63V10.12H34a.6.6,0,0,0-.42.12.62.62,0,0,0-.12.42v7.27H35V14.72h2.14V13.27H35V11.63Z"/><path class="cls-2" d="M56.82,16s0,0,0,0a19.16,19.16,0,0,0-1-2.95,20.43,20.43,0,0,0-.9-1.92,16.53,16.53,0,0,0-3.29-4.17A14.77,14.77,0,0,0,47.08,4a14.17,14.17,0,0,0-5.21-1,14.4,14.4,0,0,0-5.2,1,14.64,14.64,0,0,0-4.48,2.84,16.45,16.45,0,0,0-3.28,4.17,17.21,17.21,0,0,0-1,2.11,19.18,19.18,0,0,0-1,2.76s0,0,0,0a.15.15,0,0,0,0,.13.2.2,0,0,0,.09.09h.05a.17.17,0,0,0,.1,0,.13.13,0,0,0,0-.06l0,0h0a14.75,14.75,0,0,1,.63-1.5,16.15,16.15,0,0,1,5.23-5.71,15.76,15.76,0,0,1,4.2-1.95,15.57,15.57,0,0,1,4.47-.67H42a15.45,15.45,0,0,1,4.46.67,15.76,15.76,0,0,1,4.2,2,16.08,16.08,0,0,1,5.24,5.71A14.12,14.12,0,0,1,56.49,16s0,0,0,0l0,0a0,0,0,0,0,0,0v0l0,0a.15.15,0,0,0,.14,0,.14.14,0,0,0,.09-.08A.19.19,0,0,0,56.82,16ZM51.17,8a15.42,15.42,0,0,0-4.41-2.25A15.93,15.93,0,0,0,41.88,5,16.25,16.25,0,0,0,37,5.77,15.75,15.75,0,0,0,32.59,8a15.17,15.17,0,0,0-3.23,3.22,16.87,16.87,0,0,1,3.29-3.83A14.08,14.08,0,0,1,41.8,3.9h.14a13.8,13.8,0,0,1,4.85.91,14.68,14.68,0,0,1,4.32,2.6,16.79,16.79,0,0,1,3.28,3.81A15.26,15.26,0,0,0,51.17,8Z"/><path class="cls-2" d="M62.68,48.25c-.17.25-.68,1-.48.91s.52-.21.68-.25.25.45.14,1.12c-.08.44-.86,5.81-.76,5.84a7.31,7.31,0,0,0,2.11-1.95c0-.29.95-4.09,1.08-4.66a5,5,0,0,1,.42-.95l0-.52A2.12,2.12,0,0,0,62.68,48.25Z"/><path class="cls-2" d="M29.68,55.83c.65-2.91-.94-3-.94-3l.2-1.11a6.1,6.1,0,0,1,3.21-1.34c.36.3.48,3.25-1.24,6C30.76,56.67,29.6,56.15,29.68,55.83Z"/><path class="cls-2" d="M32.1,49.34a4.21,4.21,0,0,0-2.34.82A2.08,2.08,0,0,1,31.39,48h0S32,48.2,32.1,49.34Z"/><path class="cls-2" d="M23.89,46.56a17.25,17.25,0,0,0-2.26,4.11,23.24,23.24,0,0,0-.93,5.75l1.81-.15s3.44-6.11,3.71,0c.23,0,1.15-.14,1.15-.14s.51-3.57-.06-5c-.11-.28-.77-.56-.77-.56-1.09.16-2.38,1.82-2.77,1.64-1.05-.48,1.82-5.81,1.82-5.81Z"/><path class="cls-2" d="M71.32,48.75A4.07,4.07,0,0,0,70.88,50a1.88,1.88,0,0,1-1.93.28c-.19-.26.16-.65.41-.87a3.84,3.84,0,0,1,3-1,3.86,3.86,0,0,0-2-2.34c-2.34.86-3.83,3.79-4.08,4.37s0,.6.15.75a8.6,8.6,0,0,0,1.53,1,4.59,4.59,0,0,0,2.57-.94c-.63,2.41-1.25,4.93-1.53,6-.17.64,1.64-1,1.91-1.43s1.9-5.79,1.9-5.79S72.6,49.23,71.32,48.75Z"/><path class="cls-2" d="M59.1,47.59c-.78-.34-1.56-.37-1.5-.19a1.61,1.61,0,0,0,.17.45c.12.24-.07.48-.28.81l-2,3.13a1.58,1.58,0,0,0-.26,1.36,9.52,9.52,0,0,0,.73,1.75,1.26,1.26,0,0,0,1.65.47c.68-.36,3.52-2.09,3.63-3.32S61.24,48.51,59.1,47.59Zm-.2,5c-.3.3-.93,1-1,1a1.6,1.6,0,0,1-1-.81c-.16-.3,1.86-2.94,1.86-2.94s1,1.07,1,1.44A3.08,3.08,0,0,1,58.9,52.61Z"/><path class="cls-2" d="M49.59,46.24s-1.46,2.21-1.38,3.45c.41-.07,3-.36,3.83,0,2,.87-3.49,4.56-3.49,4.56s.52,2.28,2.37,2.28a42.91,42.91,0,0,0,3.34-3c.21-.22-2.86.84-2.56.57.62-.56,4.72-4.41,3-6.26A7,7,0,0,0,49.59,46.24Z"/><path class="cls-2" d="M44.52,51.89s-1.34-1.74-2.27-1.45c-.75.24-1.44.52-1.44.52a11,11,0,0,0-1.54,3.64,5.56,5.56,0,0,0,0,.81s.36.36.55.51.63,0,2.19-1c.1-.08.22-.14.29,0a4.27,4.27,0,0,0,1,1.15,2.06,2.06,0,0,0,1.07-.35A8,8,0,0,1,44.52,51.89Zm-3,1.46c-.51.34-.66.34-.67.24a2.37,2.37,0,0,1,.47-1.3c.26-.35.38.06.51.31C42.09,53.1,42,53.08,41.53,53.35Z"/><path class="cls-2" d="M37.18,51.11c-.54-.41-1.16,0-1.63.44s-.75.21-1.15-.17c-.24-.24-.75.79-1.09,1.83a14.26,14.26,0,0,0-.45,1.87,11.09,11.09,0,0,0,.67.94,7.58,7.58,0,0,0,2.12-2.13c.83-1.12.56,2.29.56,2.29a2.25,2.25,0,0,0,.89-.1c.73-.3,1.67-2.46,1.68-3.1A4,4,0,0,0,37.18,51.11Z"/><path class="cls-2" d="M14.05,47.43a6.66,6.66,0,0,1,2.88-1.71,10.22,10.22,0,0,1,4,3.44,9.93,9.93,0,0,0-5.1,3.43C15.5,53,15,54,15.35,54.5c.23.32,1.66,1.06,4-.15a9.11,9.11,0,0,1-1.07,1.3C17.33,56,14.75,57.19,14,57a19.66,19.66,0,0,1-2.6-1.23c-.38-.23-.74-.22-.54-1.25.56-2.84,2.82-6.31,4.5-7.21A3.33,3.33,0,0,0,14.05,47.43Z"/><path class="cls-2" d="M149.35,30.06a29,29,0,1,1-29-29A29,29,0,0,1,149.35,30.06Z"/><path class="cls-3" d="M110,44.42a5.25,5.25,0,0,0,1.8-8.11c-1.93-2.34-8.69-4.23-12.12-7a9.17,9.17,0,0,1-4-8.08c.26-4.48,3.54-8.36,8.72-8.1a7.21,7.21,0,0,1,4.9,1.93,12.47,12.47,0,0,0-2.68-6.33A6.61,6.61,0,0,0,105,7.42a27.39,27.39,0,0,0-10.89,15c-1,3.49-1.08,7.28.79,10.41a11,11,0,0,0,4.88,4c.34.2.51.43.45.76-.09.52-.6.77-1.22.78a8.67,8.67,0,0,1-3.23-.84,5.47,5.47,0,0,1-2.09-1.42l.09.37a11.52,11.52,0,0,0,3.19,5.13C100.54,44.83,106.29,46.05,110,44.42Z"/><path class="cls-4" d="M107.56,53.3a1.42,1.42,0,0,0,1.29-1.42,1.26,1.26,0,0,0-.31-.8l0,0a1.13,1.13,0,0,1-1.49.3,1,1,0,0,1-.37-.43.92.92,0,0,1-.07-.52,1.05,1.05,0,0,1,1-.92,1.13,1.13,0,0,1,.28,0,5.73,5.73,0,0,0,2.62-.22,2.58,2.58,0,0,0,1.27-2c-1.68.86-5.28,1-7.8.4a14.44,14.44,0,0,1-6.77-3.12,27.36,27.36,0,0,0,5.23,6.12,28.74,28.74,0,0,0,2.6,1.94A4.2,4.2,0,0,0,107.56,53.3Z"/><path class="cls-3" d="M130.67,44.42a5.25,5.25,0,0,1-1.8-8.11c1.93-2.34,8.69-4.23,12.12-7a9.14,9.14,0,0,0,4-8.08c-.26-4.48-3.54-8.36-8.71-8.1a7.21,7.21,0,0,0-4.9,1.93,12.47,12.47,0,0,1,2.68-6.33,6.78,6.78,0,0,1,1.67-1.32,27.46,27.46,0,0,1,10.9,15c1,3.49,1.07,7.28-.79,10.41a11.05,11.05,0,0,1-4.88,4c-.35.2-.51.43-.46.76.09.52.6.77,1.22.78a8.72,8.72,0,0,0,3.24-.84A5.28,5.28,0,0,0,147,36.11c0,.12,0,.25-.08.37a11.52,11.52,0,0,1-3.19,5.13C140.17,44.83,134.41,46.05,130.67,44.42Z"/><path class="cls-5" d="M130.58,55.44a38.45,38.45,0,0,1-5-7.3,29.33,29.33,0,0,1-2.51-6.46,26.88,26.88,0,0,0-.92-3.19,1.8,1.8,0,0,0-.53-.61,2.36,2.36,0,0,0-1.28-.38h0a2.31,2.31,0,0,0-1.27.38,1.61,1.61,0,0,0-.53.61,23.47,23.47,0,0,0-.92,3.19,29,29,0,0,1-2.52,6.46,37.92,37.92,0,0,1-5,7.3,27.37,27.37,0,0,0,10.23,2h0A27.37,27.37,0,0,0,130.58,55.44Z"/><path class="cls-5" d="M120.35,2.7h0a27.28,27.28,0,0,0-13.64,3.64c4.88,2.82,5.56,8.48,6.44,13.5.42,2.37,1.23,5.62,3,7.5a5.16,5.16,0,0,0,1.58,1.17,5.24,5.24,0,0,0,2.56.66h0a5.23,5.23,0,0,0,2.55-.66,5.34,5.34,0,0,0,1.59-1.17c1.81-1.88,2.61-5.13,3-7.5.89-5,1.57-10.68,6.44-13.5A27.25,27.25,0,0,0,120.35,2.7Z"/><path class="cls-4" d="M133.15,53.3a1.43,1.43,0,0,1-1.3-1.42,1.32,1.32,0,0,1,.31-.8l0,0a1.13,1.13,0,0,0,1.49.3,1,1,0,0,0,.37-.43.92.92,0,0,0,.08-.52,1.06,1.06,0,0,0-1-.92,1.25,1.25,0,0,0-.29,0,5.74,5.74,0,0,1-2.62-.22,2.56,2.56,0,0,1-1.26-2c1.67.86,5.27,1,7.79.4a14.48,14.48,0,0,0,6.78-3.12,27.66,27.66,0,0,1-5.24,6.12,28.62,28.62,0,0,1-2.59,1.94A4.22,4.22,0,0,1,133.15,53.3Z"/><path class="cls-4" d="M141.14,20.49a4.57,4.57,0,0,0-2-2.49,4.84,4.84,0,0,0-2.42-.62,4.71,4.71,0,0,0-4.17,2.79c-.1.26-.18.53-.26.78s-.15.56-.23.81A22.43,22.43,0,0,1,130.47,26c-1.16,2.26-3.5,5.5-6.93,4.85a1.7,1.7,0,0,1-.62-.27h0a3.05,3.05,0,0,1,.52,1.71,3.09,3.09,0,0,1-3.07,3.08h0a3.09,3.09,0,0,1-3.07-3.08,3.13,3.13,0,0,1,.51-1.71h0a1.7,1.7,0,0,1-.62.27c-3.43.65-5.76-2.59-6.92-4.85a22.46,22.46,0,0,1-1.58-4.21l-.23-.81c-.08-.25-.16-.52-.26-.78A4.69,4.69,0,0,0,104,17.38a4.78,4.78,0,0,0-2.41.62,4.54,4.54,0,0,0-2,2.49,5.67,5.67,0,0,0-.3,1.73,5.81,5.81,0,0,0,1.81,4.2c1.75,1.75,4.38,2.75,7,3.82a24.57,24.57,0,0,1,6.41,3.39,6.31,6.31,0,0,1,2.47,4,3.8,3.8,0,0,1,3.43-2.22h0a3.78,3.78,0,0,1,3.42,2.22,6.4,6.4,0,0,1,2.47-4,24.47,24.47,0,0,1,6.42-3.39c2.57-1.07,5.19-2.07,6.95-3.82a5.85,5.85,0,0,0,1.81-4.2A5.68,5.68,0,0,0,141.14,20.49Z"/></svg>