<svg xmlns="http://www.w3.org/2000/svg" xmlns:xlink="http://www.w3.org/1999/xlink" viewBox="0 0 800 600"><defs><style>.cls-1{fill:none;}.cls-2{fill:#e2e2e2;}.cls-3{clip-path:url(#clip-path);}.cls-4{fill:#fff;}.cls-5{fill:#47804d;}</style><clipPath id="clip-path"><circle id="Mask" class="cls-1" cx="437.13" cy="337.77" r="217.15"/></clipPath></defs><title>FBWC2019_Flags_Digital_Africa_Nigeria_NGR_01</title><g id="Holding_Shape" data-name="Holding Shape"><circle id="Circle" class="cls-2" cx="437.13" cy="337.77" r="239.29"/><path id="Triangle" class="cls-2" d="M69.78,338.22c39.57-.35,83.08,37,83.46,62.67-.1-4.46-1.12-127.45-1.12-126.94C152.28,291.73,110.53,338.44,69.78,338.22Z"/><path id="Triangle-2" data-name="Triangle" class="cls-2" d="M220.64,135.5c-9.08,15.84-70.25,35.43-106.21,14,35.27,20.38,54.46,76.32,41.34,99.22C155.84,248.42,220.9,135,220.64,135.5Z"/><path id="Triangle-3" data-name="Triangle" class="cls-2" d="M257.74,17.83c18.93,34.77,6.56,90.85-15.89,103.35,3.86-2.2,111.68-61.3,111.23-61.06C337.5,68.68,276.73,53.91,257.74,17.83Z"/><rect class="cls-1" width="800" height="600"/></g><g id="Flag"><g id="Flag_NGR" data-name="Flag NGR"><g class="cls-3"><g id="Flag_Nigeria" data-name="Flag Nigeria"><rect class="cls-4" x="353.79" y="120.62" width="166.67" height="434.29"/><rect class="cls-5" x="187.13" y="120.62" width="166.67" height="434.29"/><rect class="cls-5" x="520.46" y="120.62" width="166.67" height="434.29"/></g></g></g></g></svg>