<svg xmlns="http://www.w3.org/2000/svg" xmlns:xlink="http://www.w3.org/1999/xlink" viewBox="0 0 800 600"><defs><style>.cls-1,.cls-10,.cls-15,.cls-16,.cls-17,.cls-18,.cls-19,.cls-20,.cls-21,.cls-22,.cls-23,.cls-24,.cls-25,.cls-26,.cls-27,.cls-28,.cls-29,.cls-30,.cls-35,.cls-39,.cls-40,.cls-44,.cls-45,.cls-46,.cls-47,.cls-48,.cls-49,.cls-50,.cls-51,.cls-52,.cls-53,.cls-54,.cls-55,.cls-56,.cls-57{fill:none;}.cls-2{fill:#e2e2e2;}.cls-3{clip-path:url(#clip-path);}.cls-12,.cls-36,.cls-37,.cls-38,.cls-4,.cls-6,.cls-62,.cls-72{fill:#911f22;}.cls-5{fill:#edc12f;}.cls-10,.cls-11,.cls-12,.cls-13,.cls-14,.cls-15,.cls-16,.cls-17,.cls-18,.cls-19,.cls-20,.cls-21,.cls-22,.cls-23,.cls-24,.cls-25,.cls-26,.cls-27,.cls-28,.cls-29,.cls-30,.cls-31,.cls-32,.cls-33,.cls-34,.cls-35,.cls-36,.cls-37,.cls-38,.cls-39,.cls-40,.cls-41,.cls-42,.cls-43,.cls-44,.cls-45,.cls-46,.cls-47,.cls-48,.cls-49,.cls-50,.cls-51,.cls-52,.cls-53,.cls-54,.cls-55,.cls-56,.cls-57,.cls-58,.cls-59,.cls-6,.cls-60,.cls-61,.cls-62,.cls-63,.cls-66,.cls-68,.cls-69,.cls-7,.cls-70,.cls-71,.cls-72,.cls-73,.cls-74,.cls-75,.cls-9{stroke:#030403;}.cls-11,.cls-33,.cls-37,.cls-6,.cls-74{stroke-linejoin:round;}.cls-10,.cls-11,.cls-12,.cls-13,.cls-14,.cls-39,.cls-42,.cls-6,.cls-64,.cls-7,.cls-70{stroke-width:0.23px;}.cls-11,.cls-33,.cls-34,.cls-63,.cls-64,.cls-66,.cls-7,.cls-74,.cls-75,.cls-8,.cls-9{fill:#c0af29;}.cls-9{stroke-width:0.26px;}.cls-13,.cls-58,.cls-61,.cls-65{fill:#4f8c6f;}.cls-14,.cls-41,.cls-43{fill:#fff;}.cls-15{stroke-width:0.01px;}.cls-16{stroke-width:0.02px;}.cls-17{stroke-width:0.03px;}.cls-18{stroke-width:0.03px;}.cls-19,.cls-71{stroke-width:0.04px;}.cls-20{stroke-width:0.05px;}.cls-21{stroke-width:0.06px;}.cls-22{stroke-width:0.07px;}.cls-23{stroke-width:0.08px;}.cls-24{stroke-width:0.09px;}.cls-25{stroke-width:0.1px;}.cls-26{stroke-width:0.1px;}.cls-27{stroke-width:0.11px;}.cls-28{stroke-width:0.12px;}.cls-29{stroke-width:0.13px;}.cls-30{stroke-width:0.16px;}.cls-31,.cls-42,.cls-73{fill:#3c5ca3;}.cls-31,.cls-32,.cls-33,.cls-34,.cls-35,.cls-36,.cls-37,.cls-43,.cls-58,.cls-68,.cls-69{stroke-width:0.34px;}.cls-32,.cls-59{fill:#cac9ca;}.cls-38{stroke-width:0.23px;}.cls-39{stroke-linecap:round;}.cls-40,.cls-41{stroke-width:0.18px;}.cls-44{stroke-width:0.2px;}.cls-45{stroke-width:0.24px;}.cls-46{stroke-width:0.29px;}.cls-47{stroke-width:0.32px;}.cls-48{stroke-width:0.36px;}.cls-49,.cls-66{stroke-width:0.4px;}.cls-50{stroke-width:0.44px;}.cls-51{stroke-width:0.49px;}.cls-52{stroke-width:0.52px;}.cls-53{stroke-width:0.55px;}.cls-54{stroke-width:0.59px;}.cls-55{stroke-width:0.63px;}.cls-56{stroke-width:0.67px;}.cls-57{stroke-width:0.79px;}.cls-59,.cls-60,.cls-61,.cls-62,.cls-63{stroke-width:0.45px;}.cls-60{fill:#f2d493;}.cls-64{stroke:#c0af29;}.cls-67{fill:#3d519a;}.cls-68{fill:#be4648;}.cls-69{fill:#d172a5;}.cls-70,.cls-71{fill:#030403;}.cls-72,.cls-73{stroke-width:0.53px;}.cls-74,.cls-75{stroke-width:0.3px;}</style><clipPath id="clip-path"><circle id="Mask" class="cls-1" cx="437.13" cy="337.77" r="217.15"/></clipPath></defs><title>FBWC2019_Flags_Digital_Europe_Spain_ESP_01</title><g id="Holding_Shape" data-name="Holding Shape"><circle id="Circle" class="cls-2" cx="437.13" cy="337.77" r="239.29"/><path id="Triangle" class="cls-2" d="M69.78,338.22c39.57-.35,83.08,37,83.46,62.67-.1-4.46-1.12-127.45-1.12-126.94C152.28,291.73,110.53,338.44,69.78,338.22Z"/><path id="Triangle-2" data-name="Triangle" class="cls-2" d="M220.64,135.5c-9.08,15.84-70.25,35.43-106.21,14,35.27,20.38,54.46,76.32,41.34,99.22C155.84,248.42,220.9,135,220.64,135.5Z"/><path id="Triangle-3" data-name="Triangle" class="cls-2" d="M257.74,17.83c18.93,34.77,6.56,90.85-15.89,103.35,3.86-2.2,111.68-61.3,111.23-61.06C337.5,68.68,276.73,53.91,257.74,17.83Z"/><rect class="cls-1" width="800" height="600"/></g><g id="Flag"><g id="Flag_ESP" data-name="Flag ESP"><g class="cls-3"><g id="Flag_Spain" data-name="Flag Spain"><rect class="cls-4" x="127.93" y="120.62" width="651.44" height="434.3"/><rect class="cls-5" x="127.93" y="229.2" width="651.44" height="217.15"/><g id="coa"><g id="supporters"><g id="crown_left" data-name="crown left"><path class="cls-6" d="M273.85,313.66a1.75,1.75,0,0,1-.69-.14,11.11,11.11,0,0,1-1-.83l-.59-.43-.54-.74a2.53,2.53,0,0,1-.35-1.81,2.29,2.29,0,0,1,1.24-1.31,12.68,12.68,0,0,1,1.37-.51,7.81,7.81,0,0,1,1-.36l1.13-.28a4.26,4.26,0,0,1,.49-.24,7,7,0,0,1,.79-.14,6.28,6.28,0,0,1,1-.22c.45,0,1.18.09,1.42.09l1.43,0c.34,0,1.56-.1,1.91-.1a8,8,0,0,1,1,0,6.39,6.39,0,0,1,1.28.38c.2.09,1.37.51,1.81.65a19.82,19.82,0,0,1,2,.55,2.91,2.91,0,0,1,1,1,3.17,3.17,0,0,1,.39.91,1.61,1.61,0,0,1,0,1,5.33,5.33,0,0,1-.44.7l-.54.89-.69.55s-.49.47-.88.42a56.16,56.16,0,0,0-6.92-.75,47.64,47.64,0,0,0-6.64.75Z"/><ellipse class="cls-7" cx="280.51" cy="307.96" rx="1.2" ry="2.17"/><ellipse class="cls-7" cx="280.53" cy="307.96" rx="0.56" ry="2"/><ellipse class="cls-8" cx="280.53" cy="305.67" rx="0.81" ry="0.76"/><path class="cls-9" d="M281.64,305.41v.5h-2.2v-.5h.82v-1.15h-.54v-.5h.54v-.49h.52v.49h.54v.5h-.54v1.15h.86"/><path class="cls-10" d="M280.75,304.94a.75.75,0,0,1,.56.93.8.8,0,0,1-1,.52.75.75,0,0,1-.56-.93.78.78,0,0,1,.56-.52"/><path class="cls-7" d="M280.53,313.52h-4.18l-.1-1-.2-1.06-.2-1.33c-1.15-1.52-2.21-2.52-2.57-2.3a1,1,0,0,1,.41-.62c1-.61,3.14.85,4.73,3.25.14.21.28.43.4.65h3.45c.12-.22.26-.44.39-.65,1.59-2.4,3.7-3.86,4.72-3.25a1,1,0,0,1,.41.62c-.36-.21-1.41.78-2.57,2.3l-.2,1.33-.2,1.06-.09,1Z"/><path class="cls-10" d="M273.47,307.75c.79-.46,2.62,1,4.1,3.25m10-3.25c-.79-.46-2.62,1-4.11,3.25"/><g id="crown_pt1" data-name="crown pt1"><path class="cls-7" d="M274.36,315.4a3.94,3.94,0,0,0-.5-.93,27.54,27.54,0,0,1,13.34,0l-.45.79a5.39,5.39,0,0,0-.33.7,24.66,24.66,0,0,0-11.87,0,3.58,3.58,0,0,0-.2-.59h0"/><path class="cls-7" d="M280.52,317.56a27.25,27.25,0,0,0,5.3-.55c.57-.17.91-.42.85-.73a.55.55,0,0,0-.32-.33,25,25,0,0,0-11.67,0,.55.55,0,0,0-.32.33c-.06.31.28.56.85.73A27.37,27.37,0,0,0,280.52,317.56Z"/><path class="cls-7" d="M287.3,313.52l-.51-.46a1.9,1.9,0,0,1-1.11.21c-.61-.1-.81-.85-.81-.85a2.19,2.19,0,0,1-1.25.54,1.47,1.47,0,0,1-.93-.54,2.08,2.08,0,0,1-1.15.4,2,2,0,0,1-1.06-.72s-.54.7-1.08.75a1.37,1.37,0,0,1-1-.47,1.3,1.3,0,0,1-.93.63,1.65,1.65,0,0,1-1.28-.54,2.19,2.19,0,0,1-.86.8,1.56,1.56,0,0,1-1.08-.24s-.1.24-.17.38a.37.37,0,0,1-.27.16l.16.41a27.59,27.59,0,0,1,13.15,0l.17-.47Z"/><path class="cls-7" d="M280.54,311.27l.24,0a.91.91,0,0,0,0,.33.93.93,0,0,0,1,.91,1,1,0,0,0,.92-.63s.1-.33.13-.33,0,.36,0,.36a1,1,0,0,0,1.92-.15v-.1l.3-.31.16.38a.91.91,0,0,0,.84,1.28.93.93,0,0,0,.76-.39l.2-.25v.31c0,.3.12.57.43.62a1.32,1.32,0,0,0,.79-.33,5.12,5.12,0,0,0,.69-.65l0,.36a3.42,3.42,0,0,1-.84,1,1.34,1.34,0,0,1-.83.21.78.78,0,0,1-.58-.53,2.34,2.34,0,0,0-2.94-.12,1.43,1.43,0,0,1-1.09-.5,1.37,1.37,0,0,1-.95.37,1.4,1.4,0,0,1-1.15-.6,1.42,1.42,0,0,1-1.17.6,1.37,1.37,0,0,1-.94-.37,1.43,1.43,0,0,1-1.09.5,1.33,1.33,0,0,1-1-.43,1.35,1.35,0,0,1-1.24.74,1.31,1.31,0,0,1-.68-.19.81.81,0,0,1-.59.53,1.31,1.31,0,0,1-.82-.21,3.73,3.73,0,0,1-.89-1l.06-.36a6.45,6.45,0,0,0,.71.65,1.3,1.3,0,0,0,.79.33.56.56,0,0,0,.42-.62v-.31l.19.25a1,1,0,0,0,.77.39.9.9,0,0,0,.92-.88.78.78,0,0,0-.09-.4l.17-.38.3.31a.31.31,0,0,0,0,.1,1,1,0,0,0,1.93.15s0-.36,0-.36.12.34.13.33a1,1,0,0,0,.93.63.93.93,0,0,0,1-.91.91.91,0,0,0,0-.33l.25,0Z"/><path class="cls-11" d="M280.52,313.65a24.9,24.9,0,0,0-6.66.82.27.27,0,0,1-.29-.15.24.24,0,0,1,.16-.28,27.59,27.59,0,0,1,13.59,0,.25.25,0,0,1,.16.28.28.28,0,0,1-.29.15A25,25,0,0,0,280.52,313.65Z"/><path class="cls-7" d="M271.62,312.58s-.33-.42-.56-.63a2,2,0,0,0-.59-.29c0-.07.24-.24.5-.24a.48.48,0,0,1,.39.17l0-.17a.44.44,0,0,1,.3.28,1.32,1.32,0,0,1,.05.62.83.83,0,0,1-.13.26Z"/><path class="cls-7" d="M273.27,311.9l-.1.58-1.22.13-.18-.11,0-.2.92-.75.54.35"/><path class="cls-7" d="M271.64,312.36a.36.36,0,0,1,.46.06c.16.13.21.33.11.43a.34.34,0,0,1-.46-.05C271.59,312.67,271.54,312.47,271.64,312.36Z"/><path class="cls-7" d="M273.87,312.48a.29.29,0,0,1,.12-.37.33.33,0,0,1,.32.24c.05.16,0,.33-.12.36S273.94,312.64,273.87,312.48Z"/><path class="cls-7" d="M274.44,311.75l.44.41,1.06-.57.08-.18-.15-.15-1.21-.1-.22.59"/><path class="cls-7" d="M275.66,309.77l-.58.55.75,1,.2.08.15-.16.26-1.19-.78-.27"/><path class="cls-7" d="M277.64,311.1l-.22.55-1.22-.11-.15-.14.08-.19,1.06-.56.45.45"/><path class="cls-7" d="M276,311a.41.41,0,0,1,.42.41A.43.43,0,1,1,276,311Z"/><path class="cls-7" d="M278.09,311.67a.28.28,0,0,1,.18-.34c.12,0,.24.11.26.29s-.06.32-.18.33A.28.28,0,0,1,278.09,311.67Z"/><path class="cls-7" d="M278.88,311.05l.35.5,1.16-.37.12-.15-.13-.18-1.15-.34-.35.54"/><path class="cls-7" d="M280.51,309.24l-.75.45.56,1.2.19.12.19-.12.56-1.2-.75-.45"/><path class="cls-7" d="M282.15,311.05l-.34.5-1.16-.37-.12-.15.12-.18,1.16-.34.34.54"/><path class="cls-7" d="M280.52,310.62a.41.41,0,1,1-.43.41A.41.41,0,0,1,280.52,310.62Z"/><path class="cls-7" d="M283,311.67c0-.17-.07-.32-.19-.34s-.25.11-.26.29.06.32.18.33S283,311.83,283,311.67Z"/><path class="cls-7" d="M283.4,311.1l.23.55,1.21-.11.16-.14-.09-.19-1.06-.56-.45.45"/><path class="cls-7" d="M285.38,309.77l.59.55-.75,1-.2.08-.15-.16-.26-1.19.77-.27"/><path class="cls-7" d="M286.61,311.75l-.44.41-1.06-.57-.09-.18.16-.15,1.22-.1.21.59"/><path class="cls-7" d="M285,311a.41.41,0,0,1,.42.41A.43.43,0,1,1,285,311Z"/><path class="cls-7" d="M287.18,312.48a.3.3,0,0,0-.11-.37.33.33,0,0,0-.32.24c-.06.16,0,.33.12.36S287.12,312.64,287.18,312.48Z"/><path class="cls-7" d="M289.26,312.58s.33-.42.57-.63a2,2,0,0,1,.58-.29c0-.07-.24-.24-.5-.24a.48.48,0,0,0-.39.17l0-.17a.46.46,0,0,0-.31.28,1.34,1.34,0,0,0,0,.62.72.72,0,0,0,.12.26Z"/><path class="cls-7" d="M287.62,311.9l.09.58,1.22.13.18-.11,0-.2-.92-.75-.53.35"/><path class="cls-7" d="M289.27,312.36a.36.36,0,0,0-.46.06c-.16.13-.21.33-.11.43a.35.35,0,0,0,.47-.05A.32.32,0,0,0,289.27,312.36Z"/></g><g id="crown_pt2" data-name="crown pt2"><path class="cls-12" d="M273.9,315.45l.27-.44.56.12-.33.48-.5-.16"/><path class="cls-13" d="M276.33,315l-.6.1a.31.31,0,0,1-.33-.23.28.28,0,0,1,.24-.3l.61-.09.61-.09a.26.26,0,1,1,.09.52l-.62.09"/><path class="cls-14" d="M278.37,314.22a.37.37,0,0,1,.38.36.39.39,0,0,1-.77,0A.37.37,0,0,1,278.37,314.22Z"/><path class="cls-12" d="M280.55,314.74h-.84a.29.29,0,0,1-.29-.27.28.28,0,0,1,.28-.27h1.71a.27.27,0,0,1,.28.27.28.28,0,0,1-.28.27h-.86"/><path class="cls-14" d="M282.68,314.22a.37.37,0,0,1,.38.36.38.38,0,0,1-.76,0A.37.37,0,0,1,282.68,314.22Z"/><path class="cls-13" d="M284.71,315l.6.1a.29.29,0,0,0,.33-.23.26.26,0,0,0-.23-.3l-.61-.09-.62-.09a.28.28,0,0,0-.32.21.27.27,0,0,0,.24.31l.61.09"/><path class="cls-12" d="M287.09,315.47l-.21-.46-.58.06.27.51.52-.11"/><path class="cls-6" d="M280.51,317.06a23.07,23.07,0,0,1-5.47-.56,22.83,22.83,0,0,1,5.47-.61,22.59,22.59,0,0,1,5.5.61A23.34,23.34,0,0,1,280.51,317.06Z"/><path class="cls-15" d="M281.5,317v-1m-.5,1V316m-.38,1.09V316"/><path class="cls-16" d="M280.32,317.05V316"/><path class="cls-17" d="M280,317.05V316"/><path class="cls-18" d="M279.74,317.05V316"/><path class="cls-18" d="M279.45,317.05V316"/><path class="cls-19" d="M279.21,317.05V316"/><path class="cls-20" d="M278.73,317v-1m.24,1V316"/><path class="cls-21" d="M278.29,317V316m.22,1v-1"/><path class="cls-22" d="M277.7,316.9v-.81m.2.82v-.85m.2.88v-.88"/><path class="cls-23" d="M277.5,316.89v-.78"/><path class="cls-24" d="M277.31,316.85v-.73"/><path class="cls-25" d="M277.1,316.83v-.68"/><path class="cls-26" d="M276.67,316.77v-.54m.23.57v-.61"/><path class="cls-26" d="M276.45,316.72v-.47"/><path class="cls-27" d="M276.25,316.69v-.4"/><path class="cls-28" d="M276,316.64v-.32"/><path class="cls-29" d="M275.82,316.61v-.23"/><path class="cls-30" d="M275.59,316.56v-.11"/></g></g><g id="pillar_left" data-name="pillar left"><path class="cls-31" d="M294.08,407.85a7.42,7.42,0,0,1-3.42-.76,7.55,7.55,0,0,0-3.35-.71,7.73,7.73,0,0,0-3.39.72,7.54,7.54,0,0,1-3.41.75,7.31,7.31,0,0,1-3.41-.78,7.58,7.58,0,0,0-3.29-.69,7.4,7.4,0,0,0-3.36.7,7.46,7.46,0,0,1-3.43.77v2.09a7.59,7.59,0,0,0,3.43-.76,7.4,7.4,0,0,1,3.36-.72,7.61,7.61,0,0,1,3.29.7,7.43,7.43,0,0,0,3.41.78,7.54,7.54,0,0,0,3.41-.75,7.59,7.59,0,0,1,3.39-.73,7.41,7.41,0,0,1,3.35.73,7.46,7.46,0,0,0,3.4.75l0-2.09Z"/><path class="cls-32" d="M294.08,409.94a7.55,7.55,0,0,1-3.42-.75,7.41,7.41,0,0,0-3.35-.73,7.59,7.59,0,0,0-3.39.73,7.54,7.54,0,0,1-3.41.75,7.43,7.43,0,0,1-3.41-.78,7.58,7.58,0,0,0-3.29-.7,7.4,7.4,0,0,0-3.36.72,7.59,7.59,0,0,1-3.43.76V412a7.59,7.59,0,0,0,3.43-.76,7.4,7.4,0,0,1,3.36-.71,7.76,7.76,0,0,1,3.29.69,7.31,7.31,0,0,0,3.41.78,7.68,7.68,0,0,0,3.41-.74,7.59,7.59,0,0,1,3.39-.73,7.41,7.41,0,0,1,3.35.73,7.47,7.47,0,0,0,3.4.74l0-2.09"/><path class="cls-31" d="M294.08,412a7.55,7.55,0,0,1-3.42-.74,7.41,7.41,0,0,0-3.35-.73,7.59,7.59,0,0,0-3.39.73,7.68,7.68,0,0,1-3.41.74,7.31,7.31,0,0,1-3.41-.78,7.73,7.73,0,0,0-3.29-.69,7.4,7.4,0,0,0-3.36.71A7.59,7.59,0,0,1,267,412v2.09a7.46,7.46,0,0,0,3.43-.77,8.36,8.36,0,0,1,6.65,0,7.31,7.31,0,0,0,3.41.77,7.54,7.54,0,0,0,3.41-.74,8.3,8.3,0,0,1,6.74,0,7.21,7.21,0,0,0,3.4.75l0-2.09"/><path class="cls-32" d="M294.06,416.22a7.46,7.46,0,0,1-3.4-.75,7.41,7.41,0,0,0-3.35-.72,7.59,7.59,0,0,0-3.39.72,7.54,7.54,0,0,1-3.41.75,7.43,7.43,0,0,1-3.41-.78,7.58,7.58,0,0,0-3.29-.69,7.4,7.4,0,0,0-3.36.71,7.59,7.59,0,0,1-3.43.76v-2.08a7.46,7.46,0,0,0,3.43-.79,8.36,8.36,0,0,1,6.65,0,7.31,7.31,0,0,0,3.41.77,7.54,7.54,0,0,0,3.41-.74,8.3,8.3,0,0,1,6.74,0,7.3,7.3,0,0,0,3.42.75l0,2.1"/><path class="cls-31" d="M294.06,418.31a7.47,7.47,0,0,1-3.4-.74,7.41,7.41,0,0,0-3.35-.73,7.59,7.59,0,0,0-3.39.73,7.68,7.68,0,0,1-3.41.74,7.43,7.43,0,0,1-3.41-.78,7.58,7.58,0,0,0-3.29-.69,7.4,7.4,0,0,0-3.36.71,7.59,7.59,0,0,1-3.43.76v-2.07a7.59,7.59,0,0,0,3.43-.78,7.4,7.4,0,0,1,3.36-.71,7.61,7.61,0,0,1,3.29.69,7.43,7.43,0,0,0,3.41.78,7.54,7.54,0,0,0,3.41-.75,7.59,7.59,0,0,1,3.39-.72,7.41,7.41,0,0,1,3.35.72,7.52,7.52,0,0,0,3.42.75l0,2.09Z"/><path class="cls-33" d="M272.92,399.25a2.47,2.47,0,0,1,.11.54,2.36,2.36,0,0,1-2.44,2.28h19.93a2.36,2.36,0,0,1-2.44-2.28,2.5,2.5,0,0,1,.07-.54,1.17,1.17,0,0,1-.38.05H273.28A1.36,1.36,0,0,1,272.92,399.25Z"/><path class="cls-34" d="M273.28,397.94h14.49c.5,0,.89.3.89.67a.8.8,0,0,1-.89.69H273.28a.81.81,0,0,1-.89-.69C272.39,398.24,272.79,397.94,273.28,397.94Z"/><path class="cls-34" d="M270.62,407.14h19.86v-5.07H270.62Z"/><path class="cls-32" d="M273.47,397.11h14.11V328H273.47Z"/><path class="cls-35" d="M283.52,328v69m1.59-69v69"/><path class="cls-34" d="M270.89,322.46h19.36v-5.08H270.89v5.08Z"/><path class="cls-33" d="M272.92,325.84a.7.7,0,0,1,.36-.07h14.49a1.24,1.24,0,0,1,.4.07,1.21,1.21,0,0,1-.86-1.14,1.27,1.27,0,0,1,.9-1.16,1.55,1.55,0,0,1-.43.07h-14.5a1.32,1.32,0,0,1-.41-.05l.08,0a1.13,1.13,0,0,1,.81,1.12,1.23,1.23,0,0,1-.84,1.14Z"/><path class="cls-34" d="M273.28,325.77h14.49a.71.71,0,1,1,0,1.37H273.28a.71.71,0,1,1,0-1.37Z"/><path class="cls-34" d="M273.28,322.46h14.5c.5,0,.9.26.9.57s-.4.58-.9.58h-14.5c-.49,0-.89-.26-.89-.58S272.79,322.46,273.28,322.46Z"/></g><g id="ribbon_left" data-name="ribbon left"><path class="cls-36" d="M269.06,380c-2,1.13-3.3,2.29-3.08,2.88s.73.93,1.62,1.52c1.41,1,2.26,2.72,1.59,3.53a5,5,0,0,0-.13-7.93Z"/><path class="cls-37" d="M302,353.81c-3.08-1.27-8.31-2.21-14.32-2.41a45.21,45.21,0,0,0-6.77.61c-8.44,1.41-14.88,4.78-14.37,7.53l0,.22s-3.16-7.13-3.22-7.4c-.56-3.05,6.57-6.79,15.94-8.35a47,47,0,0,1,8.31-.66c6,0,11.2.77,14.34,1.93l0,8.53"/><path class="cls-36" d="M273.44,362.5c-3.92-.28-6.58-1.33-6.9-3-.24-1.31,1.09-2.76,3.45-4.07a30.31,30.31,0,0,0,3.48.26l0,6.77"/><path class="cls-36" d="M287.61,357.21a11.54,11.54,0,0,1,5.19,1.73l.09.15c.43.89-1.71,2.79-5.31,4.92l0-6.8"/><path class="cls-37" d="M264.67,375.84c-.38-1.11,3.45-3.35,8.84-5.33,2.47-.88,4.5-1.8,7-2.91,7.49-3.32,13-7.12,12.35-8.51l-.08-.14c.4.33,1,7.15,1,7.15.68,1.27-4.38,5-11.29,8.32-2.2,1.06-6.87,2.78-9.07,3.56-3.94,1.36-7.85,3.94-7.49,4.9l-1.31-7Z"/></g><g id="crown_right" data-name="crown right"><path class="cls-38" d="M410.1,312.08a3.19,3.19,0,0,1-1.12.77c-.46.09-1.05-.43-1.05-.43a2,2,0,0,1-.94.56c-.51.12-1.22-.57-1.22-.57a3,3,0,0,1-.93.86,1.33,1.33,0,0,1-1-.21,1.55,1.55,0,0,1-.57.53c-.15.08-.41,0-.41,0l-.52-.33-.59-.63-.54-.21s-.25-.79-.27-.93l-.07-.49c-.11-.57.75-1.22,2-1.5a3.59,3.59,0,0,1,1.79,0,4.61,4.61,0,0,1,2.77-.72,5,5,0,0,1,2.65.61,4.93,4.93,0,0,1,2.63-.61,4.63,4.63,0,0,1,2.77.72,3.63,3.63,0,0,1,1.8,0c1.23.28,2.11.93,2,1.5l-.07.49c0,.14-.27.93-.27.93l-.54.21-.59.63-.51.33s-.26.12-.41,0a1.45,1.45,0,0,1-.58-.53,1.33,1.33,0,0,1-1,.21,2.91,2.91,0,0,1-.93-.86s-.71.69-1.23.57a2.1,2.1,0,0,1-.93-.56s-.59.52-1.05.43a3,3,0,0,1-1.1-.77Z"/><ellipse class="cls-7" cx="410.07" cy="308.41" rx="1.2" ry="1.7"/><path class="cls-7" d="M410.1,306.84c.3,0,.54.7.54,1.57s-.24,1.57-.54,1.57-.55-.7-.55-1.57S409.79,306.84,410.1,306.84Z"/><ellipse class="cls-8" cx="410.09" cy="306.46" rx="0.81" ry="0.76"/><path class="cls-9" d="M411.21,306.19v.5H409v-.5h.82v-1.13h-.54v-.5h.54v-.51h.53v.51h.53v.5h-.53v1.13h.85"/><path class="cls-10" d="M410.32,305.74a.75.75,0,0,1,.54.95.82.82,0,0,1-1,.51.76.76,0,0,1-.54-1,.8.8,0,0,1,.57-.51"/><path class="cls-39" d="M401,311.7a2.38,2.38,0,0,1-.19-.93,2.47,2.47,0,0,1,2.45-2.51,2.29,2.29,0,0,1,1.19.33"/><path class="cls-10" d="M405.43,309.91a1.45,1.45,0,0,1-.25-.73,2.1,2.1,0,0,1,2.29-1.8,2.81,2.81,0,0,1,1.44.39"/><path class="cls-10" d="M414.72,309.94a1.55,1.55,0,0,0,.21-.76,2.09,2.09,0,0,0-2.29-1.8,2.71,2.71,0,0,0-1.42.39"/><path class="cls-39" d="M419.09,311.7a2.38,2.38,0,0,0,.19-.93,2.48,2.48,0,0,0-2.45-2.51,2.32,2.32,0,0,0-1.2.33"/><ellipse class="cls-40" cx="400.3" cy="310.57" rx="0.39" ry="0.37"/><ellipse class="cls-40" cx="400.45" cy="309.19" rx="0.39" ry="0.37"/><ellipse class="cls-40" cx="401.33" cy="308.15" rx="0.39" ry="0.37"/><ellipse class="cls-40" cx="402.5" cy="307.59" rx="0.39" ry="0.37"/><ellipse class="cls-40" cx="403.75" cy="307.64" rx="0.39" ry="0.37"/><path class="cls-41" d="M404.52,308.8a.38.38,0,1,1,0,.75.38.38,0,1,1,0-.75Z"/><ellipse class="cls-40" cx="404.74" cy="307.87" rx="0.39" ry="0.37"/><ellipse class="cls-40" cx="405.72" cy="307.06" rx="0.39" ry="0.37"/><path class="cls-40" d="M407,306.29a.38.38,0,1,1,0,.75.38.38,0,1,1,0-.75Z"/><ellipse class="cls-40" cx="408.2" cy="306.71" rx="0.39" ry="0.37"/><ellipse class="cls-40" cx="411.91" cy="306.71" rx="0.39" ry="0.37"/><path class="cls-40" d="M413.17,306.29a.38.38,0,1,1-.39.38A.38.38,0,0,1,413.17,306.29Z"/><ellipse class="cls-40" cx="414.39" cy="307.06" rx="0.39" ry="0.37"/><ellipse class="cls-40" cx="415.38" cy="307.87" rx="0.39" ry="0.37"/><path class="cls-41" d="M415.59,308.8a.38.38,0,1,1,0,.75.38.38,0,1,1,0-.75Z"/><ellipse class="cls-40" cx="416.36" cy="307.64" rx="0.39" ry="0.37"/><ellipse class="cls-40" cx="417.62" cy="307.59" rx="0.39" ry="0.37"/><ellipse class="cls-40" cx="418.79" cy="308.15" rx="0.39" ry="0.37"/><ellipse class="cls-40" cx="419.68" cy="309.19" rx="0.39" ry="0.37"/><ellipse class="cls-40" cx="419.82" cy="310.57" rx="0.39" ry="0.37"/><g id="crown_pt1-2" data-name="crown pt1"><path class="cls-7" d="M403.93,315.4a4.2,4.2,0,0,0-.51-.93,27.58,27.58,0,0,1,13.35,0l-.46.79c-.14.26-.33.7-.33.7a20.79,20.79,0,0,0-5.9-.71,20.56,20.56,0,0,0-6,.74,5.26,5.26,0,0,0-.2-.59h0"/><path class="cls-7" d="M410.09,317.56a27.25,27.25,0,0,0,5.3-.55c.57-.17.91-.42.85-.73a.55.55,0,0,0-.32-.33,25,25,0,0,0-11.67,0,.5.5,0,0,0-.32.33c-.06.31.28.56.85.73A27.37,27.37,0,0,0,410.09,317.56Z"/><path class="cls-7" d="M416.87,313.52l-.51-.46a1.93,1.93,0,0,1-1.11.21c-.61-.1-.81-.85-.81-.85a2.19,2.19,0,0,1-1.25.54,1.44,1.44,0,0,1-.93-.54,2.09,2.09,0,0,1-1.16.4,1.94,1.94,0,0,1-1.05-.72s-.55.7-1.08.75a1.4,1.4,0,0,1-1-.47,1.27,1.27,0,0,1-.92.63,1.65,1.65,0,0,1-1.28-.54,2.19,2.19,0,0,1-.86.8,1.56,1.56,0,0,1-1.08-.24s-.1.24-.17.38a.37.37,0,0,1-.27.16l.15.41a27.63,27.63,0,0,1,13.16,0l.17-.47Z"/><path class="cls-7" d="M410.1,311.27l.25,0a.74.74,0,0,0-.05.33.93.93,0,0,0,1,.91,1,1,0,0,0,.92-.63s.09-.33.13-.33,0,.36,0,.36a1,1,0,0,0,1.92-.15.31.31,0,0,0,0-.1l.31-.31.16.38a.91.91,0,0,0,.84,1.28.93.93,0,0,0,.76-.39l.2-.25v.31c0,.3.12.57.43.62a1.32,1.32,0,0,0,.79-.33,5.12,5.12,0,0,0,.69-.65l0,.36a3.52,3.52,0,0,1-.85,1,1.3,1.3,0,0,1-.82.21.78.78,0,0,1-.58-.53,1.38,1.38,0,0,1-.7.19,1.34,1.34,0,0,1-1.23-.74,1.35,1.35,0,0,1-1,.43,1.43,1.43,0,0,1-1.09-.5,1.4,1.4,0,0,1-2.1-.23,1.43,1.43,0,0,1-1.17.6,1.41,1.41,0,0,0-2,.13,1.35,1.35,0,0,1-1-.43,1.32,1.32,0,0,1-1.23.74,1.35,1.35,0,0,1-.69-.19.78.78,0,0,1-.59.53,1.28,1.28,0,0,1-.81-.21,3.73,3.73,0,0,1-.89-1l.06-.36a5.73,5.73,0,0,0,.7.65,1.32,1.32,0,0,0,.79.33.56.56,0,0,0,.43-.62v-.31l.19.25a1,1,0,0,0,.77.39.9.9,0,0,0,.92-.88.78.78,0,0,0-.09-.4l.16-.38.31.31a.31.31,0,0,0,0,.1,1,1,0,0,0,1.93.15s0-.36,0-.36.12.34.14.33a1,1,0,0,0,.92.63.94.94,0,0,0,1-.91.74.74,0,0,0-.05-.33l.26,0Z"/><path class="cls-11" d="M410.09,313.65a25,25,0,0,0-6.67.82.26.26,0,0,1-.28-.15.23.23,0,0,1,.15-.28,27.62,27.62,0,0,1,13.6,0,.23.23,0,0,1,.15.28.26.26,0,0,1-.28.15A25.09,25.09,0,0,0,410.09,313.65Z"/><path class="cls-7" d="M401.19,312.58s-.33-.42-.56-.63a2.1,2.1,0,0,0-.59-.29c0-.07.24-.24.5-.24a.49.49,0,0,1,.39.17l0-.17a.44.44,0,0,1,.3.28,1.41,1.41,0,0,1,0,.62.72.72,0,0,1-.12.26Z"/><path class="cls-7" d="M402.83,311.9l-.09.58-1.22.13-.18-.11,0-.2.93-.75.53.35"/><path class="cls-7" d="M401.21,312.36a.36.36,0,0,1,.46.06c.16.13.21.33.1.43a.34.34,0,0,1-.46-.05A.33.33,0,0,1,401.21,312.36Z"/><path class="cls-7" d="M403.44,312.48a.3.3,0,0,1,.11-.37.33.33,0,0,1,.33.24c.05.16,0,.33-.13.36S403.5,312.64,403.44,312.48Z"/><path class="cls-7" d="M404,311.75l.44.41,1.06-.57.08-.18-.15-.15-1.22-.1-.21.59"/><path class="cls-7" d="M405.23,309.77l-.58.55.75,1,.2.08.14-.16L406,310l-.77-.27"/><path class="cls-7" d="M407.21,311.1l-.22.55-1.22-.11-.16-.14.09-.19,1.06-.56.45.45"/><path class="cls-7" d="M405.6,311a.42.42,0,0,1,.43.41.43.43,0,0,1-.85,0A.41.41,0,0,1,405.6,311Z"/><path class="cls-7" d="M407.65,311.67a.29.29,0,0,1,.19-.34c.12,0,.24.11.26.29s-.06.32-.18.33S407.67,311.83,407.65,311.67Z"/><path class="cls-7" d="M408.45,311.05l.34.5,1.17-.37.12-.15-.13-.18-1.16-.34-.34.54"/><path class="cls-7" d="M410.08,309.24l-.75.45.56,1.2.19.12.19-.12.56-1.2-.75-.45"/><path class="cls-7" d="M411.72,311.05l-.34.5-1.16-.37-.12-.15.12-.18,1.16-.34.34.54"/><path class="cls-7" d="M410.09,310.62a.41.41,0,1,1-.43.41A.41.41,0,0,1,410.09,310.62Z"/><path class="cls-7" d="M412.54,311.67a.28.28,0,0,0-.19-.34c-.12,0-.24.11-.26.29s.06.32.19.33S412.52,311.83,412.54,311.67Z"/><path class="cls-7" d="M413,311.1l.23.55,1.21-.11.16-.14-.09-.19-1.06-.56-.45.45"/><path class="cls-7" d="M415,309.77l.58.55-.74,1-.2.08-.15-.16-.26-1.19.77-.27"/><path class="cls-7" d="M416.18,311.75l-.45.41-1.06-.57-.08-.18.16-.15,1.22-.1.21.59"/><path class="cls-7" d="M414.59,311a.41.41,0,0,1,.42.41.43.43,0,1,1-.42-.41Z"/><path class="cls-7" d="M416.75,312.48a.3.3,0,0,0-.11-.37.34.34,0,0,0-.33.24c-.05.16,0,.33.13.36S416.69,312.64,416.75,312.48Z"/><path class="cls-7" d="M418.82,312.58a8.16,8.16,0,0,1,.58-.63,1.85,1.85,0,0,1,.58-.29c0-.07-.24-.24-.5-.24a.48.48,0,0,0-.39.17l0-.17a.46.46,0,0,0-.31.28,1.34,1.34,0,0,0,0,.62.83.83,0,0,0,.11.26Z"/><path class="cls-7" d="M417.18,311.9l.1.58,1.21.13.19-.11-.05-.2-.91-.75-.54.35"/><path class="cls-7" d="M418.83,312.36c-.09-.1-.3-.07-.46.06s-.21.33-.1.43a.35.35,0,0,0,.47-.05C418.89,312.67,418.94,312.47,418.83,312.36Z"/></g><g id="crown_pt2-2" data-name="crown pt2"><path class="cls-12" d="M403.47,315.45l.27-.44.56.12-.33.48-.5-.16"/><path class="cls-13" d="M405.9,315l-.6.1a.3.3,0,0,1-.33-.23.27.27,0,0,1,.24-.3l.6-.09.62-.09a.27.27,0,0,1,.32.21.28.28,0,0,1-.23.31l-.62.09"/><path class="cls-14" d="M407.93,314.22a.37.37,0,0,1,.38.36.38.38,0,0,1-.76,0A.37.37,0,0,1,407.93,314.22Z"/><path class="cls-12" d="M410.11,314.74h-.83a.29.29,0,0,1-.29-.27.27.27,0,0,1,.28-.27H411a.27.27,0,0,1,.29.27.29.29,0,0,1-.29.27h-.86"/><path class="cls-14" d="M412.25,314.22a.37.37,0,0,1,.38.36.38.38,0,0,1-.76,0A.37.37,0,0,1,412.25,314.22Z"/><path class="cls-13" d="M414.28,315l.6.1a.29.29,0,0,0,.33-.23.26.26,0,0,0-.23-.3l-.61-.09-.62-.09a.28.28,0,0,0-.32.21.27.27,0,0,0,.24.31l.61.09"/><path class="cls-12" d="M416.66,315.47l-.22-.46-.58.06.28.51.52-.11"/><path class="cls-6" d="M410.08,317.06a23.07,23.07,0,0,1-5.47-.56,22.83,22.83,0,0,1,5.47-.61,22.59,22.59,0,0,1,5.5.61A23.34,23.34,0,0,1,410.08,317.06Z"/><path class="cls-15" d="M411.07,317v-1m-.51,1V316m-.37,1.09V316"/><path class="cls-16" d="M409.89,317.05V316"/><path class="cls-17" d="M409.58,317.05V316"/><path class="cls-18" d="M409.31,317.05V316"/><path class="cls-18" d="M409,317.05V316"/><path class="cls-19" d="M408.78,317.05V316"/><path class="cls-20" d="M408.3,317v-1m.23,1V316"/><path class="cls-21" d="M407.85,317V316m.23,1v-1"/><path class="cls-22" d="M407.26,316.9v-.81m.2.82v-.85m.2.88v-.88"/><path class="cls-23" d="M407.06,316.89v-.78"/><path class="cls-24" d="M406.87,316.85v-.73"/><path class="cls-25" d="M406.66,316.83v-.68"/><path class="cls-26" d="M406.24,316.77v-.54m.23.57v-.61"/><path class="cls-26" d="M406,316.72v-.47"/><path class="cls-27" d="M405.82,316.69v-.4"/><path class="cls-28" d="M405.6,316.64v-.32"/><path class="cls-29" d="M405.39,316.61v-.23"/><path class="cls-30" d="M405.15,316.56v-.11"/></g></g><g id="pillar_right" data-name="pillar right"><g id="pillar_left-2" data-name="pillar left"><path class="cls-31" d="M423.65,407.85a7.42,7.42,0,0,1-3.42-.76,7.58,7.58,0,0,0-3.35-.71,7.81,7.81,0,0,0-3.4.72,7.46,7.46,0,0,1-3.4.75,7.38,7.38,0,0,1-3.42-.78,7.52,7.52,0,0,0-3.29-.69,7.39,7.39,0,0,0-3.35.7,7.49,7.49,0,0,1-3.43.77v2.09a7.62,7.62,0,0,0,3.43-.76,7.38,7.38,0,0,1,3.35-.72,7.55,7.55,0,0,1,3.29.7,8,8,0,0,0,6.82,0,7.66,7.66,0,0,1,3.4-.73,7.44,7.44,0,0,1,3.35.73,7.46,7.46,0,0,0,3.4.75l0-2.09Z"/><path class="cls-32" d="M423.65,409.94a7.55,7.55,0,0,1-3.42-.75,7.44,7.44,0,0,0-3.35-.73,7.66,7.66,0,0,0-3.4.73,8,8,0,0,1-6.82,0,7.51,7.51,0,0,0-3.29-.7,7.38,7.38,0,0,0-3.35.72,7.62,7.62,0,0,1-3.43.76V412a7.62,7.62,0,0,0,3.43-.76,7.39,7.39,0,0,1,3.35-.71,7.7,7.7,0,0,1,3.29.69,7.38,7.38,0,0,0,3.42.78,7.6,7.6,0,0,0,3.4-.74,7.66,7.66,0,0,1,3.4-.73,7.44,7.44,0,0,1,3.35.73,7.47,7.47,0,0,0,3.4.74l0-2.09"/><path class="cls-31" d="M423.65,412a7.55,7.55,0,0,1-3.42-.74,7.44,7.44,0,0,0-3.35-.73,7.66,7.66,0,0,0-3.4.73,7.6,7.6,0,0,1-3.4.74,7.38,7.38,0,0,1-3.42-.78,7.66,7.66,0,0,0-3.29-.69,7.39,7.39,0,0,0-3.35.71,7.62,7.62,0,0,1-3.43.76v2.09a7.49,7.49,0,0,0,3.43-.77,8.33,8.33,0,0,1,6.64,0,7.39,7.39,0,0,0,3.42.77,7.47,7.47,0,0,0,3.4-.74,7.67,7.67,0,0,1,3.4-.72,7.58,7.58,0,0,1,3.35.71,7.21,7.21,0,0,0,3.4.75l0-2.09"/><path class="cls-32" d="M423.63,416.22a7.46,7.46,0,0,1-3.4-.75,7.44,7.44,0,0,0-3.35-.72,7.67,7.67,0,0,0-3.4.72,8,8,0,0,1-6.82,0,7.52,7.52,0,0,0-3.29-.69,7.39,7.39,0,0,0-3.35.71,7.62,7.62,0,0,1-3.43.76v-2.08a7.49,7.49,0,0,0,3.43-.79,8.33,8.33,0,0,1,6.64,0,7.39,7.39,0,0,0,3.42.77,7.47,7.47,0,0,0,3.4-.74,7.67,7.67,0,0,1,3.4-.72,7.58,7.58,0,0,1,3.35.71,7.3,7.3,0,0,0,3.42.75l0,2.1"/><path class="cls-31" d="M423.63,418.31a7.47,7.47,0,0,1-3.4-.74,7.44,7.44,0,0,0-3.35-.73,7.66,7.66,0,0,0-3.4.73,7.6,7.6,0,0,1-3.4.74,7.51,7.51,0,0,1-3.42-.78,7.52,7.52,0,0,0-3.29-.69,7.39,7.39,0,0,0-3.35.71,7.62,7.62,0,0,1-3.43.76v-2.07a7.62,7.62,0,0,0,3.43-.78,7.39,7.39,0,0,1,3.35-.71,7.55,7.55,0,0,1,3.29.69,8,8,0,0,0,6.82,0,7.67,7.67,0,0,1,3.4-.72,7.44,7.44,0,0,1,3.35.72,7.52,7.52,0,0,0,3.42.75l0,2.09Z"/><path class="cls-33" d="M402.49,399.25a2.47,2.47,0,0,1,.11.54,2.36,2.36,0,0,1-2.44,2.28h19.92a2.36,2.36,0,0,1-2.44-2.28,2.52,2.52,0,0,1,.08-.54,1.17,1.17,0,0,1-.38.05h-14.5A1.34,1.34,0,0,1,402.49,399.25Z"/><path class="cls-34" d="M402.84,397.94h14.5c.49,0,.89.3.89.67a.81.81,0,0,1-.89.69h-14.5a.7.7,0,1,1,0-1.36Z"/><path class="cls-34" d="M400.18,407.14h19.87v-5.07H400.18Z"/><path class="cls-32" d="M403,397.11h14.12V328H403Z"/><path class="cls-35" d="M413.09,328v69m1.59-69v69"/><path class="cls-34" d="M400.45,322.46h19.36v-5.08H400.45v5.08Z"/><path class="cls-33" d="M402.49,325.84a.69.69,0,0,1,.35-.07h14.5a1.24,1.24,0,0,1,.4.07,1.21,1.21,0,0,1-.86-1.14,1.27,1.27,0,0,1,.89-1.16,1.42,1.42,0,0,1-.42.07H402.84a1.4,1.4,0,0,1-.41-.05l.08,0a1.13,1.13,0,0,1,.82,1.12,1.23,1.23,0,0,1-.84,1.14Z"/><path class="cls-34" d="M402.84,325.77h14.5a.71.71,0,1,1,0,1.37h-14.5a.71.71,0,1,1,0-1.37Z"/><path class="cls-34" d="M402.84,322.46h14.51c.49,0,.89.26.89.57s-.4.58-.89.58H402.84c-.48,0-.88-.26-.88-.58S402.36,322.46,402.84,322.46Z"/></g></g><g id="ribbon_right" data-name="ribbon right"><g id="ribbon_left-2" data-name="ribbon left"><path class="cls-36" d="M421.6,380c2,1.13,3.3,2.29,3.08,2.88s-.73.93-1.63,1.52c-1.4,1-2.25,2.72-1.58,3.53a5,5,0,0,1,.13-7.93Z"/><path class="cls-37" d="M388.66,353.81c3.07-1.27,8.31-2.21,14.32-2.41a45.21,45.21,0,0,1,6.77.61c8.44,1.41,14.88,4.78,14.36,7.53a1.7,1.7,0,0,1,0,.22s3.16-7.13,3.21-7.4c.57-3.05-6.56-6.79-15.93-8.35a47,47,0,0,0-8.31-.66c-6,0-11.2.77-14.35,1.93l0,8.53"/><path class="cls-36" d="M417.22,362.5c3.92-.28,6.58-1.33,6.89-3,.25-1.31-1.08-2.76-3.44-4.07a30.31,30.31,0,0,1-3.48.26l0,6.77"/><path class="cls-36" d="M403.05,357.21a11.54,11.54,0,0,0-5.19,1.73l-.09.15c-.43.89,1.71,2.79,5.31,4.92l0-6.8"/><path class="cls-37" d="M426,375.84c.37-1.11-3.45-3.35-8.84-5.33-2.47-.88-4.5-1.8-7-2.91-7.49-3.32-13-7.12-12.35-8.51l.08-.14c-.4.33-1,7.15-1,7.15-.67,1.27,4.39,5,11.3,8.32,2.2,1.06,6.87,2.78,9.06,3.56,3.95,1.36,7.86,3.94,7.5,4.9l1.31-7Z"/></g></g><g id="plus_ultra" data-name="plus ultra"><path class="cls-8" d="M272.48,350.49c1.73-.62,2.86-1.37,2.32-2.72-.36-.87-1.25-1-2.58-.55l-2.36.86,2.12,5.24.7-.3.74-.22-.94-2.3Zm-1-2.52.6-.22a1,1,0,0,1,1.3.7,1,1,0,0,1-.43,1.34,4.92,4.92,0,0,1-.61.29l-.86-2.11"/><path class="cls-8" d="M278,345.78c-.25.07-.5.14-.75.19s-.51.08-.76.1l1.22,5.46,3.81-.77a1,1,0,0,1-.12-.33,2.21,2.21,0,0,1,0-.35c-.67.19-1.4.4-2.27.57L278,345.78"/><path class="cls-8" d="M285.64,350.48c.71-2,1.58-3.88,2.44-5.8a2.63,2.63,0,0,1-.47.06h-.47c-.46,1.4-1,2.79-1.63,4.17-.71-1.31-1.5-2.59-2.11-3.91l-.89.1c-.3,0-.61,0-.91,0,1.1,1.79,2.16,3.57,3.17,5.41l.43-.07a3.31,3.31,0,0,1,.44,0"/><path class="cls-8" d="M293.59,346.28c.13-.27.27-.52.42-.77a3.16,3.16,0,0,0-1.57-.55c-1.56-.15-2.44.53-2.55,1.47-.22,2,2.88,1.8,2.73,3.1-.06.56-.65.78-1.29.72a1.34,1.34,0,0,1-1.31-1l-.19,0a5.74,5.74,0,0,1-.42,1,3.72,3.72,0,0,0,1.61.51c1.59.17,2.8-.47,2.91-1.51.2-1.87-2.93-2-2.81-3.07.06-.46.41-.77,1.22-.69a1.22,1.22,0,0,1,1.1.82l.15,0"/><path class="cls-8" d="M397.46,350.78c.54-2,1.22-4,1.9-6a2.36,2.36,0,0,1-.46.1,3.57,3.57,0,0,1-.47,0c-.32,1.43-.76,2.86-1.23,4.29-.84-1.25-1.74-2.46-2.46-3.73-.3.06-.59.13-.89.17s-.6.06-.9.1c1.26,1.68,2.47,3.38,3.65,5.13.14,0,.28-.08.43-.1s.29,0,.43,0"/><path class="cls-8" d="M402.83,344.86c-.26,0-.52,0-.77,0s-.52,0-.77-.05l-.11,5.57,3.9.07a2.08,2.08,0,0,1-.05-.36,2,2,0,0,1,.06-.34c-.7,0-1.46.08-2.35.06l.09-5"/><path class="cls-8" d="M408.94,345.77a17.71,17.71,0,0,1,1.82.27c0-.11,0-.24,0-.36a2.37,2.37,0,0,1,.08-.34l-5.27-.43a2.06,2.06,0,0,1,0,.35,1.31,1.31,0,0,1-.09.34,18.82,18.82,0,0,1,1.92,0l-.46,5a6.69,6.69,0,0,1,.77,0c.26,0,.51.06.76.09l.46-5"/><path class="cls-8" d="M411.1,351.26l.77.13c.24.05.49.13.74.2l.62-2.55h.07c.14.36.33.79.43,1l.78,1.93c.31.05.61.09.91.15s.61.16.9.25l-.27-.59c-.41-.86-.86-1.74-1.22-2.62,1,0,1.72-.31,1.91-1.09a1.21,1.21,0,0,0-.59-1.33,5.13,5.13,0,0,0-1.59-.52l-2.12-.46-1.34,5.46m2.73-4.71c.62.14,1.38.24,1.38.93a2.19,2.19,0,0,1,0,.42c-.2.81-.82,1.09-1.85.79l.52-2.14"/><path class="cls-8" d="M421.14,352.94a15.11,15.11,0,0,1-.27,1.82,8.17,8.17,0,0,1,.79.38c.26.14.49.3.74.45l.52-6.28-.35-.16a2.2,2.2,0,0,1-.32-.21l-5.54,3.52.44.22c.15.07.27.16.41.24.47-.39.95-.71,1.51-1.13l2.07,1.14Zm-1.57-1.45,1.85-1.19-.22,2.09-1.63-.9"/></g></g><g id="crown_crest" data-name="crown crest"><path class="cls-12" d="M344.78,279.33A41.24,41.24,0,0,1,359,281.51a27.33,27.33,0,0,0,7.3,1.89,29,29,0,0,0,5.95.2,23.37,23.37,0,0,1,9.22,2.16,25.32,25.32,0,0,1,6.78,4.26l-1.37,1.22-.39,3.44L382.79,299l-1.87,1.59-4.42,3.54-2.26.18-.69,1.95L345,302.86l-28.68,3.35-.69-1.95-2.27-.18-4.41-3.54L307.05,299l-3.73-4.27-.38-3.44L301.57,290a25.25,25.25,0,0,1,6.77-4.26,23.37,23.37,0,0,1,9.22-2.16,29,29,0,0,0,5.95-.2,27.33,27.33,0,0,0,7.3-1.89,39.52,39.52,0,0,1,14-2.18Z"/><path class="cls-34" d="M323.66,286.89l1.2,1,1.81-3a6.68,6.68,0,0,1-3.3-5.66,5.24,5.24,0,0,1,.05-.79c.18-3.77,4.78-6.88,10.6-6.88a13.65,13.65,0,0,1,7.67,2.16c.06-.58.11-1.09.19-1.62a15.78,15.78,0,0,0-7.86-2c-6.7,0-11.94,3.82-12.19,8.32a7,7,0,0,0,0,.79,8,8,0,0,0,2.83,6.08l-1,1.57"/><path class="cls-34" d="M323.74,286.92a8.37,8.37,0,0,1-3.71-6.58c0-2.94,1.93-5.56,4.85-7.31a7.72,7.72,0,0,0-3.05,5.42,7,7,0,0,0,0,.79,8,8,0,0,0,2.83,6.08l-.88,1.6"/><path class="cls-34" d="M303.57,289.9a7.84,7.84,0,0,1-1.28-8.74c1.85-3.81,7.67-6.58,14.56-6.58a24,24,0,0,1,5.34.58,8.33,8.33,0,0,0-.94,1.29,23,23,0,0,0-4.4-.42c-6.31,0-11.6,2.46-13.13,5.78a6.33,6.33,0,0,0-.63,2.78,6.57,6.57,0,0,0,2.42,5.05l-2.29,3.74-1.22-1,1.57-2.5Z"/><path class="cls-34" d="M305.91,277.39a9.61,9.61,0,0,0-3.62,3.77,7.84,7.84,0,0,0,1.28,8.74l-1.39,2.25a9.42,9.42,0,0,1-2.1-5.82c0-3.65,2.32-6.83,5.83-8.94Z"/><path class="cls-34" d="M345.12,269.39a3.19,3.19,0,0,1,3.16,2.37,26.85,26.85,0,0,1,.35,4c0,.16,0,.3,0,.45s0,.36,0,.53a24.23,24.23,0,0,0,1.1,7.4l-4.65,4.47-4.72-4.47a23.84,23.84,0,0,0,1.12-7.4c0-.17,0-.35,0-.53s0-.29,0-.45a26.85,26.85,0,0,1,.35-4,3.27,3.27,0,0,1,3.22-2.37Z"/><path class="cls-34" d="M345.12,270.84a1.62,1.62,0,0,1,1.62,1.2,25.63,25.63,0,0,1,.35,3.81c0,.14,0,.28,0,.42s0,.33,0,.51a22.57,22.57,0,0,0,1.05,7l-3.07,2.91L342,283.77a23.19,23.19,0,0,0,1.05-7c0-.18,0-.34,0-.51s0-.28,0-.42a25.63,25.63,0,0,1,.35-3.81A1.69,1.69,0,0,1,345.12,270.84Z"/><path class="cls-34" d="M366.54,286.89l-1.21,1-1.81-3a6.69,6.69,0,0,0,3.31-5.66,7,7,0,0,0-.05-.79c-.18-3.77-4.78-6.88-10.6-6.88a13.66,13.66,0,0,0-7.68,2.16c-.05-.58-.1-1.09-.19-1.62a15.82,15.82,0,0,1,7.87-2c6.7,0,11.94,3.82,12.19,8.32,0,.26,0,.53,0,.79a8.05,8.05,0,0,1-2.84,6.08l1,1.57"/><path class="cls-34" d="M366.46,286.92a8.37,8.37,0,0,0,3.71-6.58c0-2.94-1.93-5.56-4.85-7.31a7.72,7.72,0,0,1,3.05,5.42c0,.26,0,.53,0,.79a8.05,8.05,0,0,1-2.84,6.08l.89,1.6"/><path class="cls-34" d="M386.63,289.9a8,8,0,0,0,2.06-5.31,7.75,7.75,0,0,0-.79-3.43c-1.86-3.81-7.66-6.58-14.55-6.58a24.17,24.17,0,0,0-5.35.58,8.4,8.4,0,0,1,.95,1.29,22.89,22.89,0,0,1,4.4-.42c6.31,0,11.59,2.46,13.12,5.78a6.33,6.33,0,0,1,.63,2.78,6.57,6.57,0,0,1-2.42,5.05l2.28,3.74,1.24-1Z"/><path class="cls-34" d="M384.29,277.39a9.51,9.51,0,0,1,3.61,3.77,7.75,7.75,0,0,1,.79,3.43,8,8,0,0,1-2.06,5.31l1.39,2.25a9.47,9.47,0,0,0,2.09-5.82c0-3.65-2.32-6.83-5.82-8.94Z"/><ellipse class="cls-42" cx="345.12" cy="265.94" rx="3.85" ry="3.65"/><path class="cls-7" d="M344.12,255.72v2H342v2h2.1v5.75h-2.65c0,.18-.19.32-.19.51a3.38,3.38,0,0,0,.3,1.42s0,0,0,0h7.05l0,0a3.54,3.54,0,0,0,.3-1.42c0-.19-.16-.33-.19-.51h-2.57v-5.75h2.1v-2h-2.1v-2Z"/><ellipse class="cls-43" cx="345.12" cy="284.73" rx="1.66" ry="1.56"/><ellipse class="cls-43" cx="345.12" cy="281.66" rx="1.66" ry="1.56"/><ellipse class="cls-43" cx="345.12" cy="278.36" rx="1.32" ry="1.25"/><ellipse class="cls-43" cx="345.12" cy="275.39" rx="0.96" ry="0.9"/><ellipse class="cls-43" cx="345.12" cy="272.78" rx="0.76" ry="0.72"/><ellipse class="cls-43" cx="300.73" cy="293.19" rx="0.96" ry="0.9"/><ellipse class="cls-43" cx="299.43" cy="290.88" rx="0.96" ry="0.9"/><ellipse class="cls-43" cx="298.56" cy="288.21" rx="0.96" ry="0.9"/><ellipse class="cls-43" cx="298.45" cy="285.34" rx="0.96" ry="0.9"/><ellipse class="cls-43" cx="299.15" cy="282.53" rx="0.96" ry="0.9"/><ellipse class="cls-43" cx="300.62" cy="279.97" rx="0.96" ry="0.9"/><ellipse class="cls-43" cx="302.57" cy="277.85" rx="0.96" ry="0.9"/><ellipse class="cls-43" cx="304.85" cy="276.11" rx="0.96" ry="0.9"/><ellipse class="cls-43" cx="307.56" cy="274.68" rx="0.96" ry="0.9"/><ellipse class="cls-43" cx="310.37" cy="273.66" rx="0.96" ry="0.9"/><ellipse class="cls-43" cx="313.52" cy="273.09" rx="0.96" ry="0.9"/><ellipse class="cls-43" cx="316.5" cy="272.94" rx="0.96" ry="0.9"/><ellipse class="cls-43" cx="319.43" cy="273.04" rx="0.96" ry="0.9"/><ellipse class="cls-43" cx="322.68" cy="285.93" rx="0.96" ry="0.9"/><ellipse class="cls-43" cx="321.06" cy="283.61" rx="0.96" ry="0.9"/><ellipse class="cls-43" cx="320.2" cy="281.09" rx="0.96" ry="0.9"/><ellipse class="cls-43" cx="320.3" cy="278.33" rx="0.96" ry="0.9"/><ellipse class="cls-43" cx="320.9" cy="275.55" rx="0.96" ry="0.9"/><ellipse class="cls-43" cx="322.36" cy="273.04" rx="0.96" ry="0.9"/><ellipse class="cls-43" cx="324.58" cy="271.3" rx="0.96" ry="0.9"/><ellipse class="cls-43" cx="327.18" cy="269.86" rx="0.96" ry="0.9"/><ellipse class="cls-43" cx="330.05" cy="269" rx="0.96" ry="0.9"/><ellipse class="cls-43" cx="333.03" cy="268.48" rx="0.96" ry="0.9"/><ellipse class="cls-43" cx="335.96" cy="268.53" rx="0.96" ry="0.9"/><ellipse class="cls-43" cx="338.99" cy="269.04" rx="0.96" ry="0.9"/><ellipse class="cls-43" cx="341.81" cy="270.01" rx="0.96" ry="0.9"/><ellipse class="cls-43" cx="348.38" cy="270.01" rx="0.96" ry="0.9"/><ellipse class="cls-43" cx="351.2" cy="269.04" rx="0.96" ry="0.9"/><ellipse class="cls-43" cx="354.24" cy="268.53" rx="0.96" ry="0.9"/><ellipse class="cls-43" cx="357.15" cy="268.48" rx="0.96" ry="0.9"/><ellipse class="cls-43" cx="360.14" cy="269" rx="0.96" ry="0.9"/><ellipse class="cls-43" cx="363.01" cy="269.86" rx="0.96" ry="0.9"/><ellipse class="cls-43" cx="365.61" cy="271.3" rx="0.96" ry="0.9"/><ellipse class="cls-43" cx="367.83" cy="273.04" rx="0.96" ry="0.9"/><ellipse class="cls-43" cx="369.3" cy="275.55" rx="0.96" ry="0.9"/><ellipse class="cls-43" cx="369.9" cy="278.33" rx="0.96" ry="0.9"/><ellipse class="cls-43" cx="370" cy="281.09" rx="0.96" ry="0.9"/><ellipse class="cls-43" cx="369.13" cy="283.61" rx="0.96" ry="0.9"/><ellipse class="cls-43" cx="367.52" cy="285.93" rx="0.96" ry="0.9"/><ellipse class="cls-43" cx="370.77" cy="273.04" rx="0.96" ry="0.9"/><ellipse class="cls-43" cx="373.69" cy="272.94" rx="0.96" ry="0.9"/><ellipse class="cls-43" cx="376.68" cy="273.09" rx="0.96" ry="0.9"/><ellipse class="cls-43" cx="379.83" cy="273.66" rx="0.96" ry="0.9"/><ellipse class="cls-43" cx="382.64" cy="274.68" rx="0.96" ry="0.9"/><ellipse class="cls-43" cx="385.35" cy="276.11" rx="0.96" ry="0.9"/><ellipse class="cls-43" cx="387.62" cy="277.85" rx="0.96" ry="0.9"/><ellipse class="cls-43" cx="389.57" cy="279.97" rx="0.96" ry="0.9"/><ellipse class="cls-43" cx="391.04" cy="282.53" rx="0.96" ry="0.9"/><ellipse class="cls-43" cx="391.74" cy="285.34" rx="0.96" ry="0.9"/><ellipse class="cls-43" cx="391.64" cy="288.21" rx="0.96" ry="0.9"/><ellipse class="cls-43" cx="390.77" cy="290.88" rx="0.96" ry="0.9"/><ellipse class="cls-43" cx="389.47" cy="293.19" rx="0.96" ry="0.9"/><path class="cls-34" d="M345.21,317.08c-10.65,0-20.19-1.28-27-3.33a1.12,1.12,0,0,1,0-2.1c6.81-2,16.35-3.31,27-3.33s20.2,1.28,27,3.33a1,1,0,0,1,.72,1,1,1,0,0,1-.72,1.08c-6.81,2.05-16.35,3.31-27,3.33"/><path class="cls-34" d="M345.14,308.32c-10.78,0-20.45,1.37-27.26,3.47.56-.27.51-1-.19-2.78-.86-2.2-2.18-2.1-2.18-2.1,7.53-2.22,18-3.61,29.68-3.63s22.23,1.41,29.76,3.63c0,0-1.33-.1-2.18,2.1-.7,1.81-.75,2.51-.18,2.78-6.81-2.1-16.67-3.45-27.45-3.47"/><path class="cls-34" d="M345.19,303.29c-11.67,0-22.15,1.4-29.68,3.63a.9.9,0,1,1-.59-1.7c7.57-2.32,18.31-3.77,30.27-3.8s22.74,1.48,30.31,3.8a.94.94,0,0,1,.61,1.18,1,1,0,0,1-1.2.52c-7.53-2.23-18.05-3.62-29.72-3.63"/><path class="cls-34" d="M345.26,294.15l1.06.19a4.07,4.07,0,0,0-.2,1.42,4.16,4.16,0,0,0,4.27,4,4.24,4.24,0,0,0,4.05-2.79c.07,0,.41-1.46.6-1.44s.13,1.56.19,1.53a4.29,4.29,0,0,0,8.49-.62,4.19,4.19,0,0,0,0-.5l1.33-1.32.73,1.69a3.62,3.62,0,0,0-.4,1.76,4,4,0,0,0,4.07,3.86,4.13,4.13,0,0,0,3.39-1.71l.86-1.09v1.33c0,1.35.57,2.54,1.87,2.76a5.7,5.7,0,0,0,3.5-1.48,23.27,23.27,0,0,0,3.09-2.85l.17,1.56a13.13,13.13,0,0,1-3.45,3.6,6.2,6.2,0,0,1-3.67,1,3.63,3.63,0,0,1-2.62-2.38,6,6,0,0,1-3.08.84,5.9,5.9,0,0,1-5.49-3.35,6,6,0,0,1-4.51,1.95,6.32,6.32,0,0,1-4.84-2.22,6.3,6.3,0,0,1-4.24,1.62,6.23,6.23,0,0,1-5.16-2.65,6.34,6.34,0,0,1-9.39,1,6.34,6.34,0,0,1-4.85,2.22,6.05,6.05,0,0,1-4.51-1.95,5.9,5.9,0,0,1-5.48,3.35,6.06,6.06,0,0,1-3.09-.84,3.61,3.61,0,0,1-2.62,2.38,6.22,6.22,0,0,1-3.67-1,13.13,13.13,0,0,1-3.45-3.6l.17-1.56a23.27,23.27,0,0,0,3.09,2.85,5.61,5.61,0,0,0,3.49,1.48c1.32-.22,1.88-1.41,1.88-2.76v-1.33l.86,1.09A4.15,4.15,0,0,0,321,302a4,4,0,0,0,4.07-3.86,3.62,3.62,0,0,0-.4-1.76l.72-1.69,1.34,1.32a4.05,4.05,0,0,0,4.23,4.54,4.13,4.13,0,0,0,4.24-3.42c.05,0,0-1.52.19-1.53s.52,1.48.58,1.44a4.28,4.28,0,0,0,4.07,2.79,4.16,4.16,0,0,0,4.26-4,3.48,3.48,0,0,0-.21-1.42l1.13-.19"/><path class="cls-34" d="M308.92,299.83a1.91,1.91,0,0,0-.62-.92,1.55,1.55,0,0,0-2.05-.22.78.78,0,0,0-.15.22,7,7,0,0,0-2.09-2.42,6.8,6.8,0,0,0-3-.45,2.53,2.53,0,0,1,2.6-2.51,2.77,2.77,0,0,1,2.16,1l.2-.93a2.54,2.54,0,0,1,1.72,1.58,6.08,6.08,0,0,1-.06,3.3,6.07,6.07,0,0,1,.74-1.4,7.16,7.16,0,0,1,2.16-1.44,8.87,8.87,0,0,0,1.19-.69,4.64,4.64,0,0,1,.05.53,5.15,5.15,0,0,1,0,.72,7.22,7.22,0,0,1,3.33.42,4.32,4.32,0,0,1-2.28,2s.38.31.72.65a2.37,2.37,0,0,1,.38.43l-1.1.16a15.17,15.17,0,0,1-2.34.19,12.6,12.6,0,0,1-1.51-.19"/><path class="cls-36" d="M306.25,298.69a1.55,1.55,0,0,1,2.05.22c.69.58.88,1.44.44,1.9a1.55,1.55,0,0,1-2.05-.22c-.69-.59-.89-1.44-.44-1.9"/><path class="cls-43" d="M315.89,299.47c-.25-.72,0-1.43.49-1.59s1.15.29,1.39,1,0,1.44-.49,1.6-1.14-.3-1.39-1"/><path class="cls-34" d="M324.34,296a1.61,1.61,0,0,1-.58-.94A1.52,1.52,0,0,1,324,294a9.93,9.93,0,0,0-1.59-.6,10.46,10.46,0,0,0-2.06-.17c-.33,0-1,0-1,0a5.19,5.19,0,0,0,.24.48,6.47,6.47,0,0,0,.44.65,4.47,4.47,0,0,0-2.63,1.82,4.8,4.8,0,0,0,3.12.84,4.91,4.91,0,0,0-.22,1.27l.93-.33a11.07,11.07,0,0,0,1.86-.84,9.14,9.14,0,0,0,1.29-1.08"/><path class="cls-34" d="M324,287.09a4.63,4.63,0,0,1,2,2.63,1.56,1.56,0,0,1,.61-.51,2,2,0,0,1,.95-.28s-.15.84-.22,1.15-.08,1.19-.28,2a7.29,7.29,0,0,1-.54,1.46,1.75,1.75,0,0,0-1.38-.36A1.62,1.62,0,0,0,324,294a7.17,7.17,0,0,1-1-1.2c-.48-.71-.81-1.55-1-1.81s-.62-1-.62-1a2,2,0,0,1,1,0,1.5,1.5,0,0,1,.76.28,4.41,4.41,0,0,1,.91-3.12"/><path class="cls-34" d="M326.82,295.54a1.51,1.51,0,0,0,.2-1.07,1.5,1.5,0,0,0-.57-.93,8.47,8.47,0,0,1,1.28-1.09,9.88,9.88,0,0,1,1.86-.83c.32-.11.93-.35.93-.35a4.55,4.55,0,0,1,0,.53,5,5,0,0,1-.17.76,4.72,4.72,0,0,1,3.13.85,4.55,4.55,0,0,1-2.64,1.81,5.57,5.57,0,0,1,.44.64c.18.34.24.49.24.49l-1,0a10.46,10.46,0,0,1-2.06-.17,9.93,9.93,0,0,1-1.59-.6"/><ellipse class="cls-36" cx="325.43" cy="294.73" rx="1.88" ry="1.79"/><path class="cls-43" d="M334.45,295.88c-.1-.76.27-1.42.81-1.48s1.07.5,1.16,1.25-.26,1.42-.81,1.48-1.06-.5-1.16-1.25"/><path class="cls-34" d="M343.78,294.19a1.72,1.72,0,0,1-.46-1.15,1.7,1.7,0,0,1,.44-1.15,9.74,9.74,0,0,0-1.64-1,11.38,11.38,0,0,0-2.26-.58l-1.11-.21a4.56,4.56,0,0,0,.17.58,7.17,7.17,0,0,0,.35.81,5.23,5.23,0,0,0-3.31,1.53,5.38,5.38,0,0,0,3.31,1.52,6.46,6.46,0,0,0-.35.8,3.88,3.88,0,0,0-.17.59l1.11-.21a12.12,12.12,0,0,0,2.26-.58,11.37,11.37,0,0,0,1.66-1"/><path class="cls-34" d="M345.18,284.23a5.15,5.15,0,0,1,1.69,3.32,1.68,1.68,0,0,1,.79-.46,2.3,2.3,0,0,1,1.11-.14s-.34.91-.47,1.23-.34,1.33-.73,2.2a7.87,7.87,0,0,1-.92,1.53,1.94,1.94,0,0,0-2.9,0,7.56,7.56,0,0,1-.91-1.53c-.39-.87-.58-1.88-.73-2.2s-.49-1.23-.49-1.23a2.34,2.34,0,0,1,1.12.14,1.77,1.77,0,0,1,.8.46,5.09,5.09,0,0,1,1.64-3.32"/><path class="cls-34" d="M346.61,294.19a1.67,1.67,0,0,0,.46-1.15,1.7,1.7,0,0,0-.44-1.15,9.59,9.59,0,0,1,1.65-1,11,11,0,0,1,2.26-.58l1.09-.21a3.31,3.31,0,0,1-.16.58,7.17,7.17,0,0,1-.35.81,5.21,5.21,0,0,1,3.31,1.53,5.35,5.35,0,0,1-3.31,1.52,6.46,6.46,0,0,1,.35.8,4.41,4.41,0,0,1,.16.59l-1.09-.21a11.74,11.74,0,0,1-2.26-.58,11.16,11.16,0,0,1-1.67-1"/><ellipse class="cls-36" cx="345.2" cy="293.04" rx="1.88" ry="1.79"/><path class="cls-43" d="M356,295.88c.09-.76-.26-1.42-.81-1.48s-1.07.5-1.16,1.25.27,1.42.8,1.48,1.07-.5,1.17-1.25"/><path class="cls-34" d="M363.65,295.54a1.46,1.46,0,0,1,.37-2,9.1,9.1,0,0,0-1.28-1.09,9.7,9.7,0,0,0-1.88-.83l-.92-.35a2.46,2.46,0,0,0,.06.53,4.47,4.47,0,0,0,.16.76,4.74,4.74,0,0,0-3.13.85,4.55,4.55,0,0,0,2.64,1.81,4.94,4.94,0,0,0-.43.64,3.37,3.37,0,0,0-.24.49l1,0a10.4,10.4,0,0,0,2.06-.17,9.93,9.93,0,0,0,1.59-.6"/><path class="cls-34" d="M366.51,287.09a4.69,4.69,0,0,0-2,2.63s-.1-.22-.61-.51a2,2,0,0,0-.95-.28s.15.84.23,1.15.07,1.19.26,2a6.67,6.67,0,0,0,.56,1.46,1.72,1.72,0,0,1,1.36-.36,1.64,1.64,0,0,1,1.16.79,7.72,7.72,0,0,0,1.05-1.2c.47-.71.8-1.55,1-1.81s.63-1,.63-1a2,2,0,0,0-1,0,1.58,1.58,0,0,0-.77.28,4.4,4.4,0,0,0-.89-3.12"/><path class="cls-34" d="M366.12,296a1.56,1.56,0,0,0,.58-.94,1.47,1.47,0,0,0-.19-1.07,9.49,9.49,0,0,1,1.59-.6,10.36,10.36,0,0,1,2-.17l1,0a2.81,2.81,0,0,1-.25.48,5,5,0,0,1-.42.65,4.56,4.56,0,0,1,2.63,1.82,4.85,4.85,0,0,1-3.13.84,4.91,4.91,0,0,1,.22,1.27l-.92-.33a10.82,10.82,0,0,1-1.88-.84,10.21,10.21,0,0,1-1.28-1.08"/><ellipse class="cls-36" cx="365.04" cy="294.73" rx="1.88" ry="1.79"/><path class="cls-43" d="M374.58,299.47c.24-.72,0-1.43-.5-1.59s-1.14.29-1.39,1,0,1.44.49,1.6,1.15-.3,1.4-1"/><path class="cls-34" d="M381.54,299.83a2,2,0,0,1,.62-.92,1.55,1.55,0,0,1,2-.22,1.12,1.12,0,0,1,.16.22,6.9,6.9,0,0,1,2.08-2.42,6.81,6.81,0,0,1,3-.45,2.54,2.54,0,0,0-2.6-2.51,2.73,2.73,0,0,0-2.15,1l-.2-.93a2.54,2.54,0,0,0-1.72,1.58,6,6,0,0,0,.05,3.3,5.85,5.85,0,0,0-.73-1.4,7.33,7.33,0,0,0-2.17-1.44,8.87,8.87,0,0,1-1.19-.69s0,.16,0,.53a4.17,4.17,0,0,0,0,.72,7.19,7.19,0,0,0-3.33.42,4.26,4.26,0,0,0,2.27,2s-.38.31-.72.65a3.11,3.11,0,0,0-.38.43l1.11.16A15.11,15.11,0,0,0,380,300a12.53,12.53,0,0,0,1.52-.19"/><path class="cls-36" d="M384.21,298.69a1.55,1.55,0,0,0-2,.22c-.68.58-.88,1.44-.44,1.9a1.55,1.55,0,0,0,2-.22c.68-.59.88-1.44.44-1.9"/><path class="cls-37" d="M345.19,315.68a103.07,103.07,0,0,1-24.92-2.83,113.66,113.66,0,0,1,49.88,0,103.43,103.43,0,0,1-25,2.83Z"/><path class="cls-19" d="M352.06,315.43v-5.22m-2.62,5.39,0-5.53m-2,5.6V310"/><path class="cls-23" d="M345.91,315.74V310"/><path class="cls-28" d="M344.35,315.74V310"/><path class="cls-30" d="M342.89,315.74V310"/><path class="cls-44" d="M341.44,315.74V310"/><path class="cls-45" d="M340.15,315.74V310"/><path class="cls-46" d="M337.68,315.43l0-5.19m1.2,5.26v-5.43"/><path class="cls-47" d="M335.41,315.2v-4.78m1.15,4.91,0-5.09"/><path class="cls-48" d="M332.36,314.93v-4.21m1,4.28v-4.42m1,4.55v-4.58"/><path class="cls-49" d="M331.29,314.89v-4.06"/><path class="cls-50" d="M330.29,314.68V310.9"/><path class="cls-51" d="M329.22,314.59v-3.53"/><path class="cls-52" d="M327,314.27l0-2.79m1.15,2.93v-3.14"/><path class="cls-53" d="M325.91,314v-2.47"/><path class="cls-54" d="M324.88,313.84v-2"/><path class="cls-55" d="M323.76,313.56V312"/><path class="cls-56" d="M322.6,313.43v-1.2"/><path class="cls-57" d="M321.39,313.15v-.58"/><path class="cls-35" d="M319.13,313.15c6.73-1.89,15.88-3,26.06-3.07s19.37,1.18,26.11,3.07"/><path class="cls-36" d="M316.17,309.25l1.06-1.39,2.93.38-2.33,1.7-1.66-.69"/><path class="cls-43" d="M322.52,307.61a1,1,0,1,1,1,.91.93.93,0,0,1-1-.91"/><path class="cls-58" d="M330.87,307.43l-2.05.23a1,1,0,0,1-1.08-.78.91.91,0,0,1,.84-1l2.06-.24,2.1-.24a.9.9,0,1,1,.22,1.79l-2.09.24"/><path class="cls-43" d="M336.86,305.94a1,1,0,0,1,1.92,0,1,1,0,0,1-1.92,0"/><path class="cls-36" d="M345.21,306.64h-2.86a.9.9,0,1,1,0-1.8h5.76a.9.9,0,1,1,0,1.8h-2.89"/><path class="cls-43" d="M351.65,305.94a1,1,0,1,1,1,.9.93.93,0,0,1-1-.9"/><path class="cls-58" d="M359.55,307.43l2.05.23a1,1,0,0,0,1.08-.78.92.92,0,0,0-.83-1l-2.06-.24-2.11-.24a.9.9,0,1,0-.22,1.79l2.09.24"/><path class="cls-43" d="M366,307.61a1,1,0,0,1,1.91,0,1,1,0,0,1-1.91,0"/><path class="cls-36" d="M374.24,309.25l-1.05-1.39-2.93.38,2.34,1.7,1.64-.69"/></g><g id="shield"><g id="Granada"><path class="cls-59" d="M345.51,419.7a74.19,74.19,0,0,1-32.1-7.41,20.56,20.56,0,0,1-11.6-18.41V365H389v28.92a20.54,20.54,0,0,1-11.6,18.41,73.36,73.36,0,0,1-31.92,7.41Z"/><path class="cls-60" d="M347.61,406.87a3.55,3.55,0,0,1,2.74,3.48c0,2.07-2,3.63-4.61,3.63s-4.71-1.56-4.71-3.63c0-1.56.87-3.3,2.68-3.42a2.18,2.18,0,0,0-.21-.44l-.56-.57a2.6,2.6,0,0,1,1.09,0,2.16,2.16,0,0,1,.67.41,2.85,2.85,0,0,1,.45-.66,2.41,2.41,0,0,1,.61-.47,2.93,2.93,0,0,1,.53.56,3.67,3.67,0,0,1,.22.51,2.92,2.92,0,0,1,.68-.42,6.22,6.22,0,0,1,.73-.23s-.11.4-.19.6a3.14,3.14,0,0,0-.12.63"/><path class="cls-61" d="M345.36,416.22s-3.46-2.33-4.95-2.64a24.47,24.47,0,0,0-5-.13,20.07,20.07,0,0,1,1.59,1.29,9.21,9.21,0,0,0,3,1.65,10.49,10.49,0,0,0,5.38-.17"/><path class="cls-61" d="M346.35,416.43s2.21-2.31,4.53-2.62a12.44,12.44,0,0,1,5.59.5s-.88.43-1.36.76a6.09,6.09,0,0,1-3.59,1.38c-1.9,0-4-.2-4.32-.15l-.85.13"/><path class="cls-62" d="M345.68,413.58a4.39,4.39,0,0,1-1.41-3.23,4.34,4.34,0,0,1,1.42-3.22,4.4,4.4,0,0,1,0,6.45"/><path class="cls-61" d="M344.8,418.3a9.19,9.19,0,0,0,.59-2.46,9,9,0,0,0-.13-1.89H346a7,7,0,0,1,.34,1.89,18.78,18.78,0,0,1-.16,2.06,3.14,3.14,0,0,0-.63.15l-.7.25"/></g><g id="Aragon"><path class="cls-62" d="M345.36,393.85c0,11.44-9.69,20.69-21.76,20.69s-21.84-9.25-21.84-20.69v-29h43.6v29"/><path class="cls-63" d="M301.68,393.46a22.05,22.05,0,0,0,5,13.61v-43h-4.92l-.06,29.35Z"/><path class="cls-63" d="M311.28,410.93a22.76,22.76,0,0,0,5.23,2.41l-.13-49.48h-5.1Z"/><path class="cls-63" d="M321,414.42a23.43,23.43,0,0,0,5.1,0V363.86H321Z"/><path class="cls-63" d="M330.59,413.34a17,17,0,0,0,5.24-2.29V363.86h-5.11l-.13,49.48Z"/><path class="cls-63" d="M340.57,406.6c2.13-1.9,4.13-6.19,4.86-11.09l.12-31.65h-5.1Z"/></g><g id="Navarre"><path class="cls-62" d="M389.08,364.89v29c0,11.44-9.8,20.69-21.87,20.69s-21.85-9.25-21.85-20.69v-29h43.72"/><path id="chains_half" data-name="chains half" class="cls-64" d="M364.81,386.53a2.11,2.11,0,0,1,.16-.34l-3.7-4.12-1.45.62-2.66-2.94.87-1.27-4.64-5.2a1.81,1.81,0,0,1-.23,0l0,3.49,1.52.44v3.87l-1.52.42,0,3.54a2.3,2.3,0,0,1,1.51,1.45h2.79l.44-1.45H362l.44,1.45Zm-6.07-16.07v1.4h2.4v-1.4Zm-6.34,17.7a1,1,0,1,0-1-1A1,1,0,0,0,352.4,388.16Zm13.89-8.45-1.53-.42v-3.88l1.53-.43v-1.67a2.3,2.3,0,0,1-1.55-1.45H362.4l-.44,1.45h-4.09l-.45-1.45h-2.68a2.87,2.87,0,0,1-.25.53l4.67,5.18,1.45-.62,2.66,3-.87,1.25,3.63,4,.25-.11ZM360,378.5l-1.13.9,1.54,1.72,1.12-.91ZM367,409.93a2.34,2.34,0,0,1-2.19-1.75,15.83,15.83,0,0,1-4.1-1.13l.72-1.24a14.34,14.34,0,0,0,3.55,1,2.33,2.33,0,0,1,1.37-1.22v-4.88l-1.53-.42v-3.88l1.53-.41v-6.64a.65.65,0,0,1-.17-.08l-3.46,3.84.87,1.25-2.66,3-1.45-.62-2.87,3.19a2.1,2.1,0,0,1-.09,2.47,13.47,13.47,0,0,0,2.81,2.39l-.73,1.25a15.25,15.25,0,0,1-3.29-2.8,2.44,2.44,0,0,1-2.26-.43,2.15,2.15,0,0,1-.26-3.16l.12-.14a13.77,13.77,0,0,1-1.14-4.34h1.48a11.87,11.87,0,0,0,1,3.7,2.88,2.88,0,0,1,1.27.14l2.88-3.19-.87-1.26,2.66-3,1.45.63,3.47-3.85a2.12,2.12,0,0,1-.19-.4h-2.39l-.44,1.45h-4.1l-.44-1.45h-2.82a2.32,2.32,0,0,1-1.46,1.41v3.51h-1.49v-3.48a2.22,2.22,0,0,1,0-4.3v-3.52l-1.53-.42v-3.87l1.53-.44v-3.51a2.27,2.27,0,0,1-1.6-2.13,2.31,2.31,0,0,1,2.37-2.24,2.37,2.37,0,0,1,2.27,1.54h2.68l.45-1.45H362l.44,1.45h2.33a2.35,2.35,0,0,1,2.22-1.54l.06,7.27h-.73v2.26H367l0,18.76h-.68v2.26H367ZM361.81,394l-1.12-.9-1.55,1.72,1.12.9Zm-8.65-16h-1.47v2.27h1.48Zm8,9.91v-1.39h-2.48v1.39Zm-9.21,8.42-1.53-.34-.22-3.86,1.52-.51v2.22a13.65,13.65,0,0,0,.23,2.49Zm1.27-4.8,1.52.36s.08,2.49,0,1.93.17,1.94.17,1.94l-1.53.51a12.14,12.14,0,0,1-.21-2.43Zm9.39,14.71.34-1.48a12.35,12.35,0,0,1-3.63-1.81l-1.09,1a14.28,14.28,0,0,0,4.38,2.33Zm-.74,1.25-1.13,1.06a16.54,16.54,0,0,1-3.58-1.83l.33-1.54a16,16,0,0,0,4.38,2.31Z"/><path id="chains_half-2" data-name="chains half" class="cls-64" d="M369.16,386.53a2.16,2.16,0,0,0-.17-.34l3.7-4.12,1.45.62,2.66-2.94-.87-1.27,4.64-5.2a2,2,0,0,0,.24,0l0,3.49-1.52.44v3.87l1.52.42,0,3.54a2.28,2.28,0,0,0-1.51,1.45h-2.79l-.45-1.45H372l-.43,1.45Zm6.06-16.07v1.4h-2.4v-1.4Zm6.34,17.7a1,1,0,1,1,1-1A1,1,0,0,1,381.56,388.16Zm-13.89-8.45,1.53-.42v-3.88l-1.53-.43v-1.67a2.31,2.31,0,0,0,1.56-1.45h2.32l.45,1.45h4.09l.44-1.45h2.69a2.35,2.35,0,0,0,.25.53l-4.68,5.18-1.45-.62-2.65,3,.86,1.25-3.63,4-.24-.11Zm6.3-1.21,1.12.9-1.54,1.72-1.12-.91Zm-7,31.43a2.32,2.32,0,0,0,2.18-1.75,15.9,15.9,0,0,0,4.11-1.13l-.73-1.24a14.15,14.15,0,0,1-3.54,1,2.32,2.32,0,0,0-1.38-1.22v-4.88l1.52-.42v-3.88l-1.52-.41v-6.64a.65.65,0,0,0,.17-.08l3.46,3.84-.87,1.25,2.66,3,1.45-.62,2.86,3.19a2.12,2.12,0,0,0,.1,2.47,13.53,13.53,0,0,1-2.82,2.39l.73,1.25a15.07,15.07,0,0,0,3.3-2.8,2.42,2.42,0,0,0,2.25-.43,2.15,2.15,0,0,0,.26-3.16l-.12-.14a13.78,13.78,0,0,0,1.15-4.34h-1.49a12.14,12.14,0,0,1-.94,3.7,2.87,2.87,0,0,0-1.27.14l-2.88-3.19.86-1.26-2.65-3-1.45.63L369,388.32a1.62,1.62,0,0,0,.18-.4h2.4l.43,1.45h4.1l.45-1.45h2.81a2.34,2.34,0,0,0,1.47,1.41v3.51h1.48v-3.48a2.22,2.22,0,0,0,0-4.3v-3.52l1.52-.42v-3.87l-1.52-.44v-3.51a2.27,2.27,0,0,0,1.59-2.13,2.31,2.31,0,0,0-2.37-2.24,2.35,2.35,0,0,0-2.26,1.54h-2.69L376.1,369H372l-.45,1.45h-2.32a2.36,2.36,0,0,0-2.23-1.54l-.06,7.27h.74v2.26H367l0,18.76h.68v2.26H367Zm5.14-15.9,1.12-.9,1.54,1.72-1.12.9Zm8.65-16h1.46v2.27h-1.47Zm-8,9.91v-1.39h2.48v1.39Zm9.21,8.42,1.53-.34.21-3.86-1.52-.51v2.22a14.59,14.59,0,0,1-.22,2.49Zm-1.27-4.8-1.52.36s-.08,2.49,0,1.93-.17,1.94-.17,1.94l1.53.51a12.14,12.14,0,0,0,.21-2.43Zm-9.39,14.71-.34-1.48a12.17,12.17,0,0,0,3.62-1.81l1.1,1a14.4,14.4,0,0,1-4.38,2.33Zm.74,1.25,1.13,1.06a17,17,0,0,0,3.58-1.83l-.33-1.54a16.09,16.09,0,0,1-4.38,2.31Z"/><path class="cls-65" d="M364.7,387.23a2.38,2.38,0,1,1,2.38,2.24,2.32,2.32,0,0,1-2.38-2.24"/></g><g id="Castile"><path class="cls-62" d="M301.76,364.91h43.58V316.52H301.76Z"/><path class="cls-66" d="M316.71,327.7h-.8v-.8h-1.4v3.21h1.4v2.21h-3v6.42h1.61v12.85h-3.22v6.63H336v-6.63h-3.21V338.74h1.61v-6.42h-3v-2.21h1.4V326.9h-1.4v.8h-.81v-.8h-1.4v.8h-1v-.8h-1.4v3.21h1.4v2.21h-3v-7h1.6v-3.22h-1.6v.81h-.81v-.81h-1.41v.81h-.8v-.81h-1.6v3.22h1.6v7h-3v-2.21h1.41V326.9h-1.41v.8h-.8v-.8h-1.61v.8Zm-5.42,30.52H336m-24.69-1.61H336M311.29,355H336m-24.69-1.6H336m-24.69-1.81H336m-21.47-1.41h18.26m-18.26-1.6h18.26m-18.26-1.81h18.26m-18.26-1.6h18.26m-18.26-1.61h18.26M314.51,342h18.26m-18.26-1.61h18.26m-19.87-1.61h21.48m-21.48-1.6h21.48m-21.48-1.61h21.48m-21.48-1.6h21.48m-18.47-1.61h15.46m-9.24-1.6h3m-3-1.61h3m-3-1.61h3m-3-1.6h3m-4.62-2h6.22m-10.84,6.83h3.21m-4.61-2h6m-6,29.51v-1.61m0-1.61v-1.6M312.9,355v1.61m3,0V355m1.6,3.22v-1.61m0-1.61v-1.6m0-1.81v-1.41m0-1.6v-1.81m-1.6,6.63v-1.81m-3,1.81v-1.81m6.22,0v1.81m1.41-1.81v-1.41m-4.62-1.6v1.6m3.21-1.6v1.6m3-1.6v1.6m-1.6-1.6v-1.81m1.6-1.6v1.6m0-4.81v1.6m-1.6-3.21V342m1.6-3.22v1.61m-3-1.61v1.61m-3.21-1.61v1.61m-1.4-3.21v1.6m3-1.6v1.6m3-1.6v1.6m1.6-3.21v1.61m-3-1.61v1.61m-3.21-1.61v1.61m-1.4-3.21v1.6m6-1.6v1.6m-3-4.81v1.6m13.86-1.6h-3.22m4.62-2h-6m6,29.51v-1.61m0-1.61v-1.6m1.61,1.6v1.61m-3,0V355m-1.61,3.22v-1.61m0-1.61v-1.6m0-1.81v-1.41m0-1.6v-1.81m1.61,6.63v-1.81m3,1.81v-1.81m-6.23,0v1.81m-1.4-1.81v-1.41m4.62-1.6v1.6m-3.22-1.6v1.6m-3-1.6v1.6m1.6-1.6v-1.81m-1.6-1.6v1.6m0-4.81v1.6m1.6-3.21V342m-1.6-3.22v1.61m3-1.61v1.61m3.22-1.61v1.61m1.4-3.21v1.6m-3-1.6v1.6m-3-1.6v1.6m-1.6-3.21v1.61m3-1.61v1.61m3.22-1.61v1.61m1.4-3.21v1.6m-6-1.6v1.6m3-4.81v1.6m-6.22,16.26v-1.81m0-4.81v-1.61m0,4.82v-1.61m0-4.82v-1.6m0-1.61v-1.6m0-3.21v-1.61m0-1.61v-1.6m-7.63,4.21h3.21m3-4.81h3m3,4.81h3.22"/><path class="cls-66" d="M327.75,358.22V354c0-.8-.4-3.22-4.21-3.22-3.61,0-4,2.42-4,3.22v4.22Z"/><path class="cls-66" d="M320.93,354.2l-2-.2c0-.8.2-2,.81-2.41l1.8,1.41A2.28,2.28,0,0,0,320.93,354.2Z"/><path class="cls-66" d="M324.34,352.19l1-1.81a4.83,4.83,0,0,0-1.81-.4,4.76,4.76,0,0,0-1.61.4l1,1.81Z"/><path class="cls-66" d="M326.35,354.2l2-.2c0-.8-.2-2-.8-2.41l-1.8,1.41A2.28,2.28,0,0,1,326.35,354.2Z"/><path class="cls-66" d="M320.53,347.18v-4.42a2.21,2.21,0,1,0-4.42,0v4.42Z"/><path class="cls-66" d="M326.75,347.18v-4.42a2.21,2.21,0,0,1,4.42,0v4.42Z"/><path class="cls-66" d="M319.12,336.34l.2-4h-3.81l.4,4Z"/><path class="cls-66" d="M325.15,336.34l.4-4h-3.82l.2,4Z"/><path class="cls-66" d="M328.15,336.34l-.4-4h4l-.4,4Z"/><path class="cls-67" d="M326.35,358.22V354.6a2.5,2.5,0,0,0-2.81-2.41,2.43,2.43,0,0,0-2.61,2.41v3.62Z"/><path class="cls-67" d="M320.13,346.77V343a1.82,1.82,0,1,0-3.62,0v3.81Z"/><path class="cls-67" d="M327.15,346.77V343a1.82,1.82,0,1,1,3.62,0v3.81Z"/></g><g id="Leon"><path class="cls-59" d="M345.32,364.91H389V316.52H345.32Z"/><path class="cls-68" d="M367.6,328.44l0-.54.08-.29a8.17,8.17,0,0,1-2.14-.1,5.44,5.44,0,0,1-2.09-1.08c-.68-.59-.95-1-1.45-1a3.34,3.34,0,0,0-2.08.35,3.93,3.93,0,0,1,1.55,1.14,4.41,4.41,0,0,0,1.69,1.33,20.21,20.21,0,0,0,2.8.06c.49,0,1.59.16,1.59.16Z"/><path class="cls-69" d="M374.14,326.48s0,.62.07,1.21-.19,1.08-.09,1.4a4.29,4.29,0,0,0,.26.81,3.3,3.3,0,0,1,.18.82l-.64-.47c-.31-.24-.52-.38-.52-.38s.06.62.08.89a2.58,2.58,0,0,0,.45,1.08,5.43,5.43,0,0,1,.91,1.15,4.08,4.08,0,0,1,.12,1.25s-.4-.65-.75-.77a11.32,11.32,0,0,1-1.1-.54,2.4,2.4,0,0,1,.69,1.35,4.66,4.66,0,0,1-.28,1.39,4.21,4.21,0,0,0-.72-1,8.65,8.65,0,0,0-1-.79,5.5,5.5,0,0,1,.45,1.7c0,.68-.13,2.14-.13,2.14a3.93,3.93,0,0,0-.69-.83,6.37,6.37,0,0,1-.88-.68,3.44,3.44,0,0,1,.46,1,9.41,9.41,0,0,0,1.67,4.07c.82,1.19,2.08,3.28,4.78,2.59s1.7-4.32,1.13-6a15.22,15.22,0,0,1-.82-4.23c0-.65.51-2.58.45-2.94a7.14,7.14,0,0,1,.12-2.85,14.66,14.66,0,0,1,.82-2.09,5.34,5.34,0,0,0,.4-1.16,11.35,11.35,0,0,0,.06-1.19s.51.92.64,1.25a6.15,6.15,0,0,1,.12,1.3,2.09,2.09,0,0,1,.85-1.45,12.51,12.51,0,0,0,1.85-1.25,2,2,0,0,0,.29-.44,5.83,5.83,0,0,1-.54,2.32c-.31.42-1.54,1.81-1.54,1.81a4.39,4.39,0,0,1,1.07-.26,5,5,0,0,1,.75,0,6.93,6.93,0,0,0-1.22,1.43c-.7,1-.41,1.09-.91,1.92s-.91.87-1.55,1.38c-.94.75-.43,3.77-.31,4.22s1.76,4.13,1.8,5,.18,2.89-1.39,4.17c-1,.82-2.67.83-3.05,1.06a2.92,2.92,0,0,0-1.12,2.53,2.17,2.17,0,0,0,1,2.18c.44.38,1,.18,1.13.48a1.69,1.69,0,0,0,.38.65.73.73,0,0,1,.25.71c-.07.33-.79,1.07-1,1.61a13.24,13.24,0,0,0-.76,2.15,2.41,2.41,0,0,0,.16,1.19s.79.92.25,1.09c-.35.12-.68-.22-.84-.17-.47.12-.72.41-.85.39-.32-.06-.32-.22-.35-.66s0-.63-.15-.63-.29.16-.32.39,0,.78-.25.78-.53-.39-.72-.48-.72-.18-.76-.42a1.06,1.06,0,0,1,.66-.83c.35-.09.66-.26.44-.45a.49.49,0,0,0-.66,0c-.21.19-.68,0-.66-.23a3.19,3.19,0,0,0,.07-.75c0-.14-.41-.44.08-.71s.73.24,1.24.15a1.22,1.22,0,0,0,.93-.57,1.19,1.19,0,0,0-.19-1.3c-.34-.39-.68-.45-.81-.69a7.41,7.41,0,0,1-.32-.8,7.22,7.22,0,0,1,0,1.19,3.73,3.73,0,0,0,0,.77s-.34-.39-.62-.69a4.37,4.37,0,0,1-.57-1.19s0,.84,0,1.17.37.62.25.75-.72-.63-.89-.75a3.39,3.39,0,0,1-.87-.92,6.89,6.89,0,0,1-.45-1.23,3.93,3.93,0,0,1-.06-1.37c.16-.35.41-1,.41-1h-1.22c-.66,0-1.13-.2-1.39.24a4,4,0,0,0,.19,2.5c.32,1.16.5,1.72.41,1.93a2.51,2.51,0,0,1-.66.77,1.13,1.13,0,0,1-.79,0,2.21,2.21,0,0,0-1.09-.24,7.91,7.91,0,0,1-1.19,0c-.23-.06-.77-.33-1-.27s-.68.28-.56.62c.19.53-.18.66-.44.63a5.22,5.22,0,0,1-.79-.21c-.31-.09-.78,0-.72-.36s.19-.39.35-.65.22-.45,0-.47a.82.82,0,0,0-.6.1c-.18.14-.45.44-.66.33s-.4-.37-.4-.94-.59-1-.05-1,1.23.41,1.35.11,0-.44-.24-.68-.66-.37-.27-.67a6.3,6.3,0,0,0,.64-.47c.15-.15.36-.68.63-.55.54.26,0,.63.57,1.23a1.72,1.72,0,0,0,1.79.72c.9-.09,1.15-.21,1.15-.47a7.49,7.49,0,0,0-.1-.9,5.29,5.29,0,0,1,.13-.86,1.86,1.86,0,0,0-.55.51c-.11.25-.36.7-.36.7a4.38,4.38,0,0,1-.07-.95c0-.25.1-.69.09-.77a6.07,6.07,0,0,0-.2-.82,5.53,5.53,0,0,1-.24.82,4,4,0,0,0-.14.93,1.49,1.49,0,0,1-.42-1.35c.12-.65-.1-1.51.1-1.79s.65-1.42,1.79-1.47,2,.05,2.41,0,1.78-.29,1.78-.29-2.58-1.32-3.16-1.72a8.46,8.46,0,0,1-1.79-1.87,7,7,0,0,1-.57-1.38,2.24,2.24,0,0,0-.89.26,4.33,4.33,0,0,0-1.07.86,7.89,7.89,0,0,0-.64.91s.07-.82.07-1.07-.05-.75-.05-.75a3.24,3.24,0,0,1-.88,1.53c-.59.43-1.27,1-1.27,1s.07-.62.07-.76.14-.86.14-.86a1.85,1.85,0,0,1-1.05.74c-.64.12-1.57.1-1.65.49s.18.93,0,1.21a1.56,1.56,0,0,1-.47.47,1.51,1.51,0,0,0-.69-.33,1.23,1.23,0,0,0-.61.13s-.27-.34-.17-.58.58-.57.47-.72-.52,0-.76.17-.77.23-.72-.17.18-.62.05-.9-.05-.46.15-.53,1,0,1.05-.17-.19-.41-.71-.53-.76-.42-.49-.67a1.85,1.85,0,0,0,.47-.56c.12-.23.17-.66.64-.44s.36.72.86.87a3.6,3.6,0,0,0,1.88-.2c.25-.14,1-.72,1.31-.86s1.4-1,1.4-1-.66-.46-.92-.69a7.06,7.06,0,0,0-.9-.91,7.78,7.78,0,0,0-1.67-.56,9.91,9.91,0,0,1-1.49-.42,3,3,0,0,0,.68-.3c.17-.14.56-.49.76-.46l.24,0a10.89,10.89,0,0,1-1.27-.12,6.37,6.37,0,0,0-1.11-.47,5.24,5.24,0,0,0-.73.1,4,4,0,0,1,1.2-.51,5,5,0,0,1,1-.07,2.82,2.82,0,0,1-1-.51c-.19-.28-.39-.69-.53-.88s-.25-.49-.52-.51-.74.33-1,.3a.54.54,0,0,1-.5-.58c0-.4,0-.26-.09-.47s-.49-.7-.13-.81,1.16.07,1.24-.07-.42-.56-.74-.72-.84-.44-.57-.68.54-.32.69-.53.32-.79.64-.6.76,1.09,1,1,.26-.72.22-1,0-.76.24-.72.44.37.83.4,1-.1.93.18a2.1,2.1,0,0,1-.53.92,1.38,1.38,0,0,0-.22,1.31,3.39,3.39,0,0,0,1,1.28c.39.25,1.13.44,1.59.74a14.89,14.89,0,0,0,1.92,1.26,5,5,0,0,1,.73.28,2.74,2.74,0,0,1,1-.18,8.76,8.76,0,0,0,2.36-.13c.49-.2,1.13-.55.94-1s-1.28-.83-1.18-1.18.49-.37,1.15-.4,1.56.13,1.74-.81.22-1.46-.71-1.67-1.62-.23-1.79-.9-.34-.85-.15-1a2,2,0,0,1,1.22-.32,5.36,5.36,0,0,0,1.71-.22c.21-.15.26-.6.53-.79a5.53,5.53,0,0,1,1.32-.34,17,17,0,0,1,2.44,1.48,13,13,0,0,1,2,1.94"/><path class="cls-35" d="M361.58,332a2.05,2.05,0,0,0-.95.58,1.66,1.66,0,0,0-.3.93,1.63,1.63,0,0,1,1.36-.29c.75.21.83.29,1.15.26a6.32,6.32,0,0,0,1.11-.3s-.65.75-.57,1.26a6.17,6.17,0,0,1,.15,1,4,4,0,0,1-.52,1.4,3.12,3.12,0,0,1,.91-.31,4,4,0,0,0,1.52-.7,4.8,4.8,0,0,0,.78-.89,3.51,3.51,0,0,0,0,1.24,7.1,7.1,0,0,1,.2,1.45,4.46,4.46,0,0,1,.74-.54,2.32,2.32,0,0,0,.78-.61,5,5,0,0,0,.28-.92,3.69,3.69,0,0,0,.34,1.16,10.13,10.13,0,0,1,.61,1.52,4.13,4.13,0,0,1,.52-1.06,2.34,2.34,0,0,0,.61-.93,4.06,4.06,0,0,0-.07-.73l.34.73m-9.91.53a3.23,3.23,0,0,1,.8-.95c.4-.23.94-.64,1.09-.7s.78-.4.78-.4m.86,4.5s.95-.48,1.23-.66a3.43,3.43,0,0,0,1-1"/><path class="cls-10" d="M373.37,329.87s-.29-.42-.36-.57a4.15,4.15,0,0,1-.2-.42"/><path class="cls-35" d="M369.69,344.21s1.77,1.09,1.72,2a5,5,0,0,1-1,2.1"/><path class="cls-70" d="M365.1,325.82s-.15-.42-.17-.54a1.34,1.34,0,0,0-.11-.25s.77,0,.74.23-.24.24-.29.32a1.57,1.57,0,0,1-.17.24Z"/><path class="cls-71" d="M368.59,324.61l-.06-.37a2.17,2.17,0,0,1,1,.22,2.52,2.52,0,0,1,.8.92c-.09.07-.47-.24-.74-.33a1.86,1.86,0,0,1-.39.05.33.33,0,0,1-.33-.18.71.71,0,0,1,0-.27Z"/><path class="cls-70" d="M365.13,329.21l.29-.46.29.42-.58,0"/><path class="cls-70" d="M365.83,329.19l.35-.46.37.42-.72,0"/><path class="cls-70" d="M365.52,326.33l.71.25-.64.33-.07-.58"/><path class="cls-70" d="M366.38,326.57l.63.15-.51.4-.12-.55"/><path class="cls-68" d="M355.4,325.68a2.5,2.5,0,0,0,.74.35,6.26,6.26,0,0,0,.71,0,1.53,1.53,0,0,0,.1-.79,1.62,1.62,0,0,0-1.13-1.28s.28.64.14.93a2.59,2.59,0,0,1-.56.75Z"/><path class="cls-68" d="M353.41,326.58a1.2,1.2,0,0,0-1.15-.58,2.29,2.29,0,0,0-1.31.7,3.42,3.42,0,0,1,1.09.12,1.3,1.3,0,0,1,.42.74,3,3,0,0,0,.61-.46c.14-.19.34-.52.34-.52Z"/><path class="cls-68" d="M352.46,329.3a2,2,0,0,0-1,.51,2,2,0,0,0-.31,1.22s.43-.47.82-.47a5.79,5.79,0,0,1,1,.14,3.06,3.06,0,0,1-.19-.7,2.43,2.43,0,0,0-.29-.7Z"/><path class="cls-68" d="M354.69,338.09a1.16,1.16,0,0,0-1-.28,1.92,1.92,0,0,0-1.06.85,2.26,2.26,0,0,1,.87-.07,1.09,1.09,0,0,1,.54.39,3.4,3.4,0,0,0,.39-.39c.09-.14.27-.5.27-.5Z"/><path class="cls-68" d="M354,340.67a1.38,1.38,0,0,0-1,.29,1.6,1.6,0,0,0-.48,1.08,1.3,1.3,0,0,1,.79-.32,3.32,3.32,0,0,1,.75.24s.07-.45.1-.56a1.19,1.19,0,0,0-.15-.73Z"/><path class="cls-68" d="M355.21,343.05a1.9,1.9,0,0,0,.29,1.11,1.57,1.57,0,0,0,1,.52,4,4,0,0,1-.25-.7.85.85,0,0,1,.3-.65,1.11,1.11,0,0,0-.63-.33,5.84,5.84,0,0,0-.69.05Z"/><path class="cls-68" d="M361.58,349.17a1.46,1.46,0,0,0-1.05-.54,2.47,2.47,0,0,0-1.26.6s.77-.06,1,.19a6.84,6.84,0,0,1,.39.58,3.56,3.56,0,0,0,.49-.3,4.55,4.55,0,0,0,.46-.53Z"/><path class="cls-68" d="M359.7,351.61a1.59,1.59,0,0,0-1.21.3,1.88,1.88,0,0,0-.36,1.18s.48-.53.93-.48a3.43,3.43,0,0,1,.94.27s-.08-.46-.14-.67-.16-.6-.16-.6Z"/><path class="cls-68" d="M361.45,354.19a1,1,0,0,0-.11,1,2.06,2.06,0,0,0,.91.65.93.93,0,0,1-.12-.7c.08-.29.58-.69.58-.69l-1.26-.26Z"/><path class="cls-68" d="M372.22,355.24a1.82,1.82,0,0,0-1.11.07c-.39.22-.71,1.2-.71,1.2s.64-.53,1.11-.46a2.44,2.44,0,0,1,.81.26,2.41,2.41,0,0,0,0-.68,2.35,2.35,0,0,0-.12-.39Z"/><path class="cls-68" d="M372.56,357.83s-.53.56-.34,1a6.38,6.38,0,0,0,.53.95s0-.69.2-.88a1.87,1.87,0,0,1,.92-.32,3.9,3.9,0,0,0-.62-.47A7.46,7.46,0,0,1,372.56,357.83Z"/><path class="cls-68" d="M375.27,358.65a1,1,0,0,0,.24,1.11,1.94,1.94,0,0,0,1,.5s-.4-.71-.28-1.07a1.41,1.41,0,0,1,.47-.63,4.49,4.49,0,0,0-.73-.19c-.1,0-.67.28-.67.28Z"/><path class="cls-7" d="M373.64,322.75l-.25,0a1.07,1.07,0,0,1-.23.3.53.53,0,0,1-.74.06.42.42,0,0,1-.13-.35.41.41,0,0,1-.44,0,.49.49,0,0,1-.12-.69c0-.05,0-.12.1-.15l0-.28-.31.07-.08.16a.47.47,0,0,1-.61.15.42.42,0,0,1-.11-.23.35.35,0,0,1-.15.09c-.47.12-.65-.91-.67-1.17l-.15.22a3.68,3.68,0,0,1,.07,1.13,6.24,6.24,0,0,1-.25,1,8.14,8.14,0,0,1,2.58,1.43,8.35,8.35,0,0,1,2,2.1,7.57,7.57,0,0,1,1-.44,5,5,0,0,1,1.18-.17l.19-.18c-.28,0-1.37.08-1.36-.38a.23.23,0,0,1,.07-.15.69.69,0,0,1-.26-.06c-.15-.11-.15-.37,0-.6l.16-.11v-.29l-.3,0-.13.11a.56.56,0,0,1-.75,0,.37.37,0,0,1-.09-.4.52.52,0,0,1-.39,0,.48.48,0,0,1-.1-.7,1.2,1.2,0,0,1,.27-.28l-.06-.26Z"/><path class="cls-71" d="M371.69,323.35c0-.06.13-.05.2,0a.14.14,0,0,1,.05.18c-.05.06-.13.06-.21,0s-.09-.14,0-.18Z"/><path class="cls-71" d="M372.51,324l-.29-.22a.1.1,0,0,1,0-.14.15.15,0,0,1,.16,0l.28.23.29.21s.07.11,0,.14a.11.11,0,0,1-.15,0l-.29-.22"/><path class="cls-71" d="M371,323l-.23-.13a.11.11,0,0,1-.06-.14.1.1,0,0,1,.15,0l.23.14.22.13a.11.11,0,0,1,.06.14.09.09,0,0,1-.14,0L371,323"/><path class="cls-71" d="M370.1,322.39a.16.16,0,0,1,.21,0,.15.15,0,0,1,0,.19.17.17,0,0,1-.2,0,.13.13,0,0,1,0-.18Z"/><path class="cls-71" d="M373.42,324.67c.05,0,0-.12,0-.18a.17.17,0,0,0-.21,0,.14.14,0,0,0,.05.18.15.15,0,0,0,.2,0Z"/><path class="cls-71" d="M373.92,325.25l.19.18a.12.12,0,0,0,.16,0,.11.11,0,0,0,0-.14l-.18-.18-.2-.18s-.12-.06-.15,0,0,.1,0,.14l.18.19"/><path class="cls-71" d="M374.74,326c.05-.05,0-.13,0-.18a.14.14,0,0,0-.2,0,.14.14,0,0,0,0,.19C374.61,326,374.7,326,374.74,326Z"/><path class="cls-7" d="M372.36,320.71h-.52l-.09.76.05.12h.13l.66-.44-.23-.44"/><path class="cls-7" d="M372.36,320.71h-.52l-.09.76.05.12h.13l.66-.44-.23-.44"/><path class="cls-7" d="M371,321.13l0,.47.8.1.13-.06,0-.13-.46-.62-.43.24"/><path class="cls-7" d="M372.62,322.07l-.43.23-.47-.62v-.13l.12-.05.81.1,0,.47"/><path class="cls-7" d="M371.58,321.48a.25.25,0,0,1,.34-.07.22.22,0,0,1,.09.32.27.27,0,0,1-.34.08A.24.24,0,0,1,371.58,321.48Z"/><path class="cls-7" d="M369.71,320.7s-.11-.4-.22-.61a1.34,1.34,0,0,0-.34-.38.75.75,0,0,1,.76.08c.33.27,0,.76,0,.76a.43.43,0,0,1-.17.15Z"/><path class="cls-7" d="M370.61,321l-.37.32-.59-.52.06-.07,0-.13.8-.06.08.46"/><path class="cls-7" d="M369.61,320.65c0-.13.16-.2.24-.17s.13.15.09.28a.24.24,0,0,1-.25.18C369.59,320.9,369.56,320.78,369.61,320.65Z"/><path class="cls-7" d="M374.33,321.94l-.52-.06-.21.74,0,.12h.13l.72-.35-.16-.46"/><path class="cls-7" d="M372.89,322.16l-.09.47.78.2.13,0v-.13l-.37-.68-.46.17"/><path class="cls-7" d="M374.38,323.32l-.46.17-.37-.68v-.13l.13,0,.78.2-.09.46"/><path class="cls-7" d="M373.44,322.6a.26.26,0,0,1,.35,0,.22.22,0,0,1,0,.33.26.26,0,0,1-.35,0,.22.22,0,0,1,0-.33Z"/><path class="cls-7" d="M376,323.53l.09.48-.75.26-.14,0v-.12l.31-.71.5.12"/><path class="cls-7" d="M375.91,324.91l-.49.12-.27-.72,0-.13.13,0,.74.3-.15.46"/><path class="cls-7" d="M374.59,323.58l-.16.45.74.29h.14l0-.12-.26-.73-.48.12"/><path class="cls-7" d="M375.4,324.42a.23.23,0,0,0,0-.34.29.29,0,0,0-.35,0,.23.23,0,0,0,0,.34.24.24,0,0,0,.34,0Z"/><path class="cls-7" d="M376.6,326s.44,0,.69.08a1.83,1.83,0,0,1,.45.24c.05,0,.1-.37-.24-.69s-.77.19-.77.19a.93.93,0,0,0-.13.18Z"/><path class="cls-7" d="M376.13,325.21l-.25.4.66.44.08-.07.11,0-.1-.77-.5,0"/><path class="cls-7" d="M376.67,326.07c.12-.06.18-.19.13-.27a.23.23,0,0,0-.31,0c-.12.07-.17.19-.12.27S376.55,326.14,376.67,326.07Z"/></g><g id="inescutcheon"><ellipse class="cls-72" cx="345.45" cy="364.71" rx="14.12" ry="15.9"/><ellipse class="cls-73" cx="345.46" cy="364.67" rx="9.94" ry="11.66"/><g id="fdl"><path class="cls-74" d="M340.76,356.65a4.62,4.62,0,0,0-1.17,2.49,5.48,5.48,0,0,0,.5,2.2,1.31,1.31,0,0,0-1.23-.81,1.26,1.26,0,0,0-1.3,1.23,1.81,1.81,0,0,0,.21.67l.42.86a.89.89,0,0,1,.85-.5.91.91,0,0,1,.94.88.78.78,0,0,1,0,.22h-1.06v.89h.95l-.71,1.4.93-.36.7.79.73-.79.93.36-.69-1.4h.94v-.89h-1.06a.78.78,0,0,1,0-.22.9.9,0,0,1,.92-.88.89.89,0,0,1,.85.5l.43-.86a2,2,0,0,0,.21-.67,1.26,1.26,0,0,0-1.3-1.23,1.28,1.28,0,0,0-1.22.81,5.57,5.57,0,0,0,.49-2.2,4.57,4.57,0,0,0-1.21-2.49Z"/><path class="cls-75" d="M338.89,364.79h3.79v-.89h-3.79Z"/></g><g id="fdl-2" data-name="fdl"><path class="cls-74" d="M350,356.65a4.62,4.62,0,0,0-1.17,2.49,5.57,5.57,0,0,0,.49,2.2,1.3,1.3,0,0,0-1.22-.81,1.26,1.26,0,0,0-1.31,1.23,1.81,1.81,0,0,0,.21.67l.43.86a.89.89,0,0,1,.85-.5.92.92,0,0,1,.94.88.54.54,0,0,1,0,.22h-1.06v.89h.95l-.71,1.4.93-.36.71.79.73-.79.93.36-.7-1.4h.94v-.89h-1.06a.78.78,0,0,1,0-.22.9.9,0,0,1,.92-.88.87.87,0,0,1,.85.5l.43-.86a1.81,1.81,0,0,0,.21-.67,1.26,1.26,0,0,0-1.3-1.23,1.28,1.28,0,0,0-1.22.81,5.48,5.48,0,0,0,.5-2.2,4.57,4.57,0,0,0-1.21-2.49Z"/><path class="cls-75" d="M348.12,364.79h3.79v-.89h-3.79Z"/></g><g id="fdl-3" data-name="fdl"><path class="cls-74" d="M345.38,364.59a4.61,4.61,0,0,0-1.18,2.49,5.48,5.48,0,0,0,.5,2.2,1.29,1.29,0,0,0-1.23-.81,1.26,1.26,0,0,0-1.3,1.23,1.81,1.81,0,0,0,.21.67l.43.86a.87.87,0,0,1,.85-.5.91.91,0,0,1,.94.88.54.54,0,0,1,0,.22H343.5v.89h.95l-.71,1.4.93-.37.71.79.73-.79.93.37-.7-1.4h.94v-.89h-1.06a.78.78,0,0,1,0-.22.94.94,0,0,1,1.77-.38l.43-.86a1.81,1.81,0,0,0,.21-.67,1.31,1.31,0,0,0-2.52-.42,5.57,5.57,0,0,0,.49-2.2,4.58,4.58,0,0,0-1.2-2.49Z"/><path class="cls-75" d="M343.5,372.73h3.79v-.89H343.5Z"/></g></g></g></g></g></g></g></g></svg>