<svg xmlns="http://www.w3.org/2000/svg" xmlns:xlink="http://www.w3.org/1999/xlink" viewBox="0 0 800 600"><defs><style>.cls-1{fill:none;}.cls-2{fill:#e2e2e2;}.cls-3{clip-path:url(#clip-path);}.cls-4{fill:#af1b24;}.cls-5{fill:#2f3a88;}.cls-6{fill:#eed224;}.cls-7{fill:#fff;}</style><clipPath id="clip-path"><circle id="Mask" class="cls-1" cx="437.13" cy="337.77" r="217.15"/></clipPath></defs><title>FBWC2019_Flags_Digital_Americas_Venezuela_VEN_01</title><g id="Holding_Shape" data-name="Holding Shape"><circle id="Circle" class="cls-2" cx="437.13" cy="337.77" r="239.29"/><path id="Triangle" class="cls-2" d="M69.78,338.22c39.57-.35,83.08,37,83.46,62.67-.1-4.46-1.12-127.45-1.12-126.94C152.28,291.73,110.53,338.44,69.78,338.22Z"/><path id="Triangle-2" data-name="Triangle" class="cls-2" d="M220.64,135.5c-9.08,15.84-70.25,35.43-106.21,14,35.27,20.38,54.46,76.32,41.34,99.22C155.84,248.42,220.9,135,220.64,135.5Z"/><path id="Triangle-3" data-name="Triangle" class="cls-2" d="M257.74,17.83c18.93,34.77,6.56,90.85-15.89,103.35,3.86-2.2,111.68-61.3,111.23-61.06C337.5,68.68,276.73,53.91,257.74,17.83Z"/><rect class="cls-1" width="800" height="600"/></g><g id="Flag"><g id="Flag_VEN" data-name="Flag VEN"><g class="cls-3"><g id="Flag_Venezuela" data-name="Flag Venezuela"><rect class="cls-4" x="109.79" y="410.51" width="654.67" height="145.48"/><rect class="cls-5" x="109.79" y="265.03" width="654.67" height="145.48"/><rect class="cls-6" x="109.79" y="119.55" width="654.67" height="145.48"/><path class="cls-7" d="M418,288.62l-7.44-14-2.21,15.69-15.62,2.75L407,300l-2.21,15.7,11-11.41,14.26,7-7.45-14,11-11.41Zm47.81,1.7-2.2-15.69-7.44,14-15.62-2.75,11,11.41-7.44,14,14.24-7,11,11.41-2.2-15.7,14.24-7Zm-79.59,5.13-13.73,7.93-11.79-10.61,3.3,15.51-13.73,7.93,15.77,1.66,3.29,15.5,6.46-14.48,15.76,1.65-11.78-10.61Zm124,12.83,3.29-15.51-11.79,10.61L488,295.45l6.45,14.48-11.79,10.61,15.76-1.65,6.45,14.48,3.3-15.5,15.77-1.66ZM345,320.67l-10.19,12.14-14.7-5.94,8.39,13.45-10.19,12.14,15.39-3.83,8.4,13.44,1.1-15.81,15.39-3.84-14.7-5.95Zm210.93,31.79-10.2-12.14,8.41-13.45-14.7,5.94-10.19-12.14,1.1,15.8-14.7,5.95L531,346.26l1.12,15.81,8.39-13.44ZM319.22,373.71l-4.37-15.24-5.43,14.9-15.85-.55,12.5,9.76-5.42,14.9,13.14-8.87,12.49,9.77-4.36-15.25,13.14-8.86Zm261.44-.89-15.85.55-5.41-14.9L555,373.71l-15.84.56,13.14,8.86L548,398.38l12.5-9.77,13.14,8.87-5.43-14.9Z"/></g></g></g></g></svg>